<svg width="1034" height="806" viewBox="0 0 1034 806" fill="none" xmlns="http://www.w3.org/2000/svg">
<g opacity="0.8">
<g clip-path="url(#clip0_1328_1097)">
<path d="M1000.5 -6L1044.5 16" stroke="#FAB8CC" stroke-width="3"/>
<path d="M1000.5 4L1044.5 26" stroke="#FAB8CC" stroke-width="3"/>
<path d="M1000.5 14L1044.5 36" stroke="#FAB8CC" stroke-width="3"/>
<path d="M1000.5 24L1044.5 46" stroke="#FAB8CC" stroke-width="3"/>
<path d="M1000.5 34L1044.5 56" stroke="#FAB8CC" stroke-width="3"/>
<path d="M1000.5 44L1044.5 66" stroke="#FAB8CC" stroke-width="3"/>
<path d="M1000.5 54L1044.5 76" stroke="#FAB8CC" stroke-width="3"/>
<path d="M1000.5 64L1044.5 86" stroke="#FAB8CC" stroke-width="3"/>
<path d="M1000.5 74L1044.5 96" stroke="#FAB8CC" stroke-width="3"/>
<path d="M1000.5 84L1044.5 106" stroke="#FAB8CC" stroke-width="3"/>
<path d="M1000.5 94L1044.5 116" stroke="#FAB8CC" stroke-width="3"/>
<path d="M1000.5 104L1044.5 126" stroke="#FAB8CC" stroke-width="3"/>
<path d="M1000.5 114L1044.5 136" stroke="#FAB8CC" stroke-width="3"/>
<path d="M1000.5 124L1044.5 146" stroke="#FAB8CC" stroke-width="3"/>
<path d="M1000.5 134L1044.5 156" stroke="#FAB8CC" stroke-width="3"/>
<path d="M1000.5 144L1044.5 166" stroke="#FAB8CC" stroke-width="3"/>
<path d="M1000.5 154L1044.5 176" stroke="#FAB8CC" stroke-width="3"/>
<path d="M1000.5 164L1044.5 186" stroke="#FAB8CC" stroke-width="3"/>
<path d="M1000.5 174L1044.5 196" stroke="#FAB8CC" stroke-width="3"/>
<path d="M1000.5 184L1044.5 206" stroke="#FAB8CC" stroke-width="3"/>
<path d="M1000.5 194L1044.5 216" stroke="#FAB8CC" stroke-width="3"/>
<path d="M1000.5 204L1044.5 226" stroke="#FAB8CC" stroke-width="3"/>
<path d="M1000.5 214L1044.5 236" stroke="#FAB8CC" stroke-width="3"/>
<path d="M1000.5 224L1044.5 246" stroke="#FAB8CC" stroke-width="3"/>
<path d="M1000.5 234L1044.5 256" stroke="#FAB8CC" stroke-width="3"/>
<path d="M1000.5 244L1044.5 266" stroke="#FAB8CC" stroke-width="3"/>
<path d="M1000.5 254L1044.5 276" stroke="#FAB8CC" stroke-width="3"/>
<path d="M1000.5 264L1044.5 286" stroke="#FAB8CC" stroke-width="3"/>
<path d="M1000.5 274L1044.5 296" stroke="#FAB8CC" stroke-width="3"/>
<path d="M1000.5 284L1044.5 306" stroke="#FAB8CC" stroke-width="3"/>
<path d="M1000.5 294L1044.5 316" stroke="#FAB8CC" stroke-width="3"/>
<path d="M1000.5 304L1044.5 326" stroke="#FAB8CC" stroke-width="3"/>
<path d="M1000.5 314L1044.5 336" stroke="#FAB8CC" stroke-width="3"/>
<path d="M1000.5 324L1044.5 346" stroke="#FAB8CC" stroke-width="3"/>
<path d="M1000.5 334L1044.5 356" stroke="#FAB8CC" stroke-width="3"/>
<path d="M1000.5 344L1044.5 366" stroke="#FAB8CC" stroke-width="3"/>
<path d="M1000.5 354L1044.5 376" stroke="#FAB8CC" stroke-width="3"/>
<path d="M1000.5 364L1044.5 386" stroke="#FAB8CC" stroke-width="3"/>
<path d="M1000.5 374L1044.5 396" stroke="#FAB8CC" stroke-width="3"/>
<path d="M1000.5 384L1044.5 406" stroke="#FAB8CC" stroke-width="3"/>
<path d="M1000.5 394L1044.5 416" stroke="#FAB8CC" stroke-width="3"/>
<path d="M1000.5 404L1044.5 426" stroke="#FAB8CC" stroke-width="3"/>
<path d="M1000.5 414L1044.5 436" stroke="#FAB8CC" stroke-width="3"/>
<path d="M1000.5 424L1044.5 446" stroke="#FAB8CC" stroke-width="3"/>
<path d="M1000.5 434L1044.5 456" stroke="#FAB8CC" stroke-width="3"/>
<path d="M1000.5 444L1044.5 466" stroke="#FAB8CC" stroke-width="3"/>
<path d="M1000.5 454L1044.5 476" stroke="#FAB8CC" stroke-width="3"/>
<path d="M1000.5 464L1044.5 486" stroke="#FAB8CC" stroke-width="3"/>
<path d="M1000.5 474L1044.5 496" stroke="#FAB8CC" stroke-width="3"/>
<path d="M1000.5 484L1044.5 506" stroke="#FAB8CC" stroke-width="3"/>
<path d="M1000.5 494L1044.5 516" stroke="#FAB8CC" stroke-width="3"/>
<path d="M1000.5 504L1044.5 526" stroke="#FAB8CC" stroke-width="3"/>
<path d="M1000.5 514L1044.5 536" stroke="#FAB8CC" stroke-width="3"/>
<path d="M1000.5 524L1044.5 546" stroke="#FAB8CC" stroke-width="3"/>
<path d="M1000.5 534L1044.5 556" stroke="#FAB8CC" stroke-width="3"/>
<path d="M1000.5 544L1044.5 566" stroke="#FAB8CC" stroke-width="3"/>
<path d="M1000.5 554L1044.5 576" stroke="#FAB8CC" stroke-width="3"/>
<path d="M1000.5 564L1044.5 586" stroke="#FAB8CC" stroke-width="3"/>
<path d="M1000.5 574L1044.5 596" stroke="#FAB8CC" stroke-width="3"/>
<path d="M1000.5 584L1044.5 606" stroke="#FAB8CC" stroke-width="3"/>
<path d="M1000.5 594L1044.5 616" stroke="#FAB8CC" stroke-width="3"/>
<path d="M1000.5 604L1044.5 626" stroke="#FAB8CC" stroke-width="3"/>
<path d="M1000.5 614L1044.5 636" stroke="#FAB8CC" stroke-width="3"/>
<path d="M1000.5 624L1044.5 646" stroke="#FAB8CC" stroke-width="3"/>
<path d="M1000.5 634L1044.5 656" stroke="#FAB8CC" stroke-width="3"/>
<path d="M1000.5 644L1044.5 666" stroke="#FAB8CC" stroke-width="3"/>
<path d="M1000.5 654L1044.5 676" stroke="#FAB8CC" stroke-width="3"/>
<path d="M1000.5 664L1044.5 686" stroke="#FAB8CC" stroke-width="3"/>
<path d="M1000.5 674L1044.5 696" stroke="#FAB8CC" stroke-width="3"/>
<path d="M1000.5 684L1044.5 706" stroke="#FAB8CC" stroke-width="3"/>
<path d="M1000.5 694L1044.5 716" stroke="#FAB8CC" stroke-width="3"/>
<path d="M1000.5 704L1044.5 726" stroke="#FAB8CC" stroke-width="3"/>
<path d="M1000.5 714L1044.5 736" stroke="#FAB8CC" stroke-width="3"/>
<path d="M1000.5 724L1044.5 746" stroke="#FAB8CC" stroke-width="3"/>
<path d="M1000.5 734L1044.5 756" stroke="#FAB8CC" stroke-width="3"/>
<path d="M1000.5 744L1044.5 766" stroke="#FAB8CC" stroke-width="3"/>
<path d="M1000.5 754L1044.5 776" stroke="#FAB8CC" stroke-width="3"/>
<path d="M1000.5 764L1044.5 786" stroke="#FAB8CC" stroke-width="3"/>
<path d="M1000.5 774L1044.5 796" stroke="#FAB8CC" stroke-width="3"/>
<path d="M1000.5 784L1044.5 806" stroke="#FAB8CC" stroke-width="3"/>
<path d="M1000.5 794L1044.5 816" stroke="#FAB8CC" stroke-width="3"/>
<path d="M1000.5 804L1044.5 826" stroke="#FAB8CC" stroke-width="3"/>
</g>
<rect x="1000" y="-2" width="33" height="957" stroke="#FAB8CC" stroke-width="2"/>
</g>
<g opacity="0.8">
<g clip-path="url(#clip1_1328_1097)">
<path d="M1.5 -6L45.5 16" stroke="#FAB8CC" stroke-width="3"/>
<path d="M1.5 4L45.5 26" stroke="#FAB8CC" stroke-width="3"/>
<path d="M1.5 14L45.5 36" stroke="#FAB8CC" stroke-width="3"/>
<path d="M1.5 24L45.5 46" stroke="#FAB8CC" stroke-width="3"/>
<path d="M1.5 34L45.5 56" stroke="#FAB8CC" stroke-width="3"/>
<path d="M1.5 44L45.5 66" stroke="#FAB8CC" stroke-width="3"/>
<path d="M1.5 54L45.5 76" stroke="#FAB8CC" stroke-width="3"/>
<path d="M1.5 64L45.5 86" stroke="#FAB8CC" stroke-width="3"/>
<path d="M1.5 74L45.5 96" stroke="#FAB8CC" stroke-width="3"/>
<path d="M1.5 84L45.5 106" stroke="#FAB8CC" stroke-width="3"/>
<path d="M1.5 94L45.5 116" stroke="#FAB8CC" stroke-width="3"/>
<path d="M1.5 104L45.5 126" stroke="#FAB8CC" stroke-width="3"/>
<path d="M1.5 114L45.5 136" stroke="#FAB8CC" stroke-width="3"/>
<path d="M1.5 124L45.5 146" stroke="#FAB8CC" stroke-width="3"/>
<path d="M1.5 134L45.5 156" stroke="#FAB8CC" stroke-width="3"/>
<path d="M1.5 144L45.5 166" stroke="#FAB8CC" stroke-width="3"/>
<path d="M1.5 154L45.5 176" stroke="#FAB8CC" stroke-width="3"/>
<path d="M1.5 164L45.5 186" stroke="#FAB8CC" stroke-width="3"/>
<path d="M1.5 174L45.5 196" stroke="#FAB8CC" stroke-width="3"/>
<path d="M1.5 184L45.5 206" stroke="#FAB8CC" stroke-width="3"/>
<path d="M1.5 194L45.5 216" stroke="#FAB8CC" stroke-width="3"/>
<path d="M1.5 204L45.5 226" stroke="#FAB8CC" stroke-width="3"/>
<path d="M1.5 214L45.5 236" stroke="#FAB8CC" stroke-width="3"/>
<path d="M1.5 224L45.5 246" stroke="#FAB8CC" stroke-width="3"/>
<path d="M1.5 234L45.5 256" stroke="#FAB8CC" stroke-width="3"/>
<path d="M1.5 244L45.5 266" stroke="#FAB8CC" stroke-width="3"/>
<path d="M1.5 254L45.5 276" stroke="#FAB8CC" stroke-width="3"/>
<path d="M1.5 264L45.5 286" stroke="#FAB8CC" stroke-width="3"/>
<path d="M1.5 274L45.5 296" stroke="#FAB8CC" stroke-width="3"/>
<path d="M1.5 284L45.5 306" stroke="#FAB8CC" stroke-width="3"/>
<path d="M1.5 294L45.5 316" stroke="#FAB8CC" stroke-width="3"/>
<path d="M1.5 304L45.5 326" stroke="#FAB8CC" stroke-width="3"/>
<path d="M1.5 314L45.5 336" stroke="#FAB8CC" stroke-width="3"/>
<path d="M1.5 324L45.5 346" stroke="#FAB8CC" stroke-width="3"/>
<path d="M1.5 334L45.5 356" stroke="#FAB8CC" stroke-width="3"/>
<path d="M1.5 344L45.5 366" stroke="#FAB8CC" stroke-width="3"/>
<path d="M1.5 354L45.5 376" stroke="#FAB8CC" stroke-width="3"/>
<path d="M1.5 364L45.5 386" stroke="#FAB8CC" stroke-width="3"/>
<path d="M1.5 374L45.5 396" stroke="#FAB8CC" stroke-width="3"/>
<path d="M1.5 384L45.5 406" stroke="#FAB8CC" stroke-width="3"/>
<path d="M1.5 394L45.5 416" stroke="#FAB8CC" stroke-width="3"/>
<path d="M1.5 404L45.5 426" stroke="#FAB8CC" stroke-width="3"/>
<path d="M1.5 414L45.5 436" stroke="#FAB8CC" stroke-width="3"/>
<path d="M1.5 424L45.5 446" stroke="#FAB8CC" stroke-width="3"/>
<path d="M1.5 434L45.5 456" stroke="#FAB8CC" stroke-width="3"/>
<path d="M1.5 444L45.5 466" stroke="#FAB8CC" stroke-width="3"/>
<path d="M1.5 454L45.5 476" stroke="#FAB8CC" stroke-width="3"/>
<path d="M1.5 464L45.5 486" stroke="#FAB8CC" stroke-width="3"/>
<path d="M1.5 474L45.5 496" stroke="#FAB8CC" stroke-width="3"/>
<path d="M1.5 484L45.5 506" stroke="#FAB8CC" stroke-width="3"/>
<path d="M1.5 494L45.5 516" stroke="#FAB8CC" stroke-width="3"/>
<path d="M1.5 504L45.5 526" stroke="#FAB8CC" stroke-width="3"/>
<path d="M1.5 514L45.5 536" stroke="#FAB8CC" stroke-width="3"/>
<path d="M1.5 524L45.5 546" stroke="#FAB8CC" stroke-width="3"/>
<path d="M1.5 534L45.5 556" stroke="#FAB8CC" stroke-width="3"/>
<path d="M1.5 544L45.5 566" stroke="#FAB8CC" stroke-width="3"/>
<path d="M1.5 554L45.5 576" stroke="#FAB8CC" stroke-width="3"/>
<path d="M1.5 564L45.5 586" stroke="#FAB8CC" stroke-width="3"/>
<path d="M1.5 574L45.5 596" stroke="#FAB8CC" stroke-width="3"/>
<path d="M1.5 584L45.5 606" stroke="#FAB8CC" stroke-width="3"/>
<path d="M1.5 594L45.5 616" stroke="#FAB8CC" stroke-width="3"/>
<path d="M1.5 604L45.5 626" stroke="#FAB8CC" stroke-width="3"/>
<path d="M1.5 614L45.5 636" stroke="#FAB8CC" stroke-width="3"/>
<path d="M1.5 624L45.5 646" stroke="#FAB8CC" stroke-width="3"/>
<path d="M1.5 634L45.5 656" stroke="#FAB8CC" stroke-width="3"/>
<path d="M1.5 644L45.5 666" stroke="#FAB8CC" stroke-width="3"/>
<path d="M1.5 654L45.5 676" stroke="#FAB8CC" stroke-width="3"/>
<path d="M1.5 664L45.5 686" stroke="#FAB8CC" stroke-width="3"/>
<path d="M1.5 674L45.5 696" stroke="#FAB8CC" stroke-width="3"/>
<path d="M1.5 684L45.5 706" stroke="#FAB8CC" stroke-width="3"/>
<path d="M1.5 694L45.5 716" stroke="#FAB8CC" stroke-width="3"/>
<path d="M1.5 704L45.5 726" stroke="#FAB8CC" stroke-width="3"/>
<path d="M1.5 714L45.5 736" stroke="#FAB8CC" stroke-width="3"/>
<path d="M1.5 724L45.5 746" stroke="#FAB8CC" stroke-width="3"/>
<path d="M1.5 734L45.5 756" stroke="#FAB8CC" stroke-width="3"/>
<path d="M1.5 744L45.5 766" stroke="#FAB8CC" stroke-width="3"/>
<path d="M1.5 754L45.5 776" stroke="#FAB8CC" stroke-width="3"/>
<path d="M1.5 764L45.5 786" stroke="#FAB8CC" stroke-width="3"/>
<path d="M1.5 774L45.5 796" stroke="#FAB8CC" stroke-width="3"/>
<path d="M1.5 784L45.5 806" stroke="#FAB8CC" stroke-width="3"/>
<path d="M1.5 794L45.5 816" stroke="#FAB8CC" stroke-width="3"/>
<path d="M1.5 804L45.5 826" stroke="#FAB8CC" stroke-width="3"/>
</g>
<rect x="1" y="-2" width="35" height="965" stroke="#FAB8CC" stroke-width="2"/>
</g>
<defs>
<clipPath id="clip0_1328_1097">
<rect x="999" y="-3" width="35" height="959" fill="white"/>
</clipPath>
<clipPath id="clip1_1328_1097">
<rect y="-3" width="37" height="967" fill="white"/>
</clipPath>
</defs>
</svg>
