<svg width="1440" height="806" viewBox="0 0 1440 806" fill="none" xmlns="http://www.w3.org/2000/svg">
<g clip-path="url(#clip0_1347_1099)">
<rect width="1440" height="806" fill="#FDF7FD"/>
<g opacity="0.8">
<g clip-path="url(#clip1_1347_1099)">
<path d="M354.5 -6L398.5 16" stroke="#FAB8CC" stroke-width="3"/>
<path d="M354.5 4L398.5 26" stroke="#FAB8CC" stroke-width="3"/>
<path d="M354.5 14L398.5 36" stroke="#FAB8CC" stroke-width="3"/>
<path d="M354.5 24L398.5 46" stroke="#FAB8CC" stroke-width="3"/>
<path d="M354.5 34L398.5 56" stroke="#FAB8CC" stroke-width="3"/>
<path d="M354.5 44L398.5 66" stroke="#FAB8CC" stroke-width="3"/>
<path d="M354.5 54L398.5 76" stroke="#FAB8CC" stroke-width="3"/>
<path d="M354.5 64L398.5 86" stroke="#FAB8CC" stroke-width="3"/>
<path d="M354.5 74L398.5 96" stroke="#FAB8CC" stroke-width="3"/>
<path d="M354.5 84L398.5 106" stroke="#FAB8CC" stroke-width="3"/>
<path d="M354.5 94L398.5 116" stroke="#FAB8CC" stroke-width="3"/>
<path d="M354.5 104L398.5 126" stroke="#FAB8CC" stroke-width="3"/>
<path d="M354.5 114L398.5 136" stroke="#FAB8CC" stroke-width="3"/>
<path d="M354.5 124L398.5 146" stroke="#FAB8CC" stroke-width="3"/>
<path d="M354.5 134L398.5 156" stroke="#FAB8CC" stroke-width="3"/>
<path d="M354.5 144L398.5 166" stroke="#FAB8CC" stroke-width="3"/>
<path d="M354.5 154L398.5 176" stroke="#FAB8CC" stroke-width="3"/>
<path d="M354.5 164L398.5 186" stroke="#FAB8CC" stroke-width="3"/>
<path d="M354.5 174L398.5 196" stroke="#FAB8CC" stroke-width="3"/>
<path d="M354.5 184L398.5 206" stroke="#FAB8CC" stroke-width="3"/>
<path d="M354.5 194L398.5 216" stroke="#FAB8CC" stroke-width="3"/>
<path d="M354.5 204L398.5 226" stroke="#FAB8CC" stroke-width="3"/>
<path d="M354.5 214L398.5 236" stroke="#FAB8CC" stroke-width="3"/>
<path d="M354.5 224L398.5 246" stroke="#FAB8CC" stroke-width="3"/>
<path d="M354.5 234L398.5 256" stroke="#FAB8CC" stroke-width="3"/>
<path d="M354.5 244L398.5 266" stroke="#FAB8CC" stroke-width="3"/>
<path d="M354.5 254L398.5 276" stroke="#FAB8CC" stroke-width="3"/>
<path d="M354.5 264L398.5 286" stroke="#FAB8CC" stroke-width="3"/>
<path d="M354.5 274L398.5 296" stroke="#FAB8CC" stroke-width="3"/>
<path d="M354.5 284L398.5 306" stroke="#FAB8CC" stroke-width="3"/>
<path d="M354.5 294L398.5 316" stroke="#FAB8CC" stroke-width="3"/>
<path d="M354.5 304L398.5 326" stroke="#FAB8CC" stroke-width="3"/>
<path d="M354.5 314L398.5 336" stroke="#FAB8CC" stroke-width="3"/>
<path d="M354.5 324L398.5 346" stroke="#FAB8CC" stroke-width="3"/>
<path d="M354.5 334L398.5 356" stroke="#FAB8CC" stroke-width="3"/>
<path d="M354.5 344L398.5 366" stroke="#FAB8CC" stroke-width="3"/>
<path d="M354.5 354L398.5 376" stroke="#FAB8CC" stroke-width="3"/>
<path d="M354.5 364L398.5 386" stroke="#FAB8CC" stroke-width="3"/>
<path d="M354.5 374L398.5 396" stroke="#FAB8CC" stroke-width="3"/>
<path d="M354.5 384L398.5 406" stroke="#FAB8CC" stroke-width="3"/>
<path d="M354.5 394L398.5 416" stroke="#FAB8CC" stroke-width="3"/>
<path d="M354.5 404L398.5 426" stroke="#FAB8CC" stroke-width="3"/>
<path d="M354.5 414L398.5 436" stroke="#FAB8CC" stroke-width="3"/>
<path d="M354.5 424L398.5 446" stroke="#FAB8CC" stroke-width="3"/>
<path d="M354.5 434L398.5 456" stroke="#FAB8CC" stroke-width="3"/>
<path d="M354.5 444L398.5 466" stroke="#FAB8CC" stroke-width="3"/>
<path d="M354.5 454L398.5 476" stroke="#FAB8CC" stroke-width="3"/>
<path d="M354.5 464L398.5 486" stroke="#FAB8CC" stroke-width="3"/>
<path d="M354.5 474L398.5 496" stroke="#FAB8CC" stroke-width="3"/>
<path d="M354.5 484L398.5 506" stroke="#FAB8CC" stroke-width="3"/>
<path d="M354.5 494L398.5 516" stroke="#FAB8CC" stroke-width="3"/>
<path d="M354.5 504L398.5 526" stroke="#FAB8CC" stroke-width="3"/>
<path d="M354.5 514L398.5 536" stroke="#FAB8CC" stroke-width="3"/>
<path d="M354.5 524L398.5 546" stroke="#FAB8CC" stroke-width="3"/>
<path d="M354.5 534L398.5 556" stroke="#FAB8CC" stroke-width="3"/>
<path d="M354.5 544L398.5 566" stroke="#FAB8CC" stroke-width="3"/>
<path d="M354.5 554L398.5 576" stroke="#FAB8CC" stroke-width="3"/>
<path d="M354.5 564L398.5 586" stroke="#FAB8CC" stroke-width="3"/>
<path d="M354.5 574L398.5 596" stroke="#FAB8CC" stroke-width="3"/>
<path d="M354.5 584L398.5 606" stroke="#FAB8CC" stroke-width="3"/>
<path d="M354.5 594L398.5 616" stroke="#FAB8CC" stroke-width="3"/>
<path d="M354.5 604L398.5 626" stroke="#FAB8CC" stroke-width="3"/>
<path d="M354.5 614L398.5 636" stroke="#FAB8CC" stroke-width="3"/>
<path d="M354.5 624L398.5 646" stroke="#FAB8CC" stroke-width="3"/>
<path d="M354.5 634L398.5 656" stroke="#FAB8CC" stroke-width="3"/>
<path d="M354.5 644L398.5 666" stroke="#FAB8CC" stroke-width="3"/>
<path d="M354.5 654L398.5 676" stroke="#FAB8CC" stroke-width="3"/>
<path d="M354.5 664L398.5 686" stroke="#FAB8CC" stroke-width="3"/>
<path d="M354.5 674L398.5 696" stroke="#FAB8CC" stroke-width="3"/>
<path d="M354.5 684L398.5 706" stroke="#FAB8CC" stroke-width="3"/>
<path d="M354.5 694L398.5 716" stroke="#FAB8CC" stroke-width="3"/>
<path d="M354.5 704L398.5 726" stroke="#FAB8CC" stroke-width="3"/>
<path d="M354.5 714L398.5 736" stroke="#FAB8CC" stroke-width="3"/>
<path d="M354.5 724L398.5 746" stroke="#FAB8CC" stroke-width="3"/>
<path d="M354.5 734L398.5 756" stroke="#FAB8CC" stroke-width="3"/>
<path d="M354.5 744L398.5 766" stroke="#FAB8CC" stroke-width="3"/>
<path d="M354.5 754L398.5 776" stroke="#FAB8CC" stroke-width="3"/>
<path d="M354.5 764L398.5 786" stroke="#FAB8CC" stroke-width="3"/>
<path d="M354.5 774L398.5 796" stroke="#FAB8CC" stroke-width="3"/>
<path d="M354.5 784L398.5 806" stroke="#FAB8CC" stroke-width="3"/>
<path d="M354.5 794L398.5 816" stroke="#FAB8CC" stroke-width="3"/>
<path d="M354.5 804L398.5 826" stroke="#FAB8CC" stroke-width="3"/>
</g>
<rect x="354" y="-2" width="35" height="814" stroke="#FAB8CC" stroke-width="2"/>
</g>
<g opacity="0.8">
<g clip-path="url(#clip2_1347_1099)">
<path d="M961.5 -4.5L1005.5 17.5" stroke="#FAB8CC" stroke-width="3"/>
<path d="M961.5 5.5L1005.5 27.5" stroke="#FAB8CC" stroke-width="3"/>
<path d="M961.5 15.5L1005.5 37.5" stroke="#FAB8CC" stroke-width="3"/>
<path d="M961.5 25.5L1005.5 47.5" stroke="#FAB8CC" stroke-width="3"/>
<path d="M961.5 35.5L1005.5 57.5" stroke="#FAB8CC" stroke-width="3"/>
<path d="M961.5 45.5L1005.5 67.5" stroke="#FAB8CC" stroke-width="3"/>
<path d="M961.5 55.5L1005.5 77.5" stroke="#FAB8CC" stroke-width="3"/>
<path d="M961.5 65.5L1005.5 87.5" stroke="#FAB8CC" stroke-width="3"/>
<path d="M961.5 75.5L1005.5 97.5" stroke="#FAB8CC" stroke-width="3"/>
<path d="M961.5 85.5L1005.5 107.5" stroke="#FAB8CC" stroke-width="3"/>
<path d="M961.5 95.5L1005.5 117.5" stroke="#FAB8CC" stroke-width="3"/>
<path d="M961.5 105.5L1005.5 127.5" stroke="#FAB8CC" stroke-width="3"/>
<path d="M961.5 115.5L1005.5 137.5" stroke="#FAB8CC" stroke-width="3"/>
<path d="M961.5 125.5L1005.5 147.5" stroke="#FAB8CC" stroke-width="3"/>
<path d="M961.5 135.5L1005.5 157.5" stroke="#FAB8CC" stroke-width="3"/>
<path d="M961.5 145.5L1005.5 167.5" stroke="#FAB8CC" stroke-width="3"/>
<path d="M961.5 155.5L1005.5 177.5" stroke="#FAB8CC" stroke-width="3"/>
<path d="M961.5 165.5L1005.5 187.5" stroke="#FAB8CC" stroke-width="3"/>
<path d="M961.5 175.5L1005.5 197.5" stroke="#FAB8CC" stroke-width="3"/>
<path d="M961.5 185.5L1005.5 207.5" stroke="#FAB8CC" stroke-width="3"/>
<path d="M961.5 195.5L1005.5 217.5" stroke="#FAB8CC" stroke-width="3"/>
<path d="M961.5 205.5L1005.5 227.5" stroke="#FAB8CC" stroke-width="3"/>
<path d="M961.5 215.5L1005.5 237.5" stroke="#FAB8CC" stroke-width="3"/>
<path d="M961.5 225.5L1005.5 247.5" stroke="#FAB8CC" stroke-width="3"/>
<path d="M961.5 235.5L1005.5 257.5" stroke="#FAB8CC" stroke-width="3"/>
<path d="M961.5 245.5L1005.5 267.5" stroke="#FAB8CC" stroke-width="3"/>
<path d="M961.5 255.5L1005.5 277.5" stroke="#FAB8CC" stroke-width="3"/>
<path d="M961.5 265.5L1005.5 287.5" stroke="#FAB8CC" stroke-width="3"/>
<path d="M961.5 275.5L1005.5 297.5" stroke="#FAB8CC" stroke-width="3"/>
<path d="M961.5 285.5L1005.5 307.5" stroke="#FAB8CC" stroke-width="3"/>
<path d="M961.5 295.5L1005.5 317.5" stroke="#FAB8CC" stroke-width="3"/>
<path d="M961.5 305.5L1005.5 327.5" stroke="#FAB8CC" stroke-width="3"/>
<path d="M961.5 315.5L1005.5 337.5" stroke="#FAB8CC" stroke-width="3"/>
<path d="M961.5 325.5L1005.5 347.5" stroke="#FAB8CC" stroke-width="3"/>
<path d="M961.5 335.5L1005.5 357.5" stroke="#FAB8CC" stroke-width="3"/>
<path d="M961.5 345.5L1005.5 367.5" stroke="#FAB8CC" stroke-width="3"/>
<path d="M961.5 355.5L1005.5 377.5" stroke="#FAB8CC" stroke-width="3"/>
<path d="M961.5 365.5L1005.5 387.5" stroke="#FAB8CC" stroke-width="3"/>
<path d="M961.5 375.5L1005.5 397.5" stroke="#FAB8CC" stroke-width="3"/>
<path d="M961.5 385.5L1005.5 407.5" stroke="#FAB8CC" stroke-width="3"/>
<path d="M961.5 395.5L1005.5 417.5" stroke="#FAB8CC" stroke-width="3"/>
<path d="M961.5 405.5L1005.5 427.5" stroke="#FAB8CC" stroke-width="3"/>
<path d="M961.5 415.5L1005.5 437.5" stroke="#FAB8CC" stroke-width="3"/>
<path d="M961.5 425.5L1005.5 447.5" stroke="#FAB8CC" stroke-width="3"/>
<path d="M961.5 435.5L1005.5 457.5" stroke="#FAB8CC" stroke-width="3"/>
<path d="M961.5 445.5L1005.5 467.5" stroke="#FAB8CC" stroke-width="3"/>
<path d="M961.5 455.5L1005.5 477.5" stroke="#FAB8CC" stroke-width="3"/>
<path d="M961.5 465.5L1005.5 487.5" stroke="#FAB8CC" stroke-width="3"/>
<path d="M961.5 475.5L1005.5 497.5" stroke="#FAB8CC" stroke-width="3"/>
<path d="M961.5 485.5L1005.5 507.5" stroke="#FAB8CC" stroke-width="3"/>
<path d="M961.5 495.5L1005.5 517.5" stroke="#FAB8CC" stroke-width="3"/>
<path d="M961.5 505.5L1005.5 527.5" stroke="#FAB8CC" stroke-width="3"/>
<path d="M961.5 515.5L1005.5 537.5" stroke="#FAB8CC" stroke-width="3"/>
<path d="M961.5 525.5L1005.5 547.5" stroke="#FAB8CC" stroke-width="3"/>
<path d="M961.5 535.5L1005.5 557.5" stroke="#FAB8CC" stroke-width="3"/>
<path d="M961.5 545.5L1005.5 567.5" stroke="#FAB8CC" stroke-width="3"/>
<path d="M961.5 555.5L1005.5 577.5" stroke="#FAB8CC" stroke-width="3"/>
<path d="M961.5 565.5L1005.5 587.5" stroke="#FAB8CC" stroke-width="3"/>
<path d="M961.5 575.5L1005.5 597.5" stroke="#FAB8CC" stroke-width="3"/>
<path d="M961.5 585.5L1005.5 607.5" stroke="#FAB8CC" stroke-width="3"/>
<path d="M961.5 595.5L1005.5 617.5" stroke="#FAB8CC" stroke-width="3"/>
<path d="M961.5 605.5L1005.5 627.5" stroke="#FAB8CC" stroke-width="3"/>
<path d="M961.5 615.5L1005.5 637.5" stroke="#FAB8CC" stroke-width="3"/>
<path d="M961.5 625.5L1005.5 647.5" stroke="#FAB8CC" stroke-width="3"/>
<path d="M961.5 635.5L1005.5 657.5" stroke="#FAB8CC" stroke-width="3"/>
<path d="M961.5 645.5L1005.5 667.5" stroke="#FAB8CC" stroke-width="3"/>
<path d="M961.5 655.5L1005.5 677.5" stroke="#FAB8CC" stroke-width="3"/>
<path d="M961.5 665.5L1005.5 687.5" stroke="#FAB8CC" stroke-width="3"/>
<path d="M961.5 675.5L1005.5 697.5" stroke="#FAB8CC" stroke-width="3"/>
<path d="M961.5 685.5L1005.5 707.5" stroke="#FAB8CC" stroke-width="3"/>
<path d="M961.5 695.5L1005.5 717.5" stroke="#FAB8CC" stroke-width="3"/>
<path d="M961.5 705.5L1005.5 727.5" stroke="#FAB8CC" stroke-width="3"/>
<path d="M961.5 715.5L1005.5 737.5" stroke="#FAB8CC" stroke-width="3"/>
<path d="M961.5 725.5L1005.5 747.5" stroke="#FAB8CC" stroke-width="3"/>
<path d="M961.5 735.5L1005.5 757.5" stroke="#FAB8CC" stroke-width="3"/>
<path d="M961.5 745.5L1005.5 767.5" stroke="#FAB8CC" stroke-width="3"/>
<path d="M961.5 755.5L1005.5 777.5" stroke="#FAB8CC" stroke-width="3"/>
<path d="M961.5 765.5L1005.5 787.5" stroke="#FAB8CC" stroke-width="3"/>
<path d="M961.5 775.5L1005.5 797.5" stroke="#FAB8CC" stroke-width="3"/>
<path d="M961.5 785.5L1005.5 807.5" stroke="#FAB8CC" stroke-width="3"/>
<path d="M961.5 795.5L1005.5 817.5" stroke="#FAB8CC" stroke-width="3"/>
<path d="M961.5 805.5L1005.5 827.5" stroke="#FAB8CC" stroke-width="3"/>
</g>
<rect x="961" y="-0.5" width="35" height="811" stroke="#FAB8CC" stroke-width="2"/>
</g>
</g>
<defs>
<clipPath id="clip0_1347_1099">
<rect width="1440" height="806" fill="white"/>
</clipPath>
<clipPath id="clip1_1347_1099">
<rect x="353" y="-3" width="37" height="816" fill="white"/>
</clipPath>
<clipPath id="clip2_1347_1099">
<rect x="960" y="-1.5" width="37" height="813" fill="white"/>
</clipPath>
</defs>
</svg>
