<svg width="66" height="96" viewBox="0 0 66 96" fill="none" xmlns="http://www.w3.org/2000/svg">
<g filter="url(#filter0_d_1228_1631)">
<path d="M43.0756 17.8529L46.0002 15.1541C47.7528 13.4553 49.3763 12.1758 50.6558 11.0253L52.4191 9.46627L53.8814 8.26205C54.7308 7.54166 55.3652 6.97181 55.8275 6.52022C57.6876 4.72463 56.7737 4.81065 56.4404 4.36981C56.1071 3.92898 56.4404 3.1333 54.0857 4.44505C53.5051 4.77837 52.7525 5.24072 51.7848 5.87509L50.1505 6.9503L48.2366 8.42332C46.8496 9.49853 45.1293 10.7995 43.2799 12.5091L40.2371 15.2509C39.1619 16.2723 38.0867 17.4013 36.8824 18.5947C31.3507 24.2789 26.375 30.4787 22.0231 37.1098C17.3199 44.3019 13.3982 51.9758 10.3249 60.0009C7.84813 66.3641 6.01473 72.9593 4.8521 79.6879C4.48429 81.6934 4.22943 83.718 4.0887 85.752C3.97043 87.1928 3.97043 87.9885 4.0887 87.9992C4.77684 88.1175 6.48641 75.4838 12.9376 60.9148C16.2807 53.2171 20.3604 45.8607 25.1197 38.9484C29.509 32.5966 34.4257 26.626 39.8177 21.1L43.0434 17.8744" fill="#F24E80"/>
<path d="M58.3218 8.39108C58.0315 10.8318 57.8272 13.0252 57.6982 14.8423C57.4294 18.5518 57.4939 20.8742 57.9347 20.928C58.3756 20.9817 59.1175 18.7776 59.9561 15.1326C60.3755 13.3155 60.8163 11.1544 61.2679 8.73515C61.4829 7.50942 61.7087 6.31592 61.9237 4.8859C62.0832 3.97512 61.9902 3.03809 61.6549 2.17639C61.3895 1.57528 60.9517 1.06639 60.397 0.714096C59.8611 0.383167 59.2592 0.173975 58.6336 0.101254C57.7817 0.0407931 56.9266 0.0407931 56.0746 0.101254C55.322 0.101254 54.5694 0.176513 53.8382 0.230273C52.3759 0.348546 50.9674 0.477553 49.6342 0.649586C46.9569 0.9829 44.5807 1.42375 42.6023 1.87534C38.6456 2.78926 36.3231 3.73544 36.4199 4.12251C36.5167 4.50959 39.0219 4.31605 42.9894 3.95048C44.9785 3.76769 47.2902 3.55265 49.946 3.38062C51.247 3.28385 52.6232 3.20858 54.0425 3.14407L56.1929 3.05807C56.8517 3.0153 57.5125 3.0153 58.1713 3.05807C58.6336 3.14409 58.5369 3.12256 58.6551 3.30535C58.7947 3.72042 58.8316 4.16315 58.7626 4.59561C58.6014 5.8966 58.4401 7.16535 58.3003 8.35883" fill="#F24E80"/>
</g>
<defs>
<filter id="filter0_d_1228_1631" x="0" y="0.0559082" width="65.9995" height="95.9442" filterUnits="userSpaceOnUse" color-interpolation-filters="sRGB">
<feFlood flood-opacity="0" result="BackgroundImageFix"/>
<feColorMatrix in="SourceAlpha" type="matrix" values="0 0 0 0 0 0 0 0 0 0 0 0 0 0 0 0 0 0 127 0" result="hardAlpha"/>
<feOffset dy="4"/>
<feGaussianBlur stdDeviation="2"/>
<feComposite in2="hardAlpha" operator="out"/>
<feColorMatrix type="matrix" values="0 0 0 0 0 0 0 0 0 0 0 0 0 0 0 0 0 0 0.25 0"/>
<feBlend mode="normal" in2="BackgroundImageFix" result="effect1_dropShadow_1228_1631"/>
<feBlend mode="normal" in="SourceGraphic" in2="effect1_dropShadow_1228_1631" result="shape"/>
</filter>
</defs>
</svg>
