<svg width="20" height="105" viewBox="0 0 20 105" fill="none" xmlns="http://www.w3.org/2000/svg">
<path d="M9.42705 74.9305C9.81995 83.1582 10.2621 90.541 10.6621 95.8683C11.0622 101.196 11.4201 104.458 11.6264 104.446C11.8327 104.434 11.8875 101.146 11.8555 95.8132L11.5899 74.8598C11.3251 58.414 11.1684 38.6441 11.0794 25.3113C10.9904 11.9784 10.8505 6.08132 10.5755 3.49971L10.5711 3.23038C10.9073 3.47639 11.2806 3.79363 11.6538 4.11088C12.2821 4.6485 12.8744 5.1867 13.4217 5.71665C14.5341 6.76727 15.4843 7.78459 16.2795 8.65176C17.8614 10.4221 18.8225 11.556 19.1335 11.3535C19.4445 11.1509 18.953 9.62337 17.643 7.45352C16.8645 6.1974 15.9803 5.01004 14.9998 3.90436C14.4511 3.28465 13.8485 2.66578 13.1742 2.05707C12.837 1.74822 12.5361 1.46573 12.1274 1.17599C11.6903 0.799648 11.19 0.503698 10.6497 0.301861C9.97729 0.0611659 9.24033 0.0730335 8.57602 0.335254C8.01634 0.575755 7.51633 0.936351 7.11143 1.39148C6.75842 1.77429 6.51184 2.07457 6.22978 2.40237L5.4453 3.31293C4.43261 4.55042 3.54401 5.68714 2.80556 6.6688C1.36457 8.63153 0.596135 9.98182 0.842704 10.2383C1.08927 10.4947 2.30539 9.62206 4.06607 7.99539C4.95104 7.19096 5.96719 6.16891 7.07153 5.04667L8.39625 3.66949C8.12542 6.36764 7.92401 12.2613 8.01779 25.3336C8.10708 38.6844 8.62346 58.4844 9.42705 74.9305Z" fill="#F24E80"/>
</svg>
