<svg width="89" height="89" viewBox="0 0 89 89" fill="none" xmlns="http://www.w3.org/2000/svg">
<path d="M75.6857 8.40598C71.1666 4.82496 65.2065 3.11695 59.5023 3.27056C56.8648 3.35873 54.287 3.75386 51.8186 4.71173C49.4937 5.58859 47.2982 7.13051 45.3784 8.72501C44.4646 9.48673 43.6219 10.3408 42.8304 11.185C41.8229 12.2835 40.8154 13.382 39.9301 14.5629C38.2518 16.8537 37.4291 19.7215 37.0668 22.4997C36.6832 25.4413 36.841 28.437 37.2446 31.3317C37.708 34.5334 38.4569 37.8388 39.6777 40.8401C40.9696 43.9337 43.1524 46.6949 46.3243 47.9894C49.0883 49.0978 52.1976 48.7055 54.467 46.7244C56.5105 44.9466 57.68 42.2238 57.9087 39.5778C58.1389 36.666 57.1213 33.8906 55.2525 31.6525C51.3118 26.9502 44.4124 25.0532 38.4936 25.1955C35.4269 25.2609 32.2551 25.8777 29.5181 27.3657C26.5964 28.9957 24.4876 31.5296 23.2343 34.6403C21.9184 37.9756 21.4083 41.6321 20.9196 45.1251C20.3782 48.8938 20.0003 52.6838 19.8881 56.4753C19.6027 64.0169 20.0732 71.624 21.26 79.0917C21.567 80.9434 21.9152 82.7339 22.3245 84.5657C22.694 86.1928 25.252 85.6954 24.8825 84.0682C21.8893 70.3151 21.6076 56.0347 24.0118 42.1877C24.5389 39.165 25.1286 35.9178 26.7983 33.3101C28.262 31.0079 30.5598 29.4461 33.1092 28.6318C35.8121 27.7876 38.6955 27.5985 41.4637 27.9097C44.1197 28.1896 46.8553 28.8787 49.23 30.169C51.5435 31.4181 53.5885 33.1972 54.6998 35.6358C55.6193 37.6338 55.4631 40.1064 54.6446 42.177C53.8062 44.1452 52.2544 45.7212 50.1882 46.0169C47.6004 46.3608 45.1973 44.6513 43.6952 42.6604C41.7667 40.1153 41.049 36.6976 40.3497 33.648C39.8111 31.1512 39.5183 28.5535 39.4912 25.9571C39.5253 23.402 39.8151 20.7972 40.7786 18.3799C41.7107 16.0749 43.5297 14.2346 45.1951 12.4241C46.7782 10.7358 48.6355 9.36582 50.6349 8.18059C52.4809 7.02521 54.3439 6.50366 56.5025 6.13697C61.2901 5.36521 66.5908 6.13956 70.9635 8.42172C72.1458 9.04128 73.1846 9.74185 74.2434 10.5447C74.8033 10.9668 75.663 10.7465 76.0339 10.1965C76.446 9.58546 76.2456 8.82803 75.6857 8.40598Z" fill="#F24E80"/>
<path d="M32.9454 59.4578C31.3482 65.7148 29.2409 71.8056 26.7357 77.7615C26.1147 79.2095 25.4525 80.7187 24.7705 82.1256C24.5019 82.6557 24.2632 83.3392 23.8212 83.7968C23.5129 84.1223 23.3906 84.0398 23.0652 83.7315C22.5564 83.2995 22.14 82.7964 21.7237 82.2934C21.1851 81.7079 20.6877 81.0613 20.1903 80.4147C19.2154 79.2239 18.3329 77.962 17.4916 76.639C15.6469 73.7059 14.0794 70.5597 12.87 67.3438C12.6383 66.6987 11.6891 66.4585 11.1149 66.7825C10.4385 67.1265 10.2609 67.8512 10.5537 68.5376C11.7531 71.7023 13.2496 74.7562 15.0843 77.6381C16.0066 79.1046 16.9801 80.5612 18.036 81.8956C19.0208 83.1376 20.0255 84.4819 21.1852 85.5306C22.4769 86.7129 24.1822 87.0184 25.5379 85.7991C26.7501 84.6608 27.3526 82.8446 28.0247 81.3866C29.4727 78.1849 30.7985 74.9007 31.9609 71.5953C33.2582 67.8919 34.4433 64.1573 35.4039 60.3601C35.5915 59.6865 35.2888 58.949 34.6052 58.7103C33.9629 58.4104 33.0818 58.7942 32.9454 59.4578Z" fill="#F24E80"/>
</svg>
