<svg width="74" height="77" viewBox="0 0 74 77" fill="none" xmlns="http://www.w3.org/2000/svg">
<path d="M1.16897 8.49479C4.79774 4.16089 10.0958 1.41096 15.4703 0.538325C17.9583 0.151705 20.4425 0.0777685 22.9197 0.577069C25.2485 1.02244 27.5691 2.14528 29.6402 3.36932C30.6263 3.95468 31.5616 4.64366 32.4472 5.33203C33.5785 6.23188 34.7098 7.13173 35.7406 8.1346C37.7034 10.087 38.9621 12.7605 39.7738 15.4286C40.6334 18.2536 40.9944 21.2289 41.1078 24.149C41.2174 27.3819 41.0767 30.768 40.4421 33.9396C39.7565 37.2149 38.1789 40.3229 35.4249 42.1657C33.0216 43.7521 30.0395 43.9242 27.5751 42.3826C25.357 41.0005 23.7978 38.5318 23.1337 35.9698C22.4232 33.1466 22.9057 30.2337 24.2776 27.6965C27.1736 22.3633 33.3203 19.2589 38.8941 18.3366C41.7806 17.8506 44.8594 17.8882 47.6785 18.8607C50.6949 19.9399 53.1027 22.0541 54.8065 24.8894C56.6069 27.9344 57.7065 31.4399 58.7583 34.7885C59.9062 38.3988 60.9046 42.0594 61.654 45.7692C63.2031 53.1371 64.0544 60.705 64.2106 68.2645C64.2374 70.1411 64.2151 71.9651 64.1426 73.8405C64.0726 75.5075 61.5897 75.4773 61.6597 73.8103C62.1292 59.7433 59.9669 45.6444 55.3599 32.4537C54.352 29.5748 53.2474 26.4862 51.2387 24.2205C49.4752 22.2184 47.0553 21.0943 44.5265 20.7508C41.8488 20.4054 39.1131 20.7369 36.5704 21.5398C34.1276 22.2918 31.6797 23.4607 29.6724 25.1562C27.7154 26.8002 26.1003 28.9175 25.4726 31.5159C24.95 33.6465 25.5167 36.0509 26.6359 37.9409C27.7565 39.7267 29.4792 40.9986 31.4668 40.9186C33.9516 40.7926 35.9144 38.6795 36.9845 36.4514C38.3602 33.6015 38.4525 30.1105 38.5899 26.985C38.6707 24.432 38.5039 21.824 38.0881 19.265C37.622 16.7575 36.9077 14.247 35.5936 12.0419C34.3279 9.94159 32.3097 8.45758 30.4405 6.9754C28.6693 5.59866 26.6951 4.58428 24.619 3.77715C22.6918 2.97184 20.8564 2.79312 18.7701 2.81979C14.15 2.91981 9.31154 4.6329 5.59934 7.66276C4.59601 8.48445 3.74102 9.36009 2.88476 10.3399C2.43148 10.8556 1.58793 10.7932 1.14672 10.3187C0.656497 9.79156 0.715688 9.01047 1.16897 8.49479Z" fill="#F24E80"/>
<path d="M49.9179 51.0466C52.4786 56.9154 55.4894 62.529 58.8503 67.9385C59.6786 69.2516 60.5559 70.6174 61.4345 71.8791C61.7764 72.3523 62.1164 72.9819 62.6085 73.3528C62.953 73.6176 63.0536 73.5145 63.3063 73.1528C63.7099 72.6365 64.0149 72.0669 64.3198 71.4973C64.7253 70.8246 65.0818 70.0993 65.4383 69.374C66.1501 68.0275 66.7631 66.6277 67.3272 65.1752C68.5583 61.9587 69.4935 58.5823 70.0811 55.2016C70.1887 54.5253 71.0379 54.1187 71.6313 54.3344C72.3239 54.5514 72.6136 55.2324 72.4558 55.9602C71.8689 59.2888 70.9846 62.5616 69.7541 65.726C69.1385 67.3343 68.4732 68.9419 67.7099 70.4441C66.9975 71.8426 66.2839 73.3454 65.3748 74.5853C64.3644 75.9802 62.8174 76.5868 61.3391 75.6306C60.0091 74.7283 59.1356 73.0498 58.2577 71.7361C56.356 68.8462 54.5548 65.8534 52.9033 62.8102C51.0576 59.3998 49.3119 55.9386 47.766 52.3755C47.4757 51.7465 47.6342 50.9666 48.2346 50.6091C48.7859 50.1989 49.6772 50.4182 49.9179 51.0466Z" fill="#F24E80"/>
</svg>
