<svg width="58" height="88" viewBox="0 0 58 88" fill="none" xmlns="http://www.w3.org/2000/svg">
<path d="M18.9241 17.7969L15.9995 15.0982C14.2469 13.3994 12.6234 12.1199 11.3439 10.9694L9.58052 9.41036L8.11824 8.20614C7.26882 7.48575 6.63445 6.9159 6.1721 6.46431C4.31199 4.66872 5.22592 4.75474 5.55923 4.31391C5.89255 3.87307 5.55923 3.0774 7.91394 4.38915C8.49456 4.72246 9.2472 5.18481 10.2149 5.81919L11.8492 6.89439L13.7631 8.36741C15.1501 9.44262 16.8705 10.7436 18.7198 12.4532L21.7627 15.195C22.8379 16.2164 23.9131 17.3454 25.1173 18.5388C30.6491 24.223 35.6249 30.4228 39.9768 37.0539C44.68 44.246 48.6017 51.9199 51.6751 59.945C54.1518 66.3082 55.9853 72.9034 57.1479 79.632C57.5157 81.6375 57.7706 83.662 57.9113 85.6961C58.0296 87.1369 58.0296 87.9325 57.9113 87.9433C57.2232 88.0616 55.5136 75.4279 49.0623 60.8589C45.7192 53.1612 41.6395 45.8048 36.8802 38.8925C32.4908 32.5407 27.574 26.5701 22.182 21.0441L18.9564 17.8185" fill="#F24E80"/>
<path d="M3.67755 8.33517C3.96785 10.7759 4.17214 12.9693 4.30116 14.7864C4.56997 18.4959 4.50546 20.8183 4.06462 20.8721C3.62379 20.9258 2.88189 18.7216 2.04323 15.0767C1.6239 13.2596 1.18306 11.0985 0.731468 8.67924C0.516426 7.45351 0.29063 6.26002 0.0755882 4.82999C-0.0838451 3.91922 0.00911713 2.98218 0.344391 2.12048C0.609884 1.51938 1.04767 1.01048 1.60239 0.658188C2.13821 0.327259 2.74017 0.118067 3.36573 0.0453454C4.21766 -0.0151151 5.07281 -0.0151151 5.92474 0.0453454C6.67738 0.0453454 7.43003 0.120605 8.16118 0.174365C9.62347 0.292637 11.032 0.421645 12.3653 0.593678C15.0425 0.926992 17.4188 1.36784 19.3971 1.81943C23.3539 2.73335 25.6764 3.67953 25.5796 4.0666C25.4828 4.45368 22.9776 4.26014 19.0101 3.89457C17.0209 3.71178 14.7092 3.49674 12.0534 3.32471C10.7524 3.22794 9.37617 3.15268 7.95689 3.08816L5.80646 3.00216C5.14769 2.95939 4.48685 2.95939 3.82808 3.00216C3.36573 3.08818 3.4625 3.06665 3.34422 3.24944C3.20465 3.66451 3.16775 4.10725 3.23671 4.5397C3.39799 5.8407 3.55927 7.10944 3.69905 8.30292" fill="#F24E80"/>
</svg>
