<svg width="1220" height="3246" viewBox="0 0 1220 3246" fill="none" xmlns="http://www.w3.org/2000/svg">
<g opacity="0.8">
<g clip-path="url(#clip0_1328_1093)">
<path d="M1186.5 -6L1230.5 16" stroke="#FAB8CC" stroke-width="3"/>
<path d="M1186.5 4L1230.5 26" stroke="#FAB8CC" stroke-width="3"/>
<path d="M1186.5 14L1230.5 36" stroke="#FAB8CC" stroke-width="3"/>
<path d="M1186.5 24L1230.5 46" stroke="#FAB8CC" stroke-width="3"/>
<path d="M1186.5 34L1230.5 56" stroke="#FAB8CC" stroke-width="3"/>
<path d="M1186.5 44L1230.5 66" stroke="#FAB8CC" stroke-width="3"/>
<path d="M1186.5 54L1230.5 76" stroke="#FAB8CC" stroke-width="3"/>
<path d="M1186.5 64L1230.5 86" stroke="#FAB8CC" stroke-width="3"/>
<path d="M1186.5 74L1230.5 96" stroke="#FAB8CC" stroke-width="3"/>
<path d="M1186.5 84L1230.5 106" stroke="#FAB8CC" stroke-width="3"/>
<path d="M1186.5 94L1230.5 116" stroke="#FAB8CC" stroke-width="3"/>
<path d="M1186.5 104L1230.5 126" stroke="#FAB8CC" stroke-width="3"/>
<path d="M1186.5 114L1230.5 136" stroke="#FAB8CC" stroke-width="3"/>
<path d="M1186.5 124L1230.5 146" stroke="#FAB8CC" stroke-width="3"/>
<path d="M1186.5 134L1230.5 156" stroke="#FAB8CC" stroke-width="3"/>
<path d="M1186.5 144L1230.5 166" stroke="#FAB8CC" stroke-width="3"/>
<path d="M1186.5 154L1230.5 176" stroke="#FAB8CC" stroke-width="3"/>
<path d="M1186.5 164L1230.5 186" stroke="#FAB8CC" stroke-width="3"/>
<path d="M1186.5 174L1230.5 196" stroke="#FAB8CC" stroke-width="3"/>
<path d="M1186.5 184L1230.5 206" stroke="#FAB8CC" stroke-width="3"/>
<path d="M1186.5 194L1230.5 216" stroke="#FAB8CC" stroke-width="3"/>
<path d="M1186.5 204L1230.5 226" stroke="#FAB8CC" stroke-width="3"/>
<path d="M1186.5 214L1230.5 236" stroke="#FAB8CC" stroke-width="3"/>
<path d="M1186.5 224L1230.5 246" stroke="#FAB8CC" stroke-width="3"/>
<path d="M1186.5 234L1230.5 256" stroke="#FAB8CC" stroke-width="3"/>
<path d="M1186.5 244L1230.5 266" stroke="#FAB8CC" stroke-width="3"/>
<path d="M1186.5 254L1230.5 276" stroke="#FAB8CC" stroke-width="3"/>
<path d="M1186.5 264L1230.5 286" stroke="#FAB8CC" stroke-width="3"/>
<path d="M1186.5 274L1230.5 296" stroke="#FAB8CC" stroke-width="3"/>
<path d="M1186.5 284L1230.5 306" stroke="#FAB8CC" stroke-width="3"/>
<path d="M1186.5 294L1230.5 316" stroke="#FAB8CC" stroke-width="3"/>
<path d="M1186.5 304L1230.5 326" stroke="#FAB8CC" stroke-width="3"/>
<path d="M1186.5 314L1230.5 336" stroke="#FAB8CC" stroke-width="3"/>
<path d="M1186.5 324L1230.5 346" stroke="#FAB8CC" stroke-width="3"/>
<path d="M1186.5 334L1230.5 356" stroke="#FAB8CC" stroke-width="3"/>
<path d="M1186.5 344L1230.5 366" stroke="#FAB8CC" stroke-width="3"/>
<path d="M1186.5 354L1230.5 376" stroke="#FAB8CC" stroke-width="3"/>
<path d="M1186.5 364L1230.5 386" stroke="#FAB8CC" stroke-width="3"/>
<path d="M1186.5 374L1230.5 396" stroke="#FAB8CC" stroke-width="3"/>
<path d="M1186.5 384L1230.5 406" stroke="#FAB8CC" stroke-width="3"/>
<path d="M1186.5 394L1230.5 416" stroke="#FAB8CC" stroke-width="3"/>
<path d="M1186.5 404L1230.5 426" stroke="#FAB8CC" stroke-width="3"/>
<path d="M1186.5 414L1230.5 436" stroke="#FAB8CC" stroke-width="3"/>
<path d="M1186.5 424L1230.5 446" stroke="#FAB8CC" stroke-width="3"/>
<path d="M1186.5 434L1230.5 456" stroke="#FAB8CC" stroke-width="3"/>
<path d="M1186.5 444L1230.5 466" stroke="#FAB8CC" stroke-width="3"/>
<path d="M1186.5 454L1230.5 476" stroke="#FAB8CC" stroke-width="3"/>
<path d="M1186.5 464L1230.5 486" stroke="#FAB8CC" stroke-width="3"/>
<path d="M1186.5 474L1230.5 496" stroke="#FAB8CC" stroke-width="3"/>
<path d="M1186.5 484L1230.5 506" stroke="#FAB8CC" stroke-width="3"/>
<path d="M1186.5 494L1230.5 516" stroke="#FAB8CC" stroke-width="3"/>
<path d="M1186.5 504L1230.5 526" stroke="#FAB8CC" stroke-width="3"/>
<path d="M1186.5 514L1230.5 536" stroke="#FAB8CC" stroke-width="3"/>
<path d="M1186.5 524L1230.5 546" stroke="#FAB8CC" stroke-width="3"/>
<path d="M1186.5 534L1230.5 556" stroke="#FAB8CC" stroke-width="3"/>
<path d="M1186.5 544L1230.5 566" stroke="#FAB8CC" stroke-width="3"/>
<path d="M1186.5 554L1230.5 576" stroke="#FAB8CC" stroke-width="3"/>
<path d="M1186.5 564L1230.5 586" stroke="#FAB8CC" stroke-width="3"/>
<path d="M1186.5 574L1230.5 596" stroke="#FAB8CC" stroke-width="3"/>
<path d="M1186.5 584L1230.5 606" stroke="#FAB8CC" stroke-width="3"/>
<path d="M1186.5 594L1230.5 616" stroke="#FAB8CC" stroke-width="3"/>
<path d="M1186.5 604L1230.5 626" stroke="#FAB8CC" stroke-width="3"/>
<path d="M1186.5 614L1230.5 636" stroke="#FAB8CC" stroke-width="3"/>
<path d="M1186.5 624L1230.5 646" stroke="#FAB8CC" stroke-width="3"/>
<path d="M1186.5 634L1230.5 656" stroke="#FAB8CC" stroke-width="3"/>
<path d="M1186.5 644L1230.5 666" stroke="#FAB8CC" stroke-width="3"/>
<path d="M1186.5 654L1230.5 676" stroke="#FAB8CC" stroke-width="3"/>
<path d="M1186.5 664L1230.5 686" stroke="#FAB8CC" stroke-width="3"/>
<path d="M1186.5 674L1230.5 696" stroke="#FAB8CC" stroke-width="3"/>
<path d="M1186.5 684L1230.5 706" stroke="#FAB8CC" stroke-width="3"/>
<path d="M1186.5 694L1230.5 716" stroke="#FAB8CC" stroke-width="3"/>
<path d="M1186.5 704L1230.5 726" stroke="#FAB8CC" stroke-width="3"/>
<path d="M1186.5 714L1230.5 736" stroke="#FAB8CC" stroke-width="3"/>
<path d="M1186.5 724L1230.5 746" stroke="#FAB8CC" stroke-width="3"/>
<path d="M1186.5 734L1230.5 756" stroke="#FAB8CC" stroke-width="3"/>
<path d="M1186.5 744L1230.5 766" stroke="#FAB8CC" stroke-width="3"/>
<path d="M1186.5 754L1230.5 776" stroke="#FAB8CC" stroke-width="3"/>
<path d="M1186.5 764L1230.5 786" stroke="#FAB8CC" stroke-width="3"/>
<path d="M1186.5 774L1230.5 796" stroke="#FAB8CC" stroke-width="3"/>
<path d="M1186.5 784L1230.5 806" stroke="#FAB8CC" stroke-width="3"/>
<path d="M1186.5 794L1230.5 816" stroke="#FAB8CC" stroke-width="3"/>
<path d="M1186.5 804L1230.5 826" stroke="#FAB8CC" stroke-width="3"/>
<path d="M1186.5 814L1230.5 836" stroke="#FAB8CC" stroke-width="3"/>
<path d="M1186.5 824L1230.5 846" stroke="#FAB8CC" stroke-width="3"/>
<path d="M1186.5 834L1230.5 856" stroke="#FAB8CC" stroke-width="3"/>
<path d="M1186.5 844L1230.5 866" stroke="#FAB8CC" stroke-width="3"/>
<path d="M1186.5 854L1230.5 876" stroke="#FAB8CC" stroke-width="3"/>
<path d="M1186.5 864L1230.5 886" stroke="#FAB8CC" stroke-width="3"/>
<path d="M1186.5 874L1230.5 896" stroke="#FAB8CC" stroke-width="3"/>
<path d="M1186.5 884L1230.5 906" stroke="#FAB8CC" stroke-width="3"/>
<path d="M1186.5 894L1230.5 916" stroke="#FAB8CC" stroke-width="3"/>
<path d="M1186.5 904L1230.5 926" stroke="#FAB8CC" stroke-width="3"/>
<path d="M1186.5 914L1230.5 936" stroke="#FAB8CC" stroke-width="3"/>
<path d="M1186.5 924L1230.5 946" stroke="#FAB8CC" stroke-width="3"/>
<path d="M1186.5 934L1230.5 956" stroke="#FAB8CC" stroke-width="3"/>
<path d="M1186.5 944L1230.5 966" stroke="#FAB8CC" stroke-width="3"/>
<path d="M1186.5 954L1230.5 976" stroke="#FAB8CC" stroke-width="3"/>
<path d="M1186.5 964L1230.5 986" stroke="#FAB8CC" stroke-width="3"/>
<path d="M1186.5 974L1230.5 996" stroke="#FAB8CC" stroke-width="3"/>
<path d="M1186.5 984L1230.5 1006" stroke="#FAB8CC" stroke-width="3"/>
<path d="M1186.5 994L1230.5 1016" stroke="#FAB8CC" stroke-width="3"/>
<path d="M1186.5 1004L1230.5 1026" stroke="#FAB8CC" stroke-width="3"/>
<path d="M1186.5 1014L1230.5 1036" stroke="#FAB8CC" stroke-width="3"/>
<path d="M1186.5 1024L1230.5 1046" stroke="#FAB8CC" stroke-width="3"/>
<path d="M1186.5 1034L1230.5 1056" stroke="#FAB8CC" stroke-width="3"/>
<path d="M1186.5 1044L1230.5 1066" stroke="#FAB8CC" stroke-width="3"/>
<path d="M1186.5 1054L1230.5 1076" stroke="#FAB8CC" stroke-width="3"/>
<path d="M1186.5 1064L1230.5 1086" stroke="#FAB8CC" stroke-width="3"/>
<path d="M1186.5 1074L1230.5 1096" stroke="#FAB8CC" stroke-width="3"/>
<path d="M1186.5 1084L1230.5 1106" stroke="#FAB8CC" stroke-width="3"/>
<path d="M1186.5 1094L1230.5 1116" stroke="#FAB8CC" stroke-width="3"/>
<path d="M1186.5 1104L1230.5 1126" stroke="#FAB8CC" stroke-width="3"/>
<path d="M1186.5 1114L1230.5 1136" stroke="#FAB8CC" stroke-width="3"/>
<path d="M1186.5 1124L1230.5 1146" stroke="#FAB8CC" stroke-width="3"/>
<path d="M1186.5 1134L1230.5 1156" stroke="#FAB8CC" stroke-width="3"/>
<path d="M1186.5 1144L1230.5 1166" stroke="#FAB8CC" stroke-width="3"/>
<path d="M1186.5 1154L1230.5 1176" stroke="#FAB8CC" stroke-width="3"/>
<path d="M1186.5 1164L1230.5 1186" stroke="#FAB8CC" stroke-width="3"/>
<path d="M1186.5 1174L1230.5 1196" stroke="#FAB8CC" stroke-width="3"/>
<path d="M1186.5 1184L1230.5 1206" stroke="#FAB8CC" stroke-width="3"/>
<path d="M1186.5 1194L1230.5 1216" stroke="#FAB8CC" stroke-width="3"/>
<path d="M1186.5 1204L1230.5 1226" stroke="#FAB8CC" stroke-width="3"/>
<path d="M1186.5 1214L1230.5 1236" stroke="#FAB8CC" stroke-width="3"/>
<path d="M1186.5 1224L1230.5 1246" stroke="#FAB8CC" stroke-width="3"/>
<path d="M1186.5 1234L1230.5 1256" stroke="#FAB8CC" stroke-width="3"/>
<path d="M1186.5 1244L1230.5 1266" stroke="#FAB8CC" stroke-width="3"/>
<path d="M1186.5 1254L1230.5 1276" stroke="#FAB8CC" stroke-width="3"/>
<path d="M1186.5 1264L1230.5 1286" stroke="#FAB8CC" stroke-width="3"/>
<path d="M1186.5 1274L1230.5 1296" stroke="#FAB8CC" stroke-width="3"/>
<path d="M1186.5 1284L1230.5 1306" stroke="#FAB8CC" stroke-width="3"/>
<path d="M1186.5 1294L1230.5 1316" stroke="#FAB8CC" stroke-width="3"/>
<path d="M1186.5 1304L1230.5 1326" stroke="#FAB8CC" stroke-width="3"/>
<path d="M1186.5 1314L1230.5 1336" stroke="#FAB8CC" stroke-width="3"/>
<path d="M1186.5 1324L1230.5 1346" stroke="#FAB8CC" stroke-width="3"/>
<path d="M1186.5 1334L1230.5 1356" stroke="#FAB8CC" stroke-width="3"/>
<path d="M1186.5 1344L1230.5 1366" stroke="#FAB8CC" stroke-width="3"/>
<path d="M1186.5 1354L1230.5 1376" stroke="#FAB8CC" stroke-width="3"/>
<path d="M1186.5 1364L1230.5 1386" stroke="#FAB8CC" stroke-width="3"/>
<path d="M1186.5 1374L1230.5 1396" stroke="#FAB8CC" stroke-width="3"/>
<path d="M1186.5 1384L1230.5 1406" stroke="#FAB8CC" stroke-width="3"/>
<path d="M1186.5 1394L1230.5 1416" stroke="#FAB8CC" stroke-width="3"/>
<path d="M1186.5 1404L1230.5 1426" stroke="#FAB8CC" stroke-width="3"/>
<path d="M1186.5 1414L1230.5 1436" stroke="#FAB8CC" stroke-width="3"/>
<path d="M1186.5 1424L1230.5 1446" stroke="#FAB8CC" stroke-width="3"/>
<path d="M1186.5 1434L1230.5 1456" stroke="#FAB8CC" stroke-width="3"/>
<path d="M1186.5 1444L1230.5 1466" stroke="#FAB8CC" stroke-width="3"/>
<path d="M1186.5 1454L1230.5 1476" stroke="#FAB8CC" stroke-width="3"/>
<path d="M1186.5 1464L1230.5 1486" stroke="#FAB8CC" stroke-width="3"/>
<path d="M1186.5 1474L1230.5 1496" stroke="#FAB8CC" stroke-width="3"/>
<path d="M1186.5 1484L1230.5 1506" stroke="#FAB8CC" stroke-width="3"/>
<path d="M1186.5 1494L1230.5 1516" stroke="#FAB8CC" stroke-width="3"/>
<path d="M1186.5 1504L1230.5 1526" stroke="#FAB8CC" stroke-width="3"/>
<path d="M1186.5 1514L1230.5 1536" stroke="#FAB8CC" stroke-width="3"/>
<path d="M1186.5 1524L1230.5 1546" stroke="#FAB8CC" stroke-width="3"/>
<path d="M1186.5 1534L1230.5 1556" stroke="#FAB8CC" stroke-width="3"/>
<path d="M1186.5 1544L1230.5 1566" stroke="#FAB8CC" stroke-width="3"/>
<path d="M1186.5 1554L1230.5 1576" stroke="#FAB8CC" stroke-width="3"/>
<path d="M1186.5 1564L1230.5 1586" stroke="#FAB8CC" stroke-width="3"/>
<path d="M1186.5 1574L1230.5 1596" stroke="#FAB8CC" stroke-width="3"/>
<path d="M1186.5 1584L1230.5 1606" stroke="#FAB8CC" stroke-width="3"/>
<path d="M1186.5 1594L1230.5 1616" stroke="#FAB8CC" stroke-width="3"/>
<path d="M1186.5 1604L1230.5 1626" stroke="#FAB8CC" stroke-width="3"/>
<path d="M1186.5 1614L1230.5 1636" stroke="#FAB8CC" stroke-width="3"/>
<path d="M1186.5 1624L1230.5 1646" stroke="#FAB8CC" stroke-width="3"/>
<path d="M1186.5 1634L1230.5 1656" stroke="#FAB8CC" stroke-width="3"/>
<path d="M1186.5 1644L1230.5 1666" stroke="#FAB8CC" stroke-width="3"/>
<path d="M1186.5 1654L1230.5 1676" stroke="#FAB8CC" stroke-width="3"/>
<path d="M1186.5 1664L1230.5 1686" stroke="#FAB8CC" stroke-width="3"/>
<path d="M1186.5 1674L1230.5 1696" stroke="#FAB8CC" stroke-width="3"/>
<path d="M1186.5 1684L1230.5 1706" stroke="#FAB8CC" stroke-width="3"/>
<path d="M1186.5 1694L1230.5 1716" stroke="#FAB8CC" stroke-width="3"/>
<path d="M1186.5 1704L1230.5 1726" stroke="#FAB8CC" stroke-width="3"/>
<path d="M1186.5 1714L1230.5 1736" stroke="#FAB8CC" stroke-width="3"/>
<path d="M1186.5 1724L1230.5 1746" stroke="#FAB8CC" stroke-width="3"/>
<path d="M1186.5 1734L1230.5 1756" stroke="#FAB8CC" stroke-width="3"/>
<path d="M1186.5 1744L1230.5 1766" stroke="#FAB8CC" stroke-width="3"/>
<path d="M1186.5 1754L1230.5 1776" stroke="#FAB8CC" stroke-width="3"/>
<path d="M1186.5 1764L1230.5 1786" stroke="#FAB8CC" stroke-width="3"/>
<path d="M1186.5 1774L1230.5 1796" stroke="#FAB8CC" stroke-width="3"/>
<path d="M1186.5 1784L1230.5 1806" stroke="#FAB8CC" stroke-width="3"/>
<path d="M1186.5 1794L1230.5 1816" stroke="#FAB8CC" stroke-width="3"/>
<path d="M1186.5 1804L1230.5 1826" stroke="#FAB8CC" stroke-width="3"/>
<path d="M1186.5 1814L1230.5 1836" stroke="#FAB8CC" stroke-width="3"/>
<path d="M1186.5 1824L1230.5 1846" stroke="#FAB8CC" stroke-width="3"/>
<path d="M1186.5 1834L1230.5 1856" stroke="#FAB8CC" stroke-width="3"/>
<path d="M1186.5 1844L1230.5 1866" stroke="#FAB8CC" stroke-width="3"/>
<path d="M1186.5 1854L1230.5 1876" stroke="#FAB8CC" stroke-width="3"/>
<path d="M1186.5 1864L1230.5 1886" stroke="#FAB8CC" stroke-width="3"/>
<path d="M1186.5 1874L1230.5 1896" stroke="#FAB8CC" stroke-width="3"/>
<path d="M1186.5 1884L1230.5 1906" stroke="#FAB8CC" stroke-width="3"/>
<path d="M1186.5 1894L1230.5 1916" stroke="#FAB8CC" stroke-width="3"/>
<path d="M1186.5 1904L1230.5 1926" stroke="#FAB8CC" stroke-width="3"/>
<path d="M1186.5 1914L1230.5 1936" stroke="#FAB8CC" stroke-width="3"/>
<path d="M1186.5 1924L1230.5 1946" stroke="#FAB8CC" stroke-width="3"/>
<path d="M1186.5 1934L1230.5 1956" stroke="#FAB8CC" stroke-width="3"/>
<path d="M1186.5 1944L1230.5 1966" stroke="#FAB8CC" stroke-width="3"/>
<path d="M1186.5 1954L1230.5 1976" stroke="#FAB8CC" stroke-width="3"/>
<path d="M1186.5 1964L1230.5 1986" stroke="#FAB8CC" stroke-width="3"/>
<path d="M1186.5 1974L1230.5 1996" stroke="#FAB8CC" stroke-width="3"/>
<path d="M1186.5 1984L1230.5 2006" stroke="#FAB8CC" stroke-width="3"/>
<path d="M1186.5 1994L1230.5 2016" stroke="#FAB8CC" stroke-width="3"/>
<path d="M1186.5 2004L1230.5 2026" stroke="#FAB8CC" stroke-width="3"/>
<path d="M1186.5 2014L1230.5 2036" stroke="#FAB8CC" stroke-width="3"/>
<path d="M1186.5 2024L1230.5 2046" stroke="#FAB8CC" stroke-width="3"/>
<path d="M1186.5 2034L1230.5 2056" stroke="#FAB8CC" stroke-width="3"/>
<path d="M1186.5 2044L1230.5 2066" stroke="#FAB8CC" stroke-width="3"/>
<path d="M1186.5 2054L1230.5 2076" stroke="#FAB8CC" stroke-width="3"/>
<path d="M1186.5 2064L1230.5 2086" stroke="#FAB8CC" stroke-width="3"/>
<path d="M1186.5 2074L1230.5 2096" stroke="#FAB8CC" stroke-width="3"/>
<path d="M1186.5 2084L1230.5 2106" stroke="#FAB8CC" stroke-width="3"/>
<path d="M1186.5 2094L1230.5 2116" stroke="#FAB8CC" stroke-width="3"/>
<path d="M1186.5 2104L1230.5 2126" stroke="#FAB8CC" stroke-width="3"/>
<path d="M1186.5 2114L1230.5 2136" stroke="#FAB8CC" stroke-width="3"/>
<path d="M1186.5 2124L1230.5 2146" stroke="#FAB8CC" stroke-width="3"/>
<path d="M1186.5 2134L1230.5 2156" stroke="#FAB8CC" stroke-width="3"/>
<path d="M1186.5 2144L1230.5 2166" stroke="#FAB8CC" stroke-width="3"/>
<path d="M1186.5 2154L1230.5 2176" stroke="#FAB8CC" stroke-width="3"/>
<path d="M1186.5 2164L1230.5 2186" stroke="#FAB8CC" stroke-width="3"/>
<path d="M1186.5 2174L1230.5 2196" stroke="#FAB8CC" stroke-width="3"/>
<path d="M1186.5 2184L1230.5 2206" stroke="#FAB8CC" stroke-width="3"/>
<path d="M1186.5 2194L1230.5 2216" stroke="#FAB8CC" stroke-width="3"/>
<path d="M1186.5 2204L1230.5 2226" stroke="#FAB8CC" stroke-width="3"/>
<path d="M1186.5 2214L1230.5 2236" stroke="#FAB8CC" stroke-width="3"/>
<path d="M1186.5 2224L1230.5 2246" stroke="#FAB8CC" stroke-width="3"/>
<path d="M1186.5 2234L1230.5 2256" stroke="#FAB8CC" stroke-width="3"/>
<path d="M1186.5 2244L1230.5 2266" stroke="#FAB8CC" stroke-width="3"/>
<path d="M1186.5 2254L1230.5 2276" stroke="#FAB8CC" stroke-width="3"/>
<path d="M1186.5 2264L1230.5 2286" stroke="#FAB8CC" stroke-width="3"/>
<path d="M1186.5 2274L1230.5 2296" stroke="#FAB8CC" stroke-width="3"/>
<path d="M1186.5 2284L1230.5 2306" stroke="#FAB8CC" stroke-width="3"/>
<path d="M1186.5 2294L1230.5 2316" stroke="#FAB8CC" stroke-width="3"/>
<path d="M1186.5 2304L1230.5 2326" stroke="#FAB8CC" stroke-width="3"/>
<path d="M1186.5 2314L1230.5 2336" stroke="#FAB8CC" stroke-width="3"/>
<path d="M1186.5 2324L1230.5 2346" stroke="#FAB8CC" stroke-width="3"/>
<path d="M1186.5 2334L1230.5 2356" stroke="#FAB8CC" stroke-width="3"/>
<path d="M1186.5 2344L1230.5 2366" stroke="#FAB8CC" stroke-width="3"/>
<path d="M1186.5 2354L1230.5 2376" stroke="#FAB8CC" stroke-width="3"/>
<path d="M1186.5 2364L1230.5 2386" stroke="#FAB8CC" stroke-width="3"/>
<path d="M1186.5 2374L1230.5 2396" stroke="#FAB8CC" stroke-width="3"/>
<path d="M1186.5 2384L1230.5 2406" stroke="#FAB8CC" stroke-width="3"/>
<path d="M1186.5 2394L1230.5 2416" stroke="#FAB8CC" stroke-width="3"/>
<path d="M1186.5 2404L1230.5 2426" stroke="#FAB8CC" stroke-width="3"/>
<path d="M1186.5 2414L1230.5 2436" stroke="#FAB8CC" stroke-width="3"/>
<path d="M1186.5 2424L1230.5 2446" stroke="#FAB8CC" stroke-width="3"/>
<path d="M1186.5 2434L1230.5 2456" stroke="#FAB8CC" stroke-width="3"/>
<path d="M1186.5 2444L1230.5 2466" stroke="#FAB8CC" stroke-width="3"/>
<path d="M1186.5 2454L1230.5 2476" stroke="#FAB8CC" stroke-width="3"/>
<path d="M1186.5 2464L1230.5 2486" stroke="#FAB8CC" stroke-width="3"/>
<path d="M1186.5 2474L1230.5 2496" stroke="#FAB8CC" stroke-width="3"/>
<path d="M1186.5 2484L1230.5 2506" stroke="#FAB8CC" stroke-width="3"/>
<path d="M1186.5 2494L1230.5 2516" stroke="#FAB8CC" stroke-width="3"/>
<path d="M1186.5 2504L1230.5 2526" stroke="#FAB8CC" stroke-width="3"/>
<path d="M1186.5 2514L1230.5 2536" stroke="#FAB8CC" stroke-width="3"/>
<path d="M1186.5 2524L1230.5 2546" stroke="#FAB8CC" stroke-width="3"/>
<path d="M1186.5 2534L1230.5 2556" stroke="#FAB8CC" stroke-width="3"/>
<path d="M1186.5 2544L1230.5 2566" stroke="#FAB8CC" stroke-width="3"/>
<path d="M1186.5 2554L1230.5 2576" stroke="#FAB8CC" stroke-width="3"/>
<path d="M1186.5 2564L1230.5 2586" stroke="#FAB8CC" stroke-width="3"/>
<path d="M1186.5 2574L1230.5 2596" stroke="#FAB8CC" stroke-width="3"/>
<path d="M1186.5 2584L1230.5 2606" stroke="#FAB8CC" stroke-width="3"/>
<path d="M1186.5 2594L1230.5 2616" stroke="#FAB8CC" stroke-width="3"/>
<path d="M1186.5 2604L1230.5 2626" stroke="#FAB8CC" stroke-width="3"/>
<path d="M1186.5 2614L1230.5 2636" stroke="#FAB8CC" stroke-width="3"/>
<path d="M1186.5 2624L1230.5 2646" stroke="#FAB8CC" stroke-width="3"/>
<path d="M1186.5 2634L1230.5 2656" stroke="#FAB8CC" stroke-width="3"/>
<path d="M1186.5 2644L1230.5 2666" stroke="#FAB8CC" stroke-width="3"/>
<path d="M1186.5 2654L1230.5 2676" stroke="#FAB8CC" stroke-width="3"/>
<path d="M1186.5 2664L1230.5 2686" stroke="#FAB8CC" stroke-width="3"/>
<path d="M1186.5 2674L1230.5 2696" stroke="#FAB8CC" stroke-width="3"/>
<path d="M1186.5 2684L1230.5 2706" stroke="#FAB8CC" stroke-width="3"/>
<path d="M1186.5 2694L1230.5 2716" stroke="#FAB8CC" stroke-width="3"/>
<path d="M1186.5 2704L1230.5 2726" stroke="#FAB8CC" stroke-width="3"/>
<path d="M1186.5 2714L1230.5 2736" stroke="#FAB8CC" stroke-width="3"/>
<path d="M1186.5 2724L1230.5 2746" stroke="#FAB8CC" stroke-width="3"/>
<path d="M1186.5 2734L1230.5 2756" stroke="#FAB8CC" stroke-width="3"/>
<path d="M1186.5 2744L1230.5 2766" stroke="#FAB8CC" stroke-width="3"/>
<path d="M1186.5 2754L1230.5 2776" stroke="#FAB8CC" stroke-width="3"/>
<path d="M1186.5 2764L1230.5 2786" stroke="#FAB8CC" stroke-width="3"/>
<path d="M1186.5 2774L1230.5 2796" stroke="#FAB8CC" stroke-width="3"/>
<path d="M1186.5 2784L1230.5 2806" stroke="#FAB8CC" stroke-width="3"/>
<path d="M1186.5 2794L1230.5 2816" stroke="#FAB8CC" stroke-width="3"/>
<path d="M1186.5 2804L1230.5 2826" stroke="#FAB8CC" stroke-width="3"/>
<path d="M1186.5 2814L1230.5 2836" stroke="#FAB8CC" stroke-width="3"/>
<path d="M1186.5 2824L1230.5 2846" stroke="#FAB8CC" stroke-width="3"/>
<path d="M1186.5 2834L1230.5 2856" stroke="#FAB8CC" stroke-width="3"/>
<path d="M1186.5 2844L1230.5 2866" stroke="#FAB8CC" stroke-width="3"/>
<path d="M1186.5 2854L1230.5 2876" stroke="#FAB8CC" stroke-width="3"/>
<path d="M1186.5 2864L1230.5 2886" stroke="#FAB8CC" stroke-width="3"/>
<path d="M1186.5 2874L1230.5 2896" stroke="#FAB8CC" stroke-width="3"/>
<path d="M1186.5 2884L1230.5 2906" stroke="#FAB8CC" stroke-width="3"/>
<path d="M1186.5 2894L1230.5 2916" stroke="#FAB8CC" stroke-width="3"/>
<path d="M1186.5 2904L1230.5 2926" stroke="#FAB8CC" stroke-width="3"/>
<path d="M1186.5 2914L1230.5 2936" stroke="#FAB8CC" stroke-width="3"/>
<path d="M1186.5 2924L1230.5 2946" stroke="#FAB8CC" stroke-width="3"/>
<path d="M1186.5 2934L1230.5 2956" stroke="#FAB8CC" stroke-width="3"/>
<path d="M1186.5 2944L1230.5 2966" stroke="#FAB8CC" stroke-width="3"/>
<path d="M1186.5 2954L1230.5 2976" stroke="#FAB8CC" stroke-width="3"/>
<path d="M1186.5 2964L1230.5 2986" stroke="#FAB8CC" stroke-width="3"/>
<path d="M1186.5 2974L1230.5 2996" stroke="#FAB8CC" stroke-width="3"/>
<path d="M1186.5 2984L1230.5 3006" stroke="#FAB8CC" stroke-width="3"/>
<path d="M1186.5 2994L1230.5 3016" stroke="#FAB8CC" stroke-width="3"/>
<path d="M1186.5 3004L1230.5 3026" stroke="#FAB8CC" stroke-width="3"/>
<path d="M1186.5 3014L1230.5 3036" stroke="#FAB8CC" stroke-width="3"/>
<path d="M1186.5 3024L1230.5 3046" stroke="#FAB8CC" stroke-width="3"/>
<path d="M1186.5 3034L1230.5 3056" stroke="#FAB8CC" stroke-width="3"/>
<path d="M1186.5 3044L1230.5 3066" stroke="#FAB8CC" stroke-width="3"/>
<path d="M1186.5 3054L1230.5 3076" stroke="#FAB8CC" stroke-width="3"/>
<path d="M1186.5 3064L1230.5 3086" stroke="#FAB8CC" stroke-width="3"/>
<path d="M1186.5 3074L1230.5 3096" stroke="#FAB8CC" stroke-width="3"/>
<path d="M1186.5 3084L1230.5 3106" stroke="#FAB8CC" stroke-width="3"/>
<path d="M1186.5 3094L1230.5 3116" stroke="#FAB8CC" stroke-width="3"/>
<path d="M1186.5 3104L1230.5 3126" stroke="#FAB8CC" stroke-width="3"/>
<path d="M1186.5 3114L1230.5 3136" stroke="#FAB8CC" stroke-width="3"/>
<path d="M1186.5 3124L1230.5 3146" stroke="#FAB8CC" stroke-width="3"/>
<path d="M1186.5 3134L1230.5 3156" stroke="#FAB8CC" stroke-width="3"/>
<path d="M1186.5 3144L1230.5 3166" stroke="#FAB8CC" stroke-width="3"/>
<path d="M1186.5 3154L1230.5 3176" stroke="#FAB8CC" stroke-width="3"/>
<path d="M1186.5 3164L1230.5 3186" stroke="#FAB8CC" stroke-width="3"/>
<path d="M1186.5 3174L1230.5 3196" stroke="#FAB8CC" stroke-width="3"/>
<path d="M1186.5 3184L1230.5 3206" stroke="#FAB8CC" stroke-width="3"/>
<path d="M1186.5 3194L1230.5 3216" stroke="#FAB8CC" stroke-width="3"/>
<path d="M1186.5 3204L1230.5 3226" stroke="#FAB8CC" stroke-width="3"/>
<path d="M1186.5 3214L1230.5 3236" stroke="#FAB8CC" stroke-width="3"/>
<path d="M1186.5 3224L1230.5 3246" stroke="#FAB8CC" stroke-width="3"/>
<path d="M1186.5 3234L1230.5 3256" stroke="#FAB8CC" stroke-width="3"/>
</g>
<rect x="1186" y="-2" width="33" height="3247" stroke="#FAB8CC" stroke-width="2"/>
</g>
<g opacity="0.8">
<g clip-path="url(#clip1_1328_1093)">
<path d="M1.5 -6L45.5 16" stroke="#FAB8CC" stroke-width="3"/>
<path d="M1.5 4L45.5 26" stroke="#FAB8CC" stroke-width="3"/>
<path d="M1.5 14L45.5 36" stroke="#FAB8CC" stroke-width="3"/>
<path d="M1.5 24L45.5 46" stroke="#FAB8CC" stroke-width="3"/>
<path d="M1.5 34L45.5 56" stroke="#FAB8CC" stroke-width="3"/>
<path d="M1.5 44L45.5 66" stroke="#FAB8CC" stroke-width="3"/>
<path d="M1.5 54L45.5 76" stroke="#FAB8CC" stroke-width="3"/>
<path d="M1.5 64L45.5 86" stroke="#FAB8CC" stroke-width="3"/>
<path d="M1.5 74L45.5 96" stroke="#FAB8CC" stroke-width="3"/>
<path d="M1.5 84L45.5 106" stroke="#FAB8CC" stroke-width="3"/>
<path d="M1.5 94L45.5 116" stroke="#FAB8CC" stroke-width="3"/>
<path d="M1.5 104L45.5 126" stroke="#FAB8CC" stroke-width="3"/>
<path d="M1.5 114L45.5 136" stroke="#FAB8CC" stroke-width="3"/>
<path d="M1.5 124L45.5 146" stroke="#FAB8CC" stroke-width="3"/>
<path d="M1.5 134L45.5 156" stroke="#FAB8CC" stroke-width="3"/>
<path d="M1.5 144L45.5 166" stroke="#FAB8CC" stroke-width="3"/>
<path d="M1.5 154L45.5 176" stroke="#FAB8CC" stroke-width="3"/>
<path d="M1.5 164L45.5 186" stroke="#FAB8CC" stroke-width="3"/>
<path d="M1.5 174L45.5 196" stroke="#FAB8CC" stroke-width="3"/>
<path d="M1.5 184L45.5 206" stroke="#FAB8CC" stroke-width="3"/>
<path d="M1.5 194L45.5 216" stroke="#FAB8CC" stroke-width="3"/>
<path d="M1.5 204L45.5 226" stroke="#FAB8CC" stroke-width="3"/>
<path d="M1.5 214L45.5 236" stroke="#FAB8CC" stroke-width="3"/>
<path d="M1.5 224L45.5 246" stroke="#FAB8CC" stroke-width="3"/>
<path d="M1.5 234L45.5 256" stroke="#FAB8CC" stroke-width="3"/>
<path d="M1.5 244L45.5 266" stroke="#FAB8CC" stroke-width="3"/>
<path d="M1.5 254L45.5 276" stroke="#FAB8CC" stroke-width="3"/>
<path d="M1.5 264L45.5 286" stroke="#FAB8CC" stroke-width="3"/>
<path d="M1.5 274L45.5 296" stroke="#FAB8CC" stroke-width="3"/>
<path d="M1.5 284L45.5 306" stroke="#FAB8CC" stroke-width="3"/>
<path d="M1.5 294L45.5 316" stroke="#FAB8CC" stroke-width="3"/>
<path d="M1.5 304L45.5 326" stroke="#FAB8CC" stroke-width="3"/>
<path d="M1.5 314L45.5 336" stroke="#FAB8CC" stroke-width="3"/>
<path d="M1.5 324L45.5 346" stroke="#FAB8CC" stroke-width="3"/>
<path d="M1.5 334L45.5 356" stroke="#FAB8CC" stroke-width="3"/>
<path d="M1.5 344L45.5 366" stroke="#FAB8CC" stroke-width="3"/>
<path d="M1.5 354L45.5 376" stroke="#FAB8CC" stroke-width="3"/>
<path d="M1.5 364L45.5 386" stroke="#FAB8CC" stroke-width="3"/>
<path d="M1.5 374L45.5 396" stroke="#FAB8CC" stroke-width="3"/>
<path d="M1.5 384L45.5 406" stroke="#FAB8CC" stroke-width="3"/>
<path d="M1.5 394L45.5 416" stroke="#FAB8CC" stroke-width="3"/>
<path d="M1.5 404L45.5 426" stroke="#FAB8CC" stroke-width="3"/>
<path d="M1.5 414L45.5 436" stroke="#FAB8CC" stroke-width="3"/>
<path d="M1.5 424L45.5 446" stroke="#FAB8CC" stroke-width="3"/>
<path d="M1.5 434L45.5 456" stroke="#FAB8CC" stroke-width="3"/>
<path d="M1.5 444L45.5 466" stroke="#FAB8CC" stroke-width="3"/>
<path d="M1.5 454L45.5 476" stroke="#FAB8CC" stroke-width="3"/>
<path d="M1.5 464L45.5 486" stroke="#FAB8CC" stroke-width="3"/>
<path d="M1.5 474L45.5 496" stroke="#FAB8CC" stroke-width="3"/>
<path d="M1.5 484L45.5 506" stroke="#FAB8CC" stroke-width="3"/>
<path d="M1.5 494L45.5 516" stroke="#FAB8CC" stroke-width="3"/>
<path d="M1.5 504L45.5 526" stroke="#FAB8CC" stroke-width="3"/>
<path d="M1.5 514L45.5 536" stroke="#FAB8CC" stroke-width="3"/>
<path d="M1.5 524L45.5 546" stroke="#FAB8CC" stroke-width="3"/>
<path d="M1.5 534L45.5 556" stroke="#FAB8CC" stroke-width="3"/>
<path d="M1.5 544L45.5 566" stroke="#FAB8CC" stroke-width="3"/>
<path d="M1.5 554L45.5 576" stroke="#FAB8CC" stroke-width="3"/>
<path d="M1.5 564L45.5 586" stroke="#FAB8CC" stroke-width="3"/>
<path d="M1.5 574L45.5 596" stroke="#FAB8CC" stroke-width="3"/>
<path d="M1.5 584L45.5 606" stroke="#FAB8CC" stroke-width="3"/>
<path d="M1.5 594L45.5 616" stroke="#FAB8CC" stroke-width="3"/>
<path d="M1.5 604L45.5 626" stroke="#FAB8CC" stroke-width="3"/>
<path d="M1.5 614L45.5 636" stroke="#FAB8CC" stroke-width="3"/>
<path d="M1.5 624L45.5 646" stroke="#FAB8CC" stroke-width="3"/>
<path d="M1.5 634L45.5 656" stroke="#FAB8CC" stroke-width="3"/>
<path d="M1.5 644L45.5 666" stroke="#FAB8CC" stroke-width="3"/>
<path d="M1.5 654L45.5 676" stroke="#FAB8CC" stroke-width="3"/>
<path d="M1.5 664L45.5 686" stroke="#FAB8CC" stroke-width="3"/>
<path d="M1.5 674L45.5 696" stroke="#FAB8CC" stroke-width="3"/>
<path d="M1.5 684L45.5 706" stroke="#FAB8CC" stroke-width="3"/>
<path d="M1.5 694L45.5 716" stroke="#FAB8CC" stroke-width="3"/>
<path d="M1.5 704L45.5 726" stroke="#FAB8CC" stroke-width="3"/>
<path d="M1.5 714L45.5 736" stroke="#FAB8CC" stroke-width="3"/>
<path d="M1.5 724L45.5 746" stroke="#FAB8CC" stroke-width="3"/>
<path d="M1.5 734L45.5 756" stroke="#FAB8CC" stroke-width="3"/>
<path d="M1.5 744L45.5 766" stroke="#FAB8CC" stroke-width="3"/>
<path d="M1.5 754L45.5 776" stroke="#FAB8CC" stroke-width="3"/>
<path d="M1.5 764L45.5 786" stroke="#FAB8CC" stroke-width="3"/>
<path d="M1.5 774L45.5 796" stroke="#FAB8CC" stroke-width="3"/>
<path d="M1.5 784L45.5 806" stroke="#FAB8CC" stroke-width="3"/>
<path d="M1.5 794L45.5 816" stroke="#FAB8CC" stroke-width="3"/>
<path d="M1.5 804L45.5 826" stroke="#FAB8CC" stroke-width="3"/>
<path d="M1.5 814L45.5 836" stroke="#FAB8CC" stroke-width="3"/>
<path d="M1.5 824L45.5 846" stroke="#FAB8CC" stroke-width="3"/>
<path d="M1.5 834L45.5 856" stroke="#FAB8CC" stroke-width="3"/>
<path d="M1.5 844L45.5 866" stroke="#FAB8CC" stroke-width="3"/>
<path d="M1.5 854L45.5 876" stroke="#FAB8CC" stroke-width="3"/>
<path d="M1.5 864L45.5 886" stroke="#FAB8CC" stroke-width="3"/>
<path d="M1.5 874L45.5 896" stroke="#FAB8CC" stroke-width="3"/>
<path d="M1.5 884L45.5 906" stroke="#FAB8CC" stroke-width="3"/>
<path d="M1.5 894L45.5 916" stroke="#FAB8CC" stroke-width="3"/>
<path d="M1.5 904L45.5 926" stroke="#FAB8CC" stroke-width="3"/>
<path d="M1.5 914L45.5 936" stroke="#FAB8CC" stroke-width="3"/>
<path d="M1.5 924L45.5 946" stroke="#FAB8CC" stroke-width="3"/>
<path d="M1.5 934L45.5 956" stroke="#FAB8CC" stroke-width="3"/>
<path d="M1.5 944L45.5 966" stroke="#FAB8CC" stroke-width="3"/>
<path d="M1.5 954L45.5 976" stroke="#FAB8CC" stroke-width="3"/>
<path d="M1.5 964L45.5 986" stroke="#FAB8CC" stroke-width="3"/>
<path d="M1.5 974L45.5 996" stroke="#FAB8CC" stroke-width="3"/>
<path d="M1.5 984L45.5 1006" stroke="#FAB8CC" stroke-width="3"/>
<path d="M1.5 994L45.5 1016" stroke="#FAB8CC" stroke-width="3"/>
<path d="M1.5 1004L45.5 1026" stroke="#FAB8CC" stroke-width="3"/>
<path d="M1.5 1014L45.5 1036" stroke="#FAB8CC" stroke-width="3"/>
<path d="M1.5 1024L45.5 1046" stroke="#FAB8CC" stroke-width="3"/>
<path d="M1.5 1034L45.5 1056" stroke="#FAB8CC" stroke-width="3"/>
<path d="M1.5 1044L45.5 1066" stroke="#FAB8CC" stroke-width="3"/>
<path d="M1.5 1054L45.5 1076" stroke="#FAB8CC" stroke-width="3"/>
<path d="M1.5 1064L45.5 1086" stroke="#FAB8CC" stroke-width="3"/>
<path d="M1.5 1074L45.5 1096" stroke="#FAB8CC" stroke-width="3"/>
<path d="M1.5 1084L45.5 1106" stroke="#FAB8CC" stroke-width="3"/>
<path d="M1.5 1094L45.5 1116" stroke="#FAB8CC" stroke-width="3"/>
<path d="M1.5 1104L45.5 1126" stroke="#FAB8CC" stroke-width="3"/>
<path d="M1.5 1114L45.5 1136" stroke="#FAB8CC" stroke-width="3"/>
<path d="M1.5 1124L45.5 1146" stroke="#FAB8CC" stroke-width="3"/>
<path d="M1.5 1134L45.5 1156" stroke="#FAB8CC" stroke-width="3"/>
<path d="M1.5 1144L45.5 1166" stroke="#FAB8CC" stroke-width="3"/>
<path d="M1.5 1154L45.5 1176" stroke="#FAB8CC" stroke-width="3"/>
<path d="M1.5 1164L45.5 1186" stroke="#FAB8CC" stroke-width="3"/>
<path d="M1.5 1174L45.5 1196" stroke="#FAB8CC" stroke-width="3"/>
<path d="M1.5 1184L45.5 1206" stroke="#FAB8CC" stroke-width="3"/>
<path d="M1.5 1194L45.5 1216" stroke="#FAB8CC" stroke-width="3"/>
<path d="M1.5 1204L45.5 1226" stroke="#FAB8CC" stroke-width="3"/>
<path d="M1.5 1214L45.5 1236" stroke="#FAB8CC" stroke-width="3"/>
<path d="M1.5 1224L45.5 1246" stroke="#FAB8CC" stroke-width="3"/>
<path d="M1.5 1234L45.5 1256" stroke="#FAB8CC" stroke-width="3"/>
<path d="M1.5 1244L45.5 1266" stroke="#FAB8CC" stroke-width="3"/>
<path d="M1.5 1254L45.5 1276" stroke="#FAB8CC" stroke-width="3"/>
<path d="M1.5 1264L45.5 1286" stroke="#FAB8CC" stroke-width="3"/>
<path d="M1.5 1274L45.5 1296" stroke="#FAB8CC" stroke-width="3"/>
<path d="M1.5 1284L45.5 1306" stroke="#FAB8CC" stroke-width="3"/>
<path d="M1.5 1294L45.5 1316" stroke="#FAB8CC" stroke-width="3"/>
<path d="M1.5 1304L45.5 1326" stroke="#FAB8CC" stroke-width="3"/>
<path d="M1.5 1314L45.5 1336" stroke="#FAB8CC" stroke-width="3"/>
<path d="M1.5 1324L45.5 1346" stroke="#FAB8CC" stroke-width="3"/>
<path d="M1.5 1334L45.5 1356" stroke="#FAB8CC" stroke-width="3"/>
<path d="M1.5 1344L45.5 1366" stroke="#FAB8CC" stroke-width="3"/>
<path d="M1.5 1354L45.5 1376" stroke="#FAB8CC" stroke-width="3"/>
<path d="M1.5 1364L45.5 1386" stroke="#FAB8CC" stroke-width="3"/>
<path d="M1.5 1374L45.5 1396" stroke="#FAB8CC" stroke-width="3"/>
<path d="M1.5 1384L45.5 1406" stroke="#FAB8CC" stroke-width="3"/>
<path d="M1.5 1394L45.5 1416" stroke="#FAB8CC" stroke-width="3"/>
<path d="M1.5 1404L45.5 1426" stroke="#FAB8CC" stroke-width="3"/>
<path d="M1.5 1414L45.5 1436" stroke="#FAB8CC" stroke-width="3"/>
<path d="M1.5 1424L45.5 1446" stroke="#FAB8CC" stroke-width="3"/>
<path d="M1.5 1434L45.5 1456" stroke="#FAB8CC" stroke-width="3"/>
<path d="M1.5 1444L45.5 1466" stroke="#FAB8CC" stroke-width="3"/>
<path d="M1.5 1454L45.5 1476" stroke="#FAB8CC" stroke-width="3"/>
<path d="M1.5 1464L45.5 1486" stroke="#FAB8CC" stroke-width="3"/>
<path d="M1.5 1474L45.5 1496" stroke="#FAB8CC" stroke-width="3"/>
<path d="M1.5 1484L45.5 1506" stroke="#FAB8CC" stroke-width="3"/>
<path d="M1.5 1494L45.5 1516" stroke="#FAB8CC" stroke-width="3"/>
<path d="M1.5 1504L45.5 1526" stroke="#FAB8CC" stroke-width="3"/>
<path d="M1.5 1514L45.5 1536" stroke="#FAB8CC" stroke-width="3"/>
<path d="M1.5 1524L45.5 1546" stroke="#FAB8CC" stroke-width="3"/>
<path d="M1.5 1534L45.5 1556" stroke="#FAB8CC" stroke-width="3"/>
<path d="M1.5 1544L45.5 1566" stroke="#FAB8CC" stroke-width="3"/>
<path d="M1.5 1554L45.5 1576" stroke="#FAB8CC" stroke-width="3"/>
<path d="M1.5 1564L45.5 1586" stroke="#FAB8CC" stroke-width="3"/>
<path d="M1.5 1574L45.5 1596" stroke="#FAB8CC" stroke-width="3"/>
<path d="M1.5 1584L45.5 1606" stroke="#FAB8CC" stroke-width="3"/>
<path d="M1.5 1594L45.5 1616" stroke="#FAB8CC" stroke-width="3"/>
<path d="M1.5 1604L45.5 1626" stroke="#FAB8CC" stroke-width="3"/>
<path d="M1.5 1614L45.5 1636" stroke="#FAB8CC" stroke-width="3"/>
<path d="M1.5 1624L45.5 1646" stroke="#FAB8CC" stroke-width="3"/>
<path d="M1.5 1634L45.5 1656" stroke="#FAB8CC" stroke-width="3"/>
<path d="M1.5 1644L45.5 1666" stroke="#FAB8CC" stroke-width="3"/>
<path d="M1.5 1654L45.5 1676" stroke="#FAB8CC" stroke-width="3"/>
<path d="M1.5 1664L45.5 1686" stroke="#FAB8CC" stroke-width="3"/>
<path d="M1.5 1674L45.5 1696" stroke="#FAB8CC" stroke-width="3"/>
<path d="M1.5 1684L45.5 1706" stroke="#FAB8CC" stroke-width="3"/>
<path d="M1.5 1694L45.5 1716" stroke="#FAB8CC" stroke-width="3"/>
<path d="M1.5 1704L45.5 1726" stroke="#FAB8CC" stroke-width="3"/>
<path d="M1.5 1714L45.5 1736" stroke="#FAB8CC" stroke-width="3"/>
<path d="M1.5 1724L45.5 1746" stroke="#FAB8CC" stroke-width="3"/>
<path d="M1.5 1734L45.5 1756" stroke="#FAB8CC" stroke-width="3"/>
<path d="M1.5 1744L45.5 1766" stroke="#FAB8CC" stroke-width="3"/>
<path d="M1.5 1754L45.5 1776" stroke="#FAB8CC" stroke-width="3"/>
<path d="M1.5 1764L45.5 1786" stroke="#FAB8CC" stroke-width="3"/>
<path d="M1.5 1774L45.5 1796" stroke="#FAB8CC" stroke-width="3"/>
<path d="M1.5 1784L45.5 1806" stroke="#FAB8CC" stroke-width="3"/>
<path d="M1.5 1794L45.5 1816" stroke="#FAB8CC" stroke-width="3"/>
<path d="M1.5 1804L45.5 1826" stroke="#FAB8CC" stroke-width="3"/>
<path d="M1.5 1814L45.5 1836" stroke="#FAB8CC" stroke-width="3"/>
<path d="M1.5 1824L45.5 1846" stroke="#FAB8CC" stroke-width="3"/>
<path d="M1.5 1834L45.5 1856" stroke="#FAB8CC" stroke-width="3"/>
<path d="M1.5 1844L45.5 1866" stroke="#FAB8CC" stroke-width="3"/>
<path d="M1.5 1854L45.5 1876" stroke="#FAB8CC" stroke-width="3"/>
<path d="M1.5 1864L45.5 1886" stroke="#FAB8CC" stroke-width="3"/>
<path d="M1.5 1874L45.5 1896" stroke="#FAB8CC" stroke-width="3"/>
<path d="M1.5 1884L45.5 1906" stroke="#FAB8CC" stroke-width="3"/>
<path d="M1.5 1894L45.5 1916" stroke="#FAB8CC" stroke-width="3"/>
<path d="M1.5 1904L45.5 1926" stroke="#FAB8CC" stroke-width="3"/>
<path d="M1.5 1914L45.5 1936" stroke="#FAB8CC" stroke-width="3"/>
<path d="M1.5 1924L45.5 1946" stroke="#FAB8CC" stroke-width="3"/>
<path d="M1.5 1934L45.5 1956" stroke="#FAB8CC" stroke-width="3"/>
<path d="M1.5 1944L45.5 1966" stroke="#FAB8CC" stroke-width="3"/>
<path d="M1.5 1954L45.5 1976" stroke="#FAB8CC" stroke-width="3"/>
<path d="M1.5 1964L45.5 1986" stroke="#FAB8CC" stroke-width="3"/>
<path d="M1.5 1974L45.5 1996" stroke="#FAB8CC" stroke-width="3"/>
<path d="M1.5 1984L45.5 2006" stroke="#FAB8CC" stroke-width="3"/>
<path d="M1.5 1994L45.5 2016" stroke="#FAB8CC" stroke-width="3"/>
<path d="M1.5 2004L45.5 2026" stroke="#FAB8CC" stroke-width="3"/>
<path d="M1.5 2014L45.5 2036" stroke="#FAB8CC" stroke-width="3"/>
<path d="M1.5 2024L45.5 2046" stroke="#FAB8CC" stroke-width="3"/>
<path d="M1.5 2034L45.5 2056" stroke="#FAB8CC" stroke-width="3"/>
<path d="M1.5 2044L45.5 2066" stroke="#FAB8CC" stroke-width="3"/>
<path d="M1.5 2054L45.5 2076" stroke="#FAB8CC" stroke-width="3"/>
<path d="M1.5 2064L45.5 2086" stroke="#FAB8CC" stroke-width="3"/>
<path d="M1.5 2074L45.5 2096" stroke="#FAB8CC" stroke-width="3"/>
<path d="M1.5 2084L45.5 2106" stroke="#FAB8CC" stroke-width="3"/>
<path d="M1.5 2094L45.5 2116" stroke="#FAB8CC" stroke-width="3"/>
<path d="M1.5 2104L45.5 2126" stroke="#FAB8CC" stroke-width="3"/>
<path d="M1.5 2114L45.5 2136" stroke="#FAB8CC" stroke-width="3"/>
<path d="M1.5 2124L45.5 2146" stroke="#FAB8CC" stroke-width="3"/>
<path d="M1.5 2134L45.5 2156" stroke="#FAB8CC" stroke-width="3"/>
<path d="M1.5 2144L45.5 2166" stroke="#FAB8CC" stroke-width="3"/>
<path d="M1.5 2154L45.5 2176" stroke="#FAB8CC" stroke-width="3"/>
<path d="M1.5 2164L45.5 2186" stroke="#FAB8CC" stroke-width="3"/>
<path d="M1.5 2174L45.5 2196" stroke="#FAB8CC" stroke-width="3"/>
<path d="M1.5 2184L45.5 2206" stroke="#FAB8CC" stroke-width="3"/>
<path d="M1.5 2194L45.5 2216" stroke="#FAB8CC" stroke-width="3"/>
<path d="M1.5 2204L45.5 2226" stroke="#FAB8CC" stroke-width="3"/>
<path d="M1.5 2214L45.5 2236" stroke="#FAB8CC" stroke-width="3"/>
<path d="M1.5 2224L45.5 2246" stroke="#FAB8CC" stroke-width="3"/>
<path d="M1.5 2234L45.5 2256" stroke="#FAB8CC" stroke-width="3"/>
<path d="M1.5 2244L45.5 2266" stroke="#FAB8CC" stroke-width="3"/>
<path d="M1.5 2254L45.5 2276" stroke="#FAB8CC" stroke-width="3"/>
<path d="M1.5 2264L45.5 2286" stroke="#FAB8CC" stroke-width="3"/>
<path d="M1.5 2274L45.5 2296" stroke="#FAB8CC" stroke-width="3"/>
<path d="M1.5 2284L45.5 2306" stroke="#FAB8CC" stroke-width="3"/>
<path d="M1.5 2294L45.5 2316" stroke="#FAB8CC" stroke-width="3"/>
<path d="M1.5 2304L45.5 2326" stroke="#FAB8CC" stroke-width="3"/>
<path d="M1.5 2314L45.5 2336" stroke="#FAB8CC" stroke-width="3"/>
<path d="M1.5 2324L45.5 2346" stroke="#FAB8CC" stroke-width="3"/>
<path d="M1.5 2334L45.5 2356" stroke="#FAB8CC" stroke-width="3"/>
<path d="M1.5 2344L45.5 2366" stroke="#FAB8CC" stroke-width="3"/>
<path d="M1.5 2354L45.5 2376" stroke="#FAB8CC" stroke-width="3"/>
<path d="M1.5 2364L45.5 2386" stroke="#FAB8CC" stroke-width="3"/>
<path d="M1.5 2374L45.5 2396" stroke="#FAB8CC" stroke-width="3"/>
<path d="M1.5 2384L45.5 2406" stroke="#FAB8CC" stroke-width="3"/>
<path d="M1.5 2394L45.5 2416" stroke="#FAB8CC" stroke-width="3"/>
<path d="M1.5 2404L45.5 2426" stroke="#FAB8CC" stroke-width="3"/>
<path d="M1.5 2414L45.5 2436" stroke="#FAB8CC" stroke-width="3"/>
<path d="M1.5 2424L45.5 2446" stroke="#FAB8CC" stroke-width="3"/>
<path d="M1.5 2434L45.5 2456" stroke="#FAB8CC" stroke-width="3"/>
<path d="M1.5 2444L45.5 2466" stroke="#FAB8CC" stroke-width="3"/>
<path d="M1.5 2454L45.5 2476" stroke="#FAB8CC" stroke-width="3"/>
<path d="M1.5 2464L45.5 2486" stroke="#FAB8CC" stroke-width="3"/>
<path d="M1.5 2474L45.5 2496" stroke="#FAB8CC" stroke-width="3"/>
<path d="M1.5 2484L45.5 2506" stroke="#FAB8CC" stroke-width="3"/>
<path d="M1.5 2494L45.5 2516" stroke="#FAB8CC" stroke-width="3"/>
<path d="M1.5 2504L45.5 2526" stroke="#FAB8CC" stroke-width="3"/>
<path d="M1.5 2514L45.5 2536" stroke="#FAB8CC" stroke-width="3"/>
<path d="M1.5 2524L45.5 2546" stroke="#FAB8CC" stroke-width="3"/>
<path d="M1.5 2534L45.5 2556" stroke="#FAB8CC" stroke-width="3"/>
<path d="M1.5 2544L45.5 2566" stroke="#FAB8CC" stroke-width="3"/>
<path d="M1.5 2554L45.5 2576" stroke="#FAB8CC" stroke-width="3"/>
<path d="M1.5 2564L45.5 2586" stroke="#FAB8CC" stroke-width="3"/>
<path d="M1.5 2574L45.5 2596" stroke="#FAB8CC" stroke-width="3"/>
<path d="M1.5 2584L45.5 2606" stroke="#FAB8CC" stroke-width="3"/>
<path d="M1.5 2594L45.5 2616" stroke="#FAB8CC" stroke-width="3"/>
<path d="M1.5 2604L45.5 2626" stroke="#FAB8CC" stroke-width="3"/>
<path d="M1.5 2614L45.5 2636" stroke="#FAB8CC" stroke-width="3"/>
<path d="M1.5 2624L45.5 2646" stroke="#FAB8CC" stroke-width="3"/>
<path d="M1.5 2634L45.5 2656" stroke="#FAB8CC" stroke-width="3"/>
<path d="M1.5 2644L45.5 2666" stroke="#FAB8CC" stroke-width="3"/>
<path d="M1.5 2654L45.5 2676" stroke="#FAB8CC" stroke-width="3"/>
<path d="M1.5 2664L45.5 2686" stroke="#FAB8CC" stroke-width="3"/>
<path d="M1.5 2674L45.5 2696" stroke="#FAB8CC" stroke-width="3"/>
<path d="M1.5 2684L45.5 2706" stroke="#FAB8CC" stroke-width="3"/>
<path d="M1.5 2694L45.5 2716" stroke="#FAB8CC" stroke-width="3"/>
<path d="M1.5 2704L45.5 2726" stroke="#FAB8CC" stroke-width="3"/>
<path d="M1.5 2714L45.5 2736" stroke="#FAB8CC" stroke-width="3"/>
<path d="M1.5 2724L45.5 2746" stroke="#FAB8CC" stroke-width="3"/>
<path d="M1.5 2734L45.5 2756" stroke="#FAB8CC" stroke-width="3"/>
<path d="M1.5 2744L45.5 2766" stroke="#FAB8CC" stroke-width="3"/>
<path d="M1.5 2754L45.5 2776" stroke="#FAB8CC" stroke-width="3"/>
<path d="M1.5 2764L45.5 2786" stroke="#FAB8CC" stroke-width="3"/>
<path d="M1.5 2774L45.5 2796" stroke="#FAB8CC" stroke-width="3"/>
<path d="M1.5 2784L45.5 2806" stroke="#FAB8CC" stroke-width="3"/>
<path d="M1.5 2794L45.5 2816" stroke="#FAB8CC" stroke-width="3"/>
<path d="M1.5 2804L45.5 2826" stroke="#FAB8CC" stroke-width="3"/>
<path d="M1.5 2814L45.5 2836" stroke="#FAB8CC" stroke-width="3"/>
<path d="M1.5 2824L45.5 2846" stroke="#FAB8CC" stroke-width="3"/>
<path d="M1.5 2834L45.5 2856" stroke="#FAB8CC" stroke-width="3"/>
<path d="M1.5 2844L45.5 2866" stroke="#FAB8CC" stroke-width="3"/>
<path d="M1.5 2854L45.5 2876" stroke="#FAB8CC" stroke-width="3"/>
<path d="M1.5 2864L45.5 2886" stroke="#FAB8CC" stroke-width="3"/>
<path d="M1.5 2874L45.5 2896" stroke="#FAB8CC" stroke-width="3"/>
<path d="M1.5 2884L45.5 2906" stroke="#FAB8CC" stroke-width="3"/>
<path d="M1.5 2894L45.5 2916" stroke="#FAB8CC" stroke-width="3"/>
<path d="M1.5 2904L45.5 2926" stroke="#FAB8CC" stroke-width="3"/>
<path d="M1.5 2914L45.5 2936" stroke="#FAB8CC" stroke-width="3"/>
<path d="M1.5 2924L45.5 2946" stroke="#FAB8CC" stroke-width="3"/>
<path d="M1.5 2934L45.5 2956" stroke="#FAB8CC" stroke-width="3"/>
<path d="M1.5 2944L45.5 2966" stroke="#FAB8CC" stroke-width="3"/>
<path d="M1.5 2954L45.5 2976" stroke="#FAB8CC" stroke-width="3"/>
<path d="M1.5 2964L45.5 2986" stroke="#FAB8CC" stroke-width="3"/>
<path d="M1.5 2974L45.5 2996" stroke="#FAB8CC" stroke-width="3"/>
<path d="M1.5 2984L45.5 3006" stroke="#FAB8CC" stroke-width="3"/>
<path d="M1.5 2994L45.5 3016" stroke="#FAB8CC" stroke-width="3"/>
<path d="M1.5 3004L45.5 3026" stroke="#FAB8CC" stroke-width="3"/>
<path d="M1.5 3014L45.5 3036" stroke="#FAB8CC" stroke-width="3"/>
<path d="M1.5 3024L45.5 3046" stroke="#FAB8CC" stroke-width="3"/>
<path d="M1.5 3034L45.5 3056" stroke="#FAB8CC" stroke-width="3"/>
<path d="M1.5 3044L45.5 3066" stroke="#FAB8CC" stroke-width="3"/>
<path d="M1.5 3054L45.5 3076" stroke="#FAB8CC" stroke-width="3"/>
<path d="M1.5 3064L45.5 3086" stroke="#FAB8CC" stroke-width="3"/>
<path d="M1.5 3074L45.5 3096" stroke="#FAB8CC" stroke-width="3"/>
<path d="M1.5 3084L45.5 3106" stroke="#FAB8CC" stroke-width="3"/>
<path d="M1.5 3094L45.5 3116" stroke="#FAB8CC" stroke-width="3"/>
<path d="M1.5 3104L45.5 3126" stroke="#FAB8CC" stroke-width="3"/>
<path d="M1.5 3114L45.5 3136" stroke="#FAB8CC" stroke-width="3"/>
<path d="M1.5 3124L45.5 3146" stroke="#FAB8CC" stroke-width="3"/>
<path d="M1.5 3134L45.5 3156" stroke="#FAB8CC" stroke-width="3"/>
<path d="M1.5 3144L45.5 3166" stroke="#FAB8CC" stroke-width="3"/>
<path d="M1.5 3154L45.5 3176" stroke="#FAB8CC" stroke-width="3"/>
<path d="M1.5 3164L45.5 3186" stroke="#FAB8CC" stroke-width="3"/>
<path d="M1.5 3174L45.5 3196" stroke="#FAB8CC" stroke-width="3"/>
<path d="M1.5 3184L45.5 3206" stroke="#FAB8CC" stroke-width="3"/>
<path d="M1.5 3194L45.5 3216" stroke="#FAB8CC" stroke-width="3"/>
<path d="M1.5 3204L45.5 3226" stroke="#FAB8CC" stroke-width="3"/>
<path d="M1.5 3214L45.5 3236" stroke="#FAB8CC" stroke-width="3"/>
<path d="M1.5 3224L45.5 3246" stroke="#FAB8CC" stroke-width="3"/>
<path d="M1.5 3234L45.5 3256" stroke="#FAB8CC" stroke-width="3"/>
<path d="M1.5 3244L45.5 3266" stroke="#FAB8CC" stroke-width="3"/>
</g>
<rect x="1" y="-2" width="35" height="3275" stroke="#FAB8CC" stroke-width="2"/>
</g>
<g opacity="0.7">
<rect opacity="0.2" x="223.5" y="0.5" width="172" height="933" fill="url(#paint0_linear_1328_1093)" stroke="url(#paint1_linear_1328_1093)"/>
<rect opacity="0.2" x="423.5" y="0.5" width="172" height="933" fill="url(#paint2_linear_1328_1093)" stroke="url(#paint3_linear_1328_1093)"/>
<rect opacity="0.2" x="623.5" y="0.5" width="172" height="933" fill="url(#paint4_linear_1328_1093)" stroke="url(#paint5_linear_1328_1093)"/>
<rect opacity="0.2" x="823.5" y="0.5" width="172" height="933" fill="url(#paint6_linear_1328_1093)" stroke="url(#paint7_linear_1328_1093)"/>
</g>
<defs>
<linearGradient id="paint0_linear_1328_1093" x1="309.5" y1="0" x2="309.5" y2="934" gradientUnits="userSpaceOnUse">
<stop stop-color="#FAB8CC"/>
<stop offset="1" stop-color="#FAB8CC" stop-opacity="0"/>
</linearGradient>
<linearGradient id="paint1_linear_1328_1093" x1="309.5" y1="0" x2="309.5" y2="934" gradientUnits="userSpaceOnUse">
<stop stop-color="#F24E80"/>
<stop offset="1" stop-color="#F24E80" stop-opacity="0"/>
</linearGradient>
<linearGradient id="paint2_linear_1328_1093" x1="509.5" y1="0" x2="509.5" y2="934" gradientUnits="userSpaceOnUse">
<stop stop-color="#FAB8CC"/>
<stop offset="1" stop-color="#FAB8CC" stop-opacity="0"/>
</linearGradient>
<linearGradient id="paint3_linear_1328_1093" x1="509.5" y1="0" x2="509.5" y2="934" gradientUnits="userSpaceOnUse">
<stop stop-color="#F24E80"/>
<stop offset="1" stop-color="#F24E80" stop-opacity="0"/>
</linearGradient>
<linearGradient id="paint4_linear_1328_1093" x1="709.5" y1="0" x2="709.5" y2="934" gradientUnits="userSpaceOnUse">
<stop stop-color="#FAB8CC"/>
<stop offset="1" stop-color="#FAB8CC" stop-opacity="0"/>
</linearGradient>
<linearGradient id="paint5_linear_1328_1093" x1="709.5" y1="0" x2="709.5" y2="934" gradientUnits="userSpaceOnUse">
<stop stop-color="#F24E80"/>
<stop offset="1" stop-color="#F24E80" stop-opacity="0"/>
</linearGradient>
<linearGradient id="paint6_linear_1328_1093" x1="909.5" y1="0" x2="909.5" y2="934" gradientUnits="userSpaceOnUse">
<stop stop-color="#FAB8CC"/>
<stop offset="1" stop-color="#FAB8CC" stop-opacity="0"/>
</linearGradient>
<linearGradient id="paint7_linear_1328_1093" x1="909.5" y1="0" x2="909.5" y2="934" gradientUnits="userSpaceOnUse">
<stop stop-color="#F24E80"/>
<stop offset="1" stop-color="#F24E80" stop-opacity="0"/>
</linearGradient>
<clipPath id="clip0_1328_1093">
<rect x="1185" y="-3" width="35" height="3249" fill="white"/>
</clipPath>
<clipPath id="clip1_1328_1093">
<rect y="-3" width="37" height="3277" fill="white"/>
</clipPath>
</defs>
</svg>
