<svg width="328" height="261" viewBox="0 0 328 261" fill="none" xmlns="http://www.w3.org/2000/svg">
<g clip-path="url(#clip0_1228_4036)">
<rect width="330" height="261" transform="translate(0.5)" fill="white"/>
<rect width="163.154" height="249.994" transform="translate(163.654)" fill="url(#paint0_linear_1228_4036)"/>
<path d="M181.413 13.6026C181.413 14.9499 180.321 16.0421 178.974 16.0421C177.626 16.0421 176.534 14.9499 176.534 13.6026C176.534 12.2554 177.626 11.1631 178.974 11.1631C180.321 11.1631 181.413 12.2554 181.413 13.6026Z" fill="#F24E80"/>
<path d="M181.413 13.6026C181.413 14.9499 180.321 16.0421 178.974 16.0421C177.626 16.0421 176.534 14.9499 176.534 13.6026C176.534 12.2554 177.626 11.1631 178.974 11.1631C180.321 11.1631 181.413 12.2554 181.413 13.6026Z" fill="url(#paint1_radial_1228_4036)"/>
<path d="M195.941 13.6026C195.941 14.9499 194.849 16.0421 193.502 16.0421C192.155 16.0421 191.062 14.9499 191.062 13.6026C191.062 12.2554 192.155 11.1631 193.502 11.1631C194.849 11.1631 195.941 12.2554 195.941 13.6026Z" fill="#F24E80"/>
<path d="M195.941 13.6026C195.941 14.9499 194.849 16.0421 193.502 16.0421C192.155 16.0421 191.062 14.9499 191.062 13.6026C191.062 12.2554 192.155 11.1631 193.502 11.1631C194.849 11.1631 195.941 12.2554 195.941 13.6026Z" fill="url(#paint2_radial_1228_4036)"/>
<path d="M210.469 13.6026C210.469 14.9499 209.377 16.0421 208.03 16.0421C206.683 16.0421 205.59 14.9499 205.59 13.6026C205.59 12.2554 206.683 11.1631 208.03 11.1631C209.377 11.1631 210.469 12.2554 210.469 13.6026Z" fill="#F24E80"/>
<path d="M210.469 13.6026C210.469 14.9499 209.377 16.0421 208.03 16.0421C206.683 16.0421 205.59 14.9499 205.59 13.6026C205.59 12.2554 206.683 11.1631 208.03 11.1631C209.377 11.1631 210.469 12.2554 210.469 13.6026Z" fill="url(#paint3_radial_1228_4036)"/>
<path d="M224.997 13.6026C224.997 14.9499 223.905 16.0421 222.558 16.0421C221.211 16.0421 220.118 14.9499 220.118 13.6026C220.118 12.2554 221.211 11.1631 222.558 11.1631C223.905 11.1631 224.997 12.2554 224.997 13.6026Z" fill="#F24E80"/>
<path d="M224.997 13.6026C224.997 14.9499 223.905 16.0421 222.558 16.0421C221.211 16.0421 220.118 14.9499 220.118 13.6026C220.118 12.2554 221.211 11.1631 222.558 11.1631C223.905 11.1631 224.997 12.2554 224.997 13.6026Z" fill="url(#paint4_radial_1228_4036)"/>
<path d="M239.525 13.6026C239.525 14.9499 238.433 16.0421 237.085 16.0421C235.738 16.0421 234.646 14.9499 234.646 13.6026C234.646 12.2554 235.738 11.1631 237.085 11.1631C238.433 11.1631 239.525 12.2554 239.525 13.6026Z" fill="#F24E80"/>
<path d="M239.525 13.6026C239.525 14.9499 238.433 16.0421 237.085 16.0421C235.738 16.0421 234.646 14.9499 234.646 13.6026C234.646 12.2554 235.738 11.1631 237.085 11.1631C238.433 11.1631 239.525 12.2554 239.525 13.6026Z" fill="url(#paint5_radial_1228_4036)"/>
<path d="M254.053 13.6026C254.053 14.9499 252.96 16.0421 251.613 16.0421C250.266 16.0421 249.174 14.9499 249.174 13.6026C249.174 12.2554 250.266 11.1631 251.613 11.1631C252.96 11.1631 254.053 12.2554 254.053 13.6026Z" fill="#F24E80"/>
<path d="M254.053 13.6026C254.053 14.9499 252.96 16.0421 251.613 16.0421C250.266 16.0421 249.174 14.9499 249.174 13.6026C249.174 12.2554 250.266 11.1631 251.613 11.1631C252.96 11.1631 254.053 12.2554 254.053 13.6026Z" fill="url(#paint6_radial_1228_4036)"/>
<path d="M268.581 13.6026C268.581 14.9499 267.489 16.0421 266.142 16.0421C264.794 16.0421 263.702 14.9499 263.702 13.6026C263.702 12.2554 264.794 11.1631 266.142 11.1631C267.489 11.1631 268.581 12.2554 268.581 13.6026Z" fill="#F24E80"/>
<path d="M268.581 13.6026C268.581 14.9499 267.489 16.0421 266.142 16.0421C264.794 16.0421 263.702 14.9499 263.702 13.6026C263.702 12.2554 264.794 11.1631 266.142 11.1631C267.489 11.1631 268.581 12.2554 268.581 13.6026Z" fill="url(#paint7_radial_1228_4036)"/>
<path d="M283.109 13.6026C283.109 14.9499 282.017 16.0421 280.669 16.0421C279.322 16.0421 278.23 14.9499 278.23 13.6026C278.23 12.2554 279.322 11.1631 280.669 11.1631C282.017 11.1631 283.109 12.2554 283.109 13.6026Z" fill="#F24E80"/>
<path d="M283.109 13.6026C283.109 14.9499 282.017 16.0421 280.669 16.0421C279.322 16.0421 278.23 14.9499 278.23 13.6026C278.23 12.2554 279.322 11.1631 280.669 11.1631C282.017 11.1631 283.109 12.2554 283.109 13.6026Z" fill="url(#paint8_radial_1228_4036)"/>
<path d="M297.637 13.6026C297.637 14.9499 296.544 16.0421 295.197 16.0421C293.85 16.0421 292.758 14.9499 292.758 13.6026C292.758 12.2554 293.85 11.1631 295.197 11.1631C296.544 11.1631 297.637 12.2554 297.637 13.6026Z" fill="#F24E80"/>
<path d="M297.637 13.6026C297.637 14.9499 296.544 16.0421 295.197 16.0421C293.85 16.0421 292.758 14.9499 292.758 13.6026C292.758 12.2554 293.85 11.1631 295.197 11.1631C296.544 11.1631 297.637 12.2554 297.637 13.6026Z" fill="url(#paint9_radial_1228_4036)"/>
<path d="M312.165 13.6026C312.165 14.9499 311.072 16.0421 309.725 16.0421C308.378 16.0421 307.286 14.9499 307.286 13.6026C307.286 12.2554 308.378 11.1631 309.725 11.1631C311.072 11.1631 312.165 12.2554 312.165 13.6026Z" fill="#F24E80"/>
<path d="M312.165 13.6026C312.165 14.9499 311.072 16.0421 309.725 16.0421C308.378 16.0421 307.286 14.9499 307.286 13.6026C307.286 12.2554 308.378 11.1631 309.725 11.1631C311.072 11.1631 312.165 12.2554 312.165 13.6026Z" fill="url(#paint10_radial_1228_4036)"/>
<path d="M181.413 32.5164C181.413 33.8637 180.321 34.9559 178.974 34.9559C177.627 34.9559 176.534 33.8637 176.534 32.5164C176.534 31.1691 177.627 30.0769 178.974 30.0769C180.321 30.0769 181.413 31.1691 181.413 32.5164Z" fill="#F24E80"/>
<path d="M181.413 32.5164C181.413 33.8637 180.321 34.9559 178.974 34.9559C177.627 34.9559 176.534 33.8637 176.534 32.5164C176.534 31.1691 177.627 30.0769 178.974 30.0769C180.321 30.0769 181.413 31.1691 181.413 32.5164Z" fill="url(#paint11_radial_1228_4036)"/>
<path d="M195.941 32.5164C195.941 33.8637 194.849 34.9559 193.502 34.9559C192.155 34.9559 191.062 33.8637 191.062 32.5164C191.062 31.1691 192.155 30.0769 193.502 30.0769C194.849 30.0769 195.941 31.1691 195.941 32.5164Z" fill="#F24E80"/>
<path d="M195.941 32.5164C195.941 33.8637 194.849 34.9559 193.502 34.9559C192.155 34.9559 191.062 33.8637 191.062 32.5164C191.062 31.1691 192.155 30.0769 193.502 30.0769C194.849 30.0769 195.941 31.1691 195.941 32.5164Z" fill="url(#paint12_radial_1228_4036)"/>
<path d="M210.469 32.5164C210.469 33.8637 209.377 34.9559 208.03 34.9559C206.683 34.9559 205.59 33.8637 205.59 32.5164C205.59 31.1691 206.683 30.0769 208.03 30.0769C209.377 30.0769 210.469 31.1691 210.469 32.5164Z" fill="#F24E80"/>
<path d="M210.469 32.5164C210.469 33.8637 209.377 34.9559 208.03 34.9559C206.683 34.9559 205.59 33.8637 205.59 32.5164C205.59 31.1691 206.683 30.0769 208.03 30.0769C209.377 30.0769 210.469 31.1691 210.469 32.5164Z" fill="url(#paint13_radial_1228_4036)"/>
<path d="M224.997 32.5164C224.997 33.8637 223.905 34.9559 222.558 34.9559C221.211 34.9559 220.118 33.8637 220.118 32.5164C220.118 31.1691 221.211 30.0769 222.558 30.0769C223.905 30.0769 224.997 31.1691 224.997 32.5164Z" fill="#F24E80"/>
<path d="M224.997 32.5164C224.997 33.8637 223.905 34.9559 222.558 34.9559C221.211 34.9559 220.118 33.8637 220.118 32.5164C220.118 31.1691 221.211 30.0769 222.558 30.0769C223.905 30.0769 224.997 31.1691 224.997 32.5164Z" fill="url(#paint14_radial_1228_4036)"/>
<path d="M239.525 32.5164C239.525 33.8637 238.433 34.9559 237.085 34.9559C235.738 34.9559 234.646 33.8637 234.646 32.5164C234.646 31.1691 235.738 30.0769 237.085 30.0769C238.433 30.0769 239.525 31.1691 239.525 32.5164Z" fill="#F24E80"/>
<path d="M239.525 32.5164C239.525 33.8637 238.433 34.9559 237.085 34.9559C235.738 34.9559 234.646 33.8637 234.646 32.5164C234.646 31.1691 235.738 30.0769 237.085 30.0769C238.433 30.0769 239.525 31.1691 239.525 32.5164Z" fill="url(#paint15_radial_1228_4036)"/>
<path d="M254.053 32.5164C254.053 33.8637 252.96 34.9559 251.613 34.9559C250.266 34.9559 249.174 33.8637 249.174 32.5164C249.174 31.1691 250.266 30.0769 251.613 30.0769C252.96 30.0769 254.053 31.1691 254.053 32.5164Z" fill="#F24E80"/>
<path d="M254.053 32.5164C254.053 33.8637 252.96 34.9559 251.613 34.9559C250.266 34.9559 249.174 33.8637 249.174 32.5164C249.174 31.1691 250.266 30.0769 251.613 30.0769C252.96 30.0769 254.053 31.1691 254.053 32.5164Z" fill="url(#paint16_radial_1228_4036)"/>
<path d="M268.581 32.5164C268.581 33.8637 267.489 34.9559 266.142 34.9559C264.795 34.9559 263.702 33.8637 263.702 32.5164C263.702 31.1691 264.795 30.0769 266.142 30.0769C267.489 30.0769 268.581 31.1691 268.581 32.5164Z" fill="#F24E80"/>
<path d="M268.581 32.5164C268.581 33.8637 267.489 34.9559 266.142 34.9559C264.795 34.9559 263.702 33.8637 263.702 32.5164C263.702 31.1691 264.795 30.0769 266.142 30.0769C267.489 30.0769 268.581 31.1691 268.581 32.5164Z" fill="url(#paint17_radial_1228_4036)"/>
<path d="M283.109 32.5164C283.109 33.8637 282.017 34.9559 280.669 34.9559C279.322 34.9559 278.23 33.8637 278.23 32.5164C278.23 31.1691 279.322 30.0769 280.669 30.0769C282.017 30.0769 283.109 31.1691 283.109 32.5164Z" fill="#F24E80"/>
<path d="M283.109 32.5164C283.109 33.8637 282.017 34.9559 280.669 34.9559C279.322 34.9559 278.23 33.8637 278.23 32.5164C278.23 31.1691 279.322 30.0769 280.669 30.0769C282.017 30.0769 283.109 31.1691 283.109 32.5164Z" fill="url(#paint18_radial_1228_4036)"/>
<path d="M297.637 32.5164C297.637 33.8637 296.545 34.9559 295.197 34.9559C293.85 34.9559 292.758 33.8637 292.758 32.5164C292.758 31.1691 293.85 30.0769 295.197 30.0769C296.545 30.0769 297.637 31.1691 297.637 32.5164Z" fill="#F24E80"/>
<path d="M297.637 32.5164C297.637 33.8637 296.545 34.9559 295.197 34.9559C293.85 34.9559 292.758 33.8637 292.758 32.5164C292.758 31.1691 293.85 30.0769 295.197 30.0769C296.545 30.0769 297.637 31.1691 297.637 32.5164Z" fill="url(#paint19_radial_1228_4036)"/>
<path d="M312.165 32.5164C312.165 33.8637 311.072 34.9559 309.725 34.9559C308.378 34.9559 307.286 33.8637 307.286 32.5164C307.286 31.1691 308.378 30.0769 309.725 30.0769C311.072 30.0769 312.165 31.1691 312.165 32.5164Z" fill="#F24E80"/>
<path d="M312.165 32.5164C312.165 33.8637 311.072 34.9559 309.725 34.9559C308.378 34.9559 307.286 33.8637 307.286 32.5164C307.286 31.1691 308.378 30.0769 309.725 30.0769C311.072 30.0769 312.165 31.1691 312.165 32.5164Z" fill="url(#paint20_radial_1228_4036)"/>
<path d="M181.413 51.4301C181.413 52.7774 180.321 53.8696 178.974 53.8696C177.627 53.8696 176.534 52.7774 176.534 51.4301C176.534 50.0828 177.627 48.9906 178.974 48.9906C180.321 48.9906 181.413 50.0828 181.413 51.4301Z" fill="#F24E80"/>
<path d="M181.413 51.4301C181.413 52.7774 180.321 53.8696 178.974 53.8696C177.627 53.8696 176.534 52.7774 176.534 51.4301C176.534 50.0828 177.627 48.9906 178.974 48.9906C180.321 48.9906 181.413 50.0828 181.413 51.4301Z" fill="url(#paint21_radial_1228_4036)"/>
<path d="M195.941 51.4301C195.941 52.7774 194.849 53.8696 193.502 53.8696C192.155 53.8696 191.062 52.7774 191.062 51.4301C191.062 50.0828 192.155 48.9906 193.502 48.9906C194.849 48.9906 195.941 50.0828 195.941 51.4301Z" fill="#F24E80"/>
<path d="M195.941 51.4301C195.941 52.7774 194.849 53.8696 193.502 53.8696C192.155 53.8696 191.062 52.7774 191.062 51.4301C191.062 50.0828 192.155 48.9906 193.502 48.9906C194.849 48.9906 195.941 50.0828 195.941 51.4301Z" fill="url(#paint22_radial_1228_4036)"/>
<path d="M210.469 51.4301C210.469 52.7774 209.377 53.8696 208.03 53.8696C206.683 53.8696 205.59 52.7774 205.59 51.4301C205.59 50.0828 206.683 48.9906 208.03 48.9906C209.377 48.9906 210.469 50.0828 210.469 51.4301Z" fill="#F24E80"/>
<path d="M210.469 51.4301C210.469 52.7774 209.377 53.8696 208.03 53.8696C206.683 53.8696 205.59 52.7774 205.59 51.4301C205.59 50.0828 206.683 48.9906 208.03 48.9906C209.377 48.9906 210.469 50.0828 210.469 51.4301Z" fill="url(#paint23_radial_1228_4036)"/>
<path d="M224.997 51.4301C224.997 52.7774 223.905 53.8696 222.558 53.8696C221.211 53.8696 220.118 52.7774 220.118 51.4301C220.118 50.0828 221.211 48.9906 222.558 48.9906C223.905 48.9906 224.997 50.0828 224.997 51.4301Z" fill="#F24E80"/>
<path d="M224.997 51.4301C224.997 52.7774 223.905 53.8696 222.558 53.8696C221.211 53.8696 220.118 52.7774 220.118 51.4301C220.118 50.0828 221.211 48.9906 222.558 48.9906C223.905 48.9906 224.997 50.0828 224.997 51.4301Z" fill="url(#paint24_radial_1228_4036)"/>
<path d="M239.525 51.4301C239.525 52.7774 238.433 53.8696 237.085 53.8696C235.738 53.8696 234.646 52.7774 234.646 51.4301C234.646 50.0828 235.738 48.9906 237.085 48.9906C238.433 48.9906 239.525 50.0828 239.525 51.4301Z" fill="#F24E80"/>
<path d="M239.525 51.4301C239.525 52.7774 238.433 53.8696 237.085 53.8696C235.738 53.8696 234.646 52.7774 234.646 51.4301C234.646 50.0828 235.738 48.9906 237.085 48.9906C238.433 48.9906 239.525 50.0828 239.525 51.4301Z" fill="url(#paint25_radial_1228_4036)"/>
<path d="M254.053 51.4301C254.053 52.7774 252.96 53.8696 251.613 53.8696C250.266 53.8696 249.174 52.7774 249.174 51.4301C249.174 50.0828 250.266 48.9906 251.613 48.9906C252.96 48.9906 254.053 50.0828 254.053 51.4301Z" fill="#F24E80"/>
<path d="M254.053 51.4301C254.053 52.7774 252.96 53.8696 251.613 53.8696C250.266 53.8696 249.174 52.7774 249.174 51.4301C249.174 50.0828 250.266 48.9906 251.613 48.9906C252.96 48.9906 254.053 50.0828 254.053 51.4301Z" fill="url(#paint26_radial_1228_4036)"/>
<path d="M268.581 51.4301C268.581 52.7774 267.488 53.8696 266.142 53.8696C264.795 53.8696 263.702 52.7774 263.702 51.4301C263.702 50.0828 264.795 48.9906 266.142 48.9906C267.488 48.9906 268.581 50.0828 268.581 51.4301Z" fill="#F24E80"/>
<path d="M268.581 51.4301C268.581 52.7774 267.488 53.8696 266.142 53.8696C264.795 53.8696 263.702 52.7774 263.702 51.4301C263.702 50.0828 264.795 48.9906 266.142 48.9906C267.488 48.9906 268.581 50.0828 268.581 51.4301Z" fill="url(#paint27_radial_1228_4036)"/>
<path d="M283.109 51.4301C283.109 52.7774 282.016 53.8696 280.669 53.8696C279.323 53.8696 278.23 52.7774 278.23 51.4301C278.23 50.0828 279.323 48.9906 280.669 48.9906C282.016 48.9906 283.109 50.0828 283.109 51.4301Z" fill="#F24E80"/>
<path d="M283.109 51.4301C283.109 52.7774 282.016 53.8696 280.669 53.8696C279.323 53.8696 278.23 52.7774 278.23 51.4301C278.23 50.0828 279.323 48.9906 280.669 48.9906C282.016 48.9906 283.109 50.0828 283.109 51.4301Z" fill="url(#paint28_radial_1228_4036)"/>
<path d="M297.637 51.4301C297.637 52.7772 296.544 53.8696 295.197 53.8696C293.85 53.8696 292.758 52.7772 292.758 51.4301C292.758 50.083 293.85 48.9906 295.197 48.9906C296.544 48.9906 297.637 50.083 297.637 51.4301Z" fill="#F24E80"/>
<path d="M297.637 51.4301C297.637 52.7772 296.544 53.8696 295.197 53.8696C293.85 53.8696 292.758 52.7772 292.758 51.4301C292.758 50.083 293.85 48.9906 295.197 48.9906C296.544 48.9906 297.637 50.083 297.637 51.4301Z" fill="url(#paint29_radial_1228_4036)"/>
<path d="M312.165 51.4301C312.165 52.7772 311.072 53.8696 309.725 53.8696C308.379 53.8696 307.286 52.7772 307.286 51.4301C307.286 50.083 308.379 48.9906 309.725 48.9906C311.072 48.9906 312.165 50.083 312.165 51.4301Z" fill="#F24E80"/>
<path d="M312.165 51.4301C312.165 52.7772 311.072 53.8696 309.725 53.8696C308.379 53.8696 307.286 52.7772 307.286 51.4301C307.286 50.083 308.379 48.9906 309.725 48.9906C311.072 48.9906 312.165 50.083 312.165 51.4301Z" fill="url(#paint30_radial_1228_4036)"/>
<path d="M181.413 70.3439C181.413 71.6909 180.32 72.7834 178.974 72.7834C177.627 72.7834 176.534 71.6909 176.534 70.3439C176.534 68.9968 177.627 67.9044 178.974 67.9044C180.32 67.9044 181.413 68.9968 181.413 70.3439Z" fill="#F24E80"/>
<path d="M181.413 70.3439C181.413 71.6909 180.32 72.7834 178.974 72.7834C177.627 72.7834 176.534 71.6909 176.534 70.3439C176.534 68.9968 177.627 67.9044 178.974 67.9044C180.32 67.9044 181.413 68.9968 181.413 70.3439Z" fill="url(#paint31_radial_1228_4036)"/>
<path d="M195.941 70.3439C195.941 71.6909 194.849 72.7834 193.502 72.7834C192.155 72.7834 191.062 71.6909 191.062 70.3439C191.062 68.9968 192.155 67.9044 193.502 67.9044C194.849 67.9044 195.941 68.9968 195.941 70.3439Z" fill="#F24E80"/>
<path d="M195.941 70.3439C195.941 71.6909 194.849 72.7834 193.502 72.7834C192.155 72.7834 191.062 71.6909 191.062 70.3439C191.062 68.9968 192.155 67.9044 193.502 67.9044C194.849 67.9044 195.941 68.9968 195.941 70.3439Z" fill="url(#paint32_radial_1228_4036)"/>
<path d="M210.469 70.3439C210.469 71.6909 209.376 72.7834 208.03 72.7834C206.683 72.7834 205.59 71.6909 205.59 70.3439C205.59 68.9968 206.683 67.9044 208.03 67.9044C209.376 67.9044 210.469 68.9968 210.469 70.3439Z" fill="#F24E80"/>
<path d="M210.469 70.3439C210.469 71.6909 209.376 72.7834 208.03 72.7834C206.683 72.7834 205.59 71.6909 205.59 70.3439C205.59 68.9968 206.683 67.9044 208.03 67.9044C209.376 67.9044 210.469 68.9968 210.469 70.3439Z" fill="url(#paint33_radial_1228_4036)"/>
<path d="M224.997 70.3439C224.997 71.6909 223.904 72.7834 222.558 72.7834C221.211 72.7834 220.118 71.6909 220.118 70.3439C220.118 68.9968 221.211 67.9044 222.558 67.9044C223.904 67.9044 224.997 68.9968 224.997 70.3439Z" fill="#F24E80"/>
<path d="M224.997 70.3439C224.997 71.6909 223.904 72.7834 222.558 72.7834C221.211 72.7834 220.118 71.6909 220.118 70.3439C220.118 68.9968 221.211 67.9044 222.558 67.9044C223.904 67.9044 224.997 68.9968 224.997 70.3439Z" fill="url(#paint34_radial_1228_4036)"/>
<path d="M239.525 70.3439C239.525 71.6909 238.432 72.7834 237.085 72.7834C235.739 72.7834 234.646 71.6909 234.646 70.3439C234.646 68.9968 235.739 67.9044 237.085 67.9044C238.432 67.9044 239.525 68.9968 239.525 70.3439Z" fill="#F24E80"/>
<path d="M239.525 70.3439C239.525 71.6909 238.432 72.7834 237.085 72.7834C235.739 72.7834 234.646 71.6909 234.646 70.3439C234.646 68.9968 235.739 67.9044 237.085 67.9044C238.432 67.9044 239.525 68.9968 239.525 70.3439Z" fill="url(#paint35_radial_1228_4036)"/>
<path d="M254.053 70.3439C254.053 71.6909 252.96 72.7834 251.613 72.7834C250.267 72.7834 249.174 71.6909 249.174 70.3439C249.174 68.9968 250.267 67.9044 251.613 67.9044C252.96 67.9044 254.053 68.9968 254.053 70.3439Z" fill="#F24E80"/>
<path d="M254.053 70.3439C254.053 71.6909 252.96 72.7834 251.613 72.7834C250.267 72.7834 249.174 71.6909 249.174 70.3439C249.174 68.9968 250.267 67.9044 251.613 67.9044C252.96 67.9044 254.053 68.9968 254.053 70.3439Z" fill="url(#paint36_radial_1228_4036)"/>
<path d="M268.581 70.3439C268.581 71.6909 267.488 72.7834 266.142 72.7834C264.795 72.7834 263.702 71.6909 263.702 70.3439C263.702 68.9968 264.795 67.9044 266.142 67.9044C267.488 67.9044 268.581 68.9968 268.581 70.3439Z" fill="#F24E80"/>
<path d="M268.581 70.3439C268.581 71.6909 267.488 72.7834 266.142 72.7834C264.795 72.7834 263.702 71.6909 263.702 70.3439C263.702 68.9968 264.795 67.9044 266.142 67.9044C267.488 67.9044 268.581 68.9968 268.581 70.3439Z" fill="url(#paint37_radial_1228_4036)"/>
<path d="M283.109 70.3439C283.109 71.6909 282.016 72.7834 280.669 72.7834C279.323 72.7834 278.23 71.6909 278.23 70.3439C278.23 68.9968 279.323 67.9044 280.669 67.9044C282.016 67.9044 283.109 68.9968 283.109 70.3439Z" fill="#F24E80"/>
<path d="M283.109 70.3439C283.109 71.6909 282.016 72.7834 280.669 72.7834C279.323 72.7834 278.23 71.6909 278.23 70.3439C278.23 68.9968 279.323 67.9044 280.669 67.9044C282.016 67.9044 283.109 68.9968 283.109 70.3439Z" fill="url(#paint38_radial_1228_4036)"/>
<path d="M297.637 70.3439C297.637 71.6912 296.545 72.7834 295.197 72.7834C293.85 72.7834 292.758 71.6912 292.758 70.3439C292.758 68.9966 293.85 67.9044 295.197 67.9044C296.545 67.9044 297.637 68.9966 297.637 70.3439Z" fill="#F24E80"/>
<path d="M297.637 70.3439C297.637 71.6912 296.545 72.7834 295.197 72.7834C293.85 72.7834 292.758 71.6912 292.758 70.3439C292.758 68.9966 293.85 67.9044 295.197 67.9044C296.545 67.9044 297.637 68.9966 297.637 70.3439Z" fill="url(#paint39_radial_1228_4036)"/>
<path d="M312.165 70.3439C312.165 71.6912 311.072 72.7834 309.725 72.7834C308.378 72.7834 307.286 71.6912 307.286 70.3439C307.286 68.9966 308.378 67.9044 309.725 67.9044C311.072 67.9044 312.165 68.9966 312.165 70.3439Z" fill="#F24E80"/>
<path d="M312.165 70.3439C312.165 71.6912 311.072 72.7834 309.725 72.7834C308.378 72.7834 307.286 71.6912 307.286 70.3439C307.286 68.9966 308.378 67.9044 309.725 67.9044C311.072 67.9044 312.165 68.9966 312.165 70.3439Z" fill="url(#paint40_radial_1228_4036)"/>
<path d="M181.413 89.2576C181.413 90.6049 180.321 91.6971 178.974 91.6971C177.627 91.6971 176.534 90.6049 176.534 89.2576C176.534 87.9103 177.627 86.8181 178.974 86.8181C180.321 86.8181 181.413 87.9103 181.413 89.2576Z" fill="#F24E80"/>
<path d="M181.413 89.2576C181.413 90.6049 180.321 91.6971 178.974 91.6971C177.627 91.6971 176.534 90.6049 176.534 89.2576C176.534 87.9103 177.627 86.8181 178.974 86.8181C180.321 86.8181 181.413 87.9103 181.413 89.2576Z" fill="url(#paint41_radial_1228_4036)"/>
<path d="M195.941 89.2576C195.941 90.6049 194.849 91.6971 193.502 91.6971C192.155 91.6971 191.062 90.6049 191.062 89.2576C191.062 87.9103 192.155 86.8181 193.502 86.8181C194.849 86.8181 195.941 87.9103 195.941 89.2576Z" fill="#F24E80"/>
<path d="M195.941 89.2576C195.941 90.6049 194.849 91.6971 193.502 91.6971C192.155 91.6971 191.062 90.6049 191.062 89.2576C191.062 87.9103 192.155 86.8181 193.502 86.8181C194.849 86.8181 195.941 87.9103 195.941 89.2576Z" fill="url(#paint42_radial_1228_4036)"/>
<path d="M210.469 89.2576C210.469 90.6049 209.377 91.6971 208.03 91.6971C206.683 91.6971 205.59 90.6049 205.59 89.2576C205.59 87.9103 206.683 86.8181 208.03 86.8181C209.377 86.8181 210.469 87.9103 210.469 89.2576Z" fill="#F24E80"/>
<path d="M210.469 89.2576C210.469 90.6049 209.377 91.6971 208.03 91.6971C206.683 91.6971 205.59 90.6049 205.59 89.2576C205.59 87.9103 206.683 86.8181 208.03 86.8181C209.377 86.8181 210.469 87.9103 210.469 89.2576Z" fill="url(#paint43_radial_1228_4036)"/>
<path d="M224.997 89.2576C224.997 90.6049 223.905 91.6971 222.558 91.6971C221.211 91.6971 220.118 90.6049 220.118 89.2576C220.118 87.9103 221.211 86.8181 222.558 86.8181C223.905 86.8181 224.997 87.9103 224.997 89.2576Z" fill="#F24E80"/>
<path d="M224.997 89.2576C224.997 90.6049 223.905 91.6971 222.558 91.6971C221.211 91.6971 220.118 90.6049 220.118 89.2576C220.118 87.9103 221.211 86.8181 222.558 86.8181C223.905 86.8181 224.997 87.9103 224.997 89.2576Z" fill="url(#paint44_radial_1228_4036)"/>
<path d="M239.525 89.2576C239.525 90.6049 238.433 91.6971 237.085 91.6971C235.738 91.6971 234.646 90.6049 234.646 89.2576C234.646 87.9103 235.738 86.8181 237.085 86.8181C238.433 86.8181 239.525 87.9103 239.525 89.2576Z" fill="#F24E80"/>
<path d="M239.525 89.2576C239.525 90.6049 238.433 91.6971 237.085 91.6971C235.738 91.6971 234.646 90.6049 234.646 89.2576C234.646 87.9103 235.738 86.8181 237.085 86.8181C238.433 86.8181 239.525 87.9103 239.525 89.2576Z" fill="url(#paint45_radial_1228_4036)"/>
<path d="M254.053 89.2576C254.053 90.6049 252.96 91.6971 251.613 91.6971C250.266 91.6971 249.174 90.6049 249.174 89.2576C249.174 87.9103 250.266 86.8181 251.613 86.8181C252.96 86.8181 254.053 87.9103 254.053 89.2576Z" fill="#F24E80"/>
<path d="M254.053 89.2576C254.053 90.6049 252.96 91.6971 251.613 91.6971C250.266 91.6971 249.174 90.6049 249.174 89.2576C249.174 87.9103 250.266 86.8181 251.613 86.8181C252.96 86.8181 254.053 87.9103 254.053 89.2576Z" fill="url(#paint46_radial_1228_4036)"/>
<path d="M268.581 89.2576C268.581 90.6049 267.488 91.6971 266.142 91.6971C264.795 91.6971 263.702 90.6049 263.702 89.2576C263.702 87.9103 264.795 86.8181 266.142 86.8181C267.488 86.8181 268.581 87.9103 268.581 89.2576Z" fill="white"/>
<path d="M283.109 89.2576C283.109 90.6049 282.016 91.6971 280.669 91.6971C279.323 91.6971 278.23 90.6049 278.23 89.2576C278.23 87.9103 279.323 86.8181 280.669 86.8181C282.016 86.8181 283.109 87.9103 283.109 89.2576Z" fill="white"/>
<path d="M297.637 89.2576C297.637 90.6046 296.544 91.6971 295.197 91.6971C293.85 91.6971 292.758 90.6046 292.758 89.2576C292.758 87.9105 293.85 86.8181 295.197 86.8181C296.544 86.8181 297.637 87.9105 297.637 89.2576Z" fill="white"/>
<path d="M312.165 89.2576C312.165 90.6046 311.072 91.6971 309.725 91.6971C308.379 91.6971 307.286 90.6046 307.286 89.2576C307.286 87.9105 308.379 86.8181 309.725 86.8181C311.072 86.8181 312.165 87.9105 312.165 89.2576Z" fill="white"/>
<path d="M181.413 108.171C181.413 109.518 180.32 110.611 178.974 110.611C177.627 110.611 176.534 109.518 176.534 108.171C176.534 106.824 177.627 105.732 178.974 105.732C180.32 105.732 181.413 106.824 181.413 108.171Z" fill="white"/>
<path d="M195.941 108.171C195.941 109.518 194.849 110.611 193.502 110.611C192.155 110.611 191.062 109.518 191.062 108.171C191.062 106.824 192.155 105.732 193.502 105.732C194.849 105.732 195.941 106.824 195.941 108.171Z" fill="white"/>
<path d="M210.469 108.171C210.469 109.518 209.376 110.611 208.03 110.611C206.683 110.611 205.59 109.518 205.59 108.171C205.59 106.824 206.683 105.732 208.03 105.732C209.376 105.732 210.469 106.824 210.469 108.171Z" fill="white"/>
<path d="M224.997 108.171C224.997 109.518 223.904 110.611 222.558 110.611C221.211 110.611 220.118 109.518 220.118 108.171C220.118 106.824 221.211 105.732 222.558 105.732C223.904 105.732 224.997 106.824 224.997 108.171Z" fill="white"/>
<path d="M239.525 108.171C239.525 109.518 238.432 110.611 237.085 110.611C235.739 110.611 234.646 109.518 234.646 108.171C234.646 106.824 235.739 105.732 237.085 105.732C238.432 105.732 239.525 106.824 239.525 108.171Z" fill="white"/>
<path d="M254.053 108.171C254.053 109.518 252.96 110.611 251.613 110.611C250.267 110.611 249.174 109.518 249.174 108.171C249.174 106.824 250.267 105.732 251.613 105.732C252.96 105.732 254.053 106.824 254.053 108.171Z" fill="#F24E80" fill-opacity="0.31"/>
<path d="M254.053 108.171C254.053 109.518 252.96 110.611 251.613 110.611C250.267 110.611 249.174 109.518 249.174 108.171C249.174 106.824 250.267 105.732 251.613 105.732C252.96 105.732 254.053 106.824 254.053 108.171Z" fill="white"/>
<path d="M268.581 108.171C268.581 109.518 267.488 110.611 266.142 110.611C264.795 110.611 263.702 109.518 263.702 108.171C263.702 106.824 264.795 105.732 266.142 105.732C267.488 105.732 268.581 106.824 268.581 108.171Z" fill="#F24E80" fill-opacity="0.31"/>
<path d="M268.581 108.171C268.581 109.518 267.488 110.611 266.142 110.611C264.795 110.611 263.702 109.518 263.702 108.171C263.702 106.824 264.795 105.732 266.142 105.732C267.488 105.732 268.581 106.824 268.581 108.171Z" fill="white"/>
<path d="M283.109 108.171C283.109 109.518 282.016 110.611 280.669 110.611C279.323 110.611 278.23 109.518 278.23 108.171C278.23 106.824 279.323 105.732 280.669 105.732C282.016 105.732 283.109 106.824 283.109 108.171Z" fill="#F24E80" fill-opacity="0.31"/>
<path d="M283.109 108.171C283.109 109.518 282.016 110.611 280.669 110.611C279.323 110.611 278.23 109.518 278.23 108.171C278.23 106.824 279.323 105.732 280.669 105.732C282.016 105.732 283.109 106.824 283.109 108.171Z" fill="white"/>
<path d="M297.637 108.171C297.637 109.519 296.545 110.611 295.197 110.611C293.85 110.611 292.758 109.519 292.758 108.171C292.758 106.824 293.85 105.732 295.197 105.732C296.545 105.732 297.637 106.824 297.637 108.171Z" fill="#F24E80" fill-opacity="0.31"/>
<path d="M297.637 108.171C297.637 109.519 296.545 110.611 295.197 110.611C293.85 110.611 292.758 109.519 292.758 108.171C292.758 106.824 293.85 105.732 295.197 105.732C296.545 105.732 297.637 106.824 297.637 108.171Z" fill="white"/>
<path d="M312.165 108.171C312.165 109.519 311.072 110.611 309.725 110.611C308.378 110.611 307.286 109.519 307.286 108.171C307.286 106.824 308.378 105.732 309.725 105.732C311.072 105.732 312.165 106.824 312.165 108.171Z" fill="#F24E80" fill-opacity="0.31"/>
<path d="M312.165 108.171C312.165 109.519 311.072 110.611 309.725 110.611C308.378 110.611 307.286 109.519 307.286 108.171C307.286 106.824 308.378 105.732 309.725 105.732C311.072 105.732 312.165 106.824 312.165 108.171Z" fill="white"/>
<path d="M181.413 127.085C181.413 128.432 180.321 129.525 178.974 129.525C177.627 129.525 176.534 128.432 176.534 127.085C176.534 125.738 177.627 124.646 178.974 124.646C180.321 124.646 181.413 125.738 181.413 127.085Z" fill="#F24E80" fill-opacity="0.31"/>
<path d="M181.413 127.085C181.413 128.432 180.321 129.525 178.974 129.525C177.627 129.525 176.534 128.432 176.534 127.085C176.534 125.738 177.627 124.646 178.974 124.646C180.321 124.646 181.413 125.738 181.413 127.085Z" fill="white"/>
<path d="M195.941 127.085C195.941 128.432 194.849 129.525 193.502 129.525C192.155 129.525 191.062 128.432 191.062 127.085C191.062 125.738 192.155 124.646 193.502 124.646C194.849 124.646 195.941 125.738 195.941 127.085Z" fill="#F24E80" fill-opacity="0.31"/>
<path d="M195.941 127.085C195.941 128.432 194.849 129.525 193.502 129.525C192.155 129.525 191.062 128.432 191.062 127.085C191.062 125.738 192.155 124.646 193.502 124.646C194.849 124.646 195.941 125.738 195.941 127.085Z" fill="white"/>
<path d="M210.469 127.085C210.469 128.432 209.377 129.525 208.03 129.525C206.683 129.525 205.59 128.432 205.59 127.085C205.59 125.738 206.683 124.646 208.03 124.646C209.377 124.646 210.469 125.738 210.469 127.085Z" fill="#F24E80" fill-opacity="0.31"/>
<path d="M210.469 127.085C210.469 128.432 209.377 129.525 208.03 129.525C206.683 129.525 205.59 128.432 205.59 127.085C205.59 125.738 206.683 124.646 208.03 124.646C209.377 124.646 210.469 125.738 210.469 127.085Z" fill="white"/>
<path d="M224.997 127.085C224.997 128.432 223.905 129.525 222.558 129.525C221.211 129.525 220.118 128.432 220.118 127.085C220.118 125.738 221.211 124.646 222.558 124.646C223.905 124.646 224.997 125.738 224.997 127.085Z" fill="#F24E80" fill-opacity="0.31"/>
<path d="M224.997 127.085C224.997 128.432 223.905 129.525 222.558 129.525C221.211 129.525 220.118 128.432 220.118 127.085C220.118 125.738 221.211 124.646 222.558 124.646C223.905 124.646 224.997 125.738 224.997 127.085Z" fill="white"/>
<path d="M239.525 127.085C239.525 128.432 238.433 129.525 237.085 129.525C235.738 129.525 234.646 128.432 234.646 127.085C234.646 125.738 235.738 124.646 237.085 124.646C238.433 124.646 239.525 125.738 239.525 127.085Z" fill="#F24E80" fill-opacity="0.31"/>
<path d="M239.525 127.085C239.525 128.432 238.433 129.525 237.085 129.525C235.738 129.525 234.646 128.432 234.646 127.085C234.646 125.738 235.738 124.646 237.085 124.646C238.433 124.646 239.525 125.738 239.525 127.085Z" fill="white"/>
<path d="M254.053 127.085C254.053 128.432 252.96 129.525 251.613 129.525C250.266 129.525 249.174 128.432 249.174 127.085C249.174 125.738 250.266 124.646 251.613 124.646C252.96 124.646 254.053 125.738 254.053 127.085Z" fill="#F24E80" fill-opacity="0.31"/>
<path d="M254.053 127.085C254.053 128.432 252.96 129.525 251.613 129.525C250.266 129.525 249.174 128.432 249.174 127.085C249.174 125.738 250.266 124.646 251.613 124.646C252.96 124.646 254.053 125.738 254.053 127.085Z" fill="white"/>
<path d="M268.581 127.085C268.581 128.432 267.488 129.525 266.142 129.525C264.795 129.525 263.702 128.432 263.702 127.085C263.702 125.738 264.795 124.646 266.142 124.646C267.488 124.646 268.581 125.738 268.581 127.085Z" fill="#F24E80" fill-opacity="0.31"/>
<path d="M268.581 127.085C268.581 128.432 267.488 129.525 266.142 129.525C264.795 129.525 263.702 128.432 263.702 127.085C263.702 125.738 264.795 124.646 266.142 124.646C267.488 124.646 268.581 125.738 268.581 127.085Z" fill="white"/>
<path d="M283.109 127.085C283.109 128.432 282.017 129.525 280.669 129.525C279.322 129.525 278.23 128.432 278.23 127.085C278.23 125.738 279.322 124.646 280.669 124.646C282.017 124.646 283.109 125.738 283.109 127.085Z" fill="#F24E80" fill-opacity="0.31"/>
<path d="M283.109 127.085C283.109 128.432 282.017 129.525 280.669 129.525C279.322 129.525 278.23 128.432 278.23 127.085C278.23 125.738 279.322 124.646 280.669 124.646C282.017 124.646 283.109 125.738 283.109 127.085Z" fill="white"/>
<path d="M297.637 127.085C297.637 128.432 296.544 129.525 295.197 129.525C293.851 129.525 292.758 128.432 292.758 127.085C292.758 125.738 293.851 124.646 295.197 124.646C296.544 124.646 297.637 125.738 297.637 127.085Z" fill="#F24E80" fill-opacity="0.31"/>
<path d="M297.637 127.085C297.637 128.432 296.544 129.525 295.197 129.525C293.851 129.525 292.758 128.432 292.758 127.085C292.758 125.738 293.851 124.646 295.197 124.646C296.544 124.646 297.637 125.738 297.637 127.085Z" fill="white"/>
<path d="M312.165 127.085C312.165 128.432 311.072 129.525 309.725 129.525C308.379 129.525 307.286 128.432 307.286 127.085C307.286 125.738 308.379 124.646 309.725 124.646C311.072 124.646 312.165 125.738 312.165 127.085Z" fill="#F24E80" fill-opacity="0.31"/>
<path d="M312.165 127.085C312.165 128.432 311.072 129.525 309.725 129.525C308.379 129.525 307.286 128.432 307.286 127.085C307.286 125.738 308.379 124.646 309.725 124.646C311.072 124.646 312.165 125.738 312.165 127.085Z" fill="white"/>
<path d="M181.413 145.999C181.413 147.346 180.32 148.438 178.974 148.438C177.627 148.438 176.534 147.346 176.534 145.999C176.534 144.652 177.627 143.559 178.974 143.559C180.32 143.559 181.413 144.652 181.413 145.999Z" fill="#F24E80" fill-opacity="0.31"/>
<path d="M181.413 145.999C181.413 147.346 180.32 148.438 178.974 148.438C177.627 148.438 176.534 147.346 176.534 145.999C176.534 144.652 177.627 143.559 178.974 143.559C180.32 143.559 181.413 144.652 181.413 145.999Z" fill="white"/>
<path d="M195.941 145.999C195.941 147.346 194.849 148.438 193.502 148.438C192.155 148.438 191.062 147.346 191.062 145.999C191.062 144.652 192.155 143.559 193.502 143.559C194.849 143.559 195.941 144.652 195.941 145.999Z" fill="#F24E80" fill-opacity="0.31"/>
<path d="M195.941 145.999C195.941 147.346 194.849 148.438 193.502 148.438C192.155 148.438 191.062 147.346 191.062 145.999C191.062 144.652 192.155 143.559 193.502 143.559C194.849 143.559 195.941 144.652 195.941 145.999Z" fill="white"/>
<path d="M210.469 145.999C210.469 147.346 209.376 148.438 208.03 148.438C206.683 148.438 205.59 147.346 205.59 145.999C205.59 144.652 206.683 143.559 208.03 143.559C209.376 143.559 210.469 144.652 210.469 145.999Z" fill="#F24E80" fill-opacity="0.31"/>
<path d="M210.469 145.999C210.469 147.346 209.376 148.438 208.03 148.438C206.683 148.438 205.59 147.346 205.59 145.999C205.59 144.652 206.683 143.559 208.03 143.559C209.376 143.559 210.469 144.652 210.469 145.999Z" fill="white"/>
<path d="M224.997 145.999C224.997 147.346 223.904 148.438 222.558 148.438C221.211 148.438 220.118 147.346 220.118 145.999C220.118 144.652 221.211 143.559 222.558 143.559C223.904 143.559 224.997 144.652 224.997 145.999Z" fill="#F24E80" fill-opacity="0.31"/>
<path d="M224.997 145.999C224.997 147.346 223.904 148.438 222.558 148.438C221.211 148.438 220.118 147.346 220.118 145.999C220.118 144.652 221.211 143.559 222.558 143.559C223.904 143.559 224.997 144.652 224.997 145.999Z" fill="white"/>
<path d="M239.525 145.999C239.525 147.346 238.432 148.438 237.085 148.438C235.739 148.438 234.646 147.346 234.646 145.999C234.646 144.652 235.739 143.559 237.085 143.559C238.432 143.559 239.525 144.652 239.525 145.999Z" fill="#F24E80" fill-opacity="0.31"/>
<path d="M239.525 145.999C239.525 147.346 238.432 148.438 237.085 148.438C235.739 148.438 234.646 147.346 234.646 145.999C234.646 144.652 235.739 143.559 237.085 143.559C238.432 143.559 239.525 144.652 239.525 145.999Z" fill="white"/>
<path d="M254.053 145.999C254.053 147.346 252.96 148.438 251.613 148.438C250.267 148.438 249.174 147.346 249.174 145.999C249.174 144.652 250.267 143.559 251.613 143.559C252.96 143.559 254.053 144.652 254.053 145.999Z" fill="#F24E80" fill-opacity="0.31"/>
<path d="M254.053 145.999C254.053 147.346 252.96 148.438 251.613 148.438C250.267 148.438 249.174 147.346 249.174 145.999C249.174 144.652 250.267 143.559 251.613 143.559C252.96 143.559 254.053 144.652 254.053 145.999Z" fill="white"/>
<circle cx="164.083" cy="135.744" r="30.484" fill="white"/>
<circle cx="164.083" cy="135.744" r="30.0546" stroke="#F24E80" stroke-opacity="0.35" stroke-width="0.858704"/>
<path d="M149.056 137.033L165.371 118.141V134.027H177.822L161.078 153.777V137.033H149.056Z" fill="#F24E80"/>
<path d="M20.25 30.701H52.8807" stroke="url(#paint47_linear_1228_4036)" stroke-opacity="0.91" stroke-width="1.28806" stroke-linecap="round"/>
<path d="M18.5327 47.875H86.3703" stroke="url(#paint48_linear_1228_4036)" stroke-opacity="0.91" stroke-width="1.28806" stroke-linecap="round"/>
<path d="M41.7271 118.418H109.565" stroke="url(#paint49_linear_1228_4036)" stroke-opacity="0.91" stroke-width="1.28806" stroke-linecap="round"/>
<path d="M48.5874 65.0491H149.056" stroke="url(#paint50_linear_1228_4036)" stroke-opacity="0.91" stroke-width="1.28806" stroke-linecap="round"/>
<path d="M55.457 82.2232H121.577" stroke="url(#paint51_linear_1228_4036)" stroke-opacity="0.91" stroke-width="1.28806" stroke-linecap="round"/>
<path d="M9.94531 99.3973H76.0655" stroke="url(#paint52_linear_1228_4036)" stroke-opacity="0.91" stroke-width="1.28806" stroke-linecap="round"/>
</g>
<defs>
<linearGradient id="paint0_linear_1228_4036" x1="81.5769" y1="0" x2="81.5769" y2="221.603" gradientUnits="userSpaceOnUse">
<stop stop-color="#F24E80" stop-opacity="0.16"/>
<stop offset="1" stop-color="#F24E80" stop-opacity="0"/>
</linearGradient>
<radialGradient id="paint1_radial_1228_4036" cx="0" cy="0" r="1" gradientUnits="userSpaceOnUse" gradientTransform="translate(178.974 13.6026) rotate(90) scale(2.4395)">
<stop stop-color="white" stop-opacity="0"/>
<stop offset="1" stop-color="#999999" stop-opacity="0.05"/>
</radialGradient>
<radialGradient id="paint2_radial_1228_4036" cx="0" cy="0" r="1" gradientUnits="userSpaceOnUse" gradientTransform="translate(193.502 13.6026) rotate(90) scale(2.4395)">
<stop stop-color="white" stop-opacity="0"/>
<stop offset="1" stop-color="#999999" stop-opacity="0.05"/>
</radialGradient>
<radialGradient id="paint3_radial_1228_4036" cx="0" cy="0" r="1" gradientUnits="userSpaceOnUse" gradientTransform="translate(208.03 13.6026) rotate(90) scale(2.4395)">
<stop stop-color="white" stop-opacity="0"/>
<stop offset="1" stop-color="#999999" stop-opacity="0.05"/>
</radialGradient>
<radialGradient id="paint4_radial_1228_4036" cx="0" cy="0" r="1" gradientUnits="userSpaceOnUse" gradientTransform="translate(222.558 13.6026) rotate(90) scale(2.4395)">
<stop stop-color="white" stop-opacity="0"/>
<stop offset="1" stop-color="#999999" stop-opacity="0.05"/>
</radialGradient>
<radialGradient id="paint5_radial_1228_4036" cx="0" cy="0" r="1" gradientUnits="userSpaceOnUse" gradientTransform="translate(237.085 13.6026) rotate(90) scale(2.4395)">
<stop stop-color="white" stop-opacity="0"/>
<stop offset="1" stop-color="#999999" stop-opacity="0.05"/>
</radialGradient>
<radialGradient id="paint6_radial_1228_4036" cx="0" cy="0" r="1" gradientUnits="userSpaceOnUse" gradientTransform="translate(251.613 13.6026) rotate(90) scale(2.4395)">
<stop stop-color="white" stop-opacity="0"/>
<stop offset="1" stop-color="#999999" stop-opacity="0.05"/>
</radialGradient>
<radialGradient id="paint7_radial_1228_4036" cx="0" cy="0" r="1" gradientUnits="userSpaceOnUse" gradientTransform="translate(266.142 13.6026) rotate(90) scale(2.4395)">
<stop stop-color="white" stop-opacity="0"/>
<stop offset="1" stop-color="#999999" stop-opacity="0.05"/>
</radialGradient>
<radialGradient id="paint8_radial_1228_4036" cx="0" cy="0" r="1" gradientUnits="userSpaceOnUse" gradientTransform="translate(280.669 13.6026) rotate(90) scale(2.4395)">
<stop stop-color="white" stop-opacity="0"/>
<stop offset="1" stop-color="#999999" stop-opacity="0.05"/>
</radialGradient>
<radialGradient id="paint9_radial_1228_4036" cx="0" cy="0" r="1" gradientUnits="userSpaceOnUse" gradientTransform="translate(295.197 13.6026) rotate(90) scale(2.4395)">
<stop stop-color="white" stop-opacity="0"/>
<stop offset="1" stop-color="#999999" stop-opacity="0.05"/>
</radialGradient>
<radialGradient id="paint10_radial_1228_4036" cx="0" cy="0" r="1" gradientUnits="userSpaceOnUse" gradientTransform="translate(309.725 13.6026) rotate(90) scale(2.4395)">
<stop stop-color="white" stop-opacity="0"/>
<stop offset="1" stop-color="#999999" stop-opacity="0.05"/>
</radialGradient>
<radialGradient id="paint11_radial_1228_4036" cx="0" cy="0" r="1" gradientUnits="userSpaceOnUse" gradientTransform="translate(178.974 32.5164) rotate(90) scale(2.4395)">
<stop stop-color="white" stop-opacity="0"/>
<stop offset="1" stop-color="#999999" stop-opacity="0.05"/>
</radialGradient>
<radialGradient id="paint12_radial_1228_4036" cx="0" cy="0" r="1" gradientUnits="userSpaceOnUse" gradientTransform="translate(193.502 32.5164) rotate(90) scale(2.4395)">
<stop stop-color="white" stop-opacity="0"/>
<stop offset="1" stop-color="#999999" stop-opacity="0.05"/>
</radialGradient>
<radialGradient id="paint13_radial_1228_4036" cx="0" cy="0" r="1" gradientUnits="userSpaceOnUse" gradientTransform="translate(208.03 32.5164) rotate(90) scale(2.4395)">
<stop stop-color="white" stop-opacity="0"/>
<stop offset="1" stop-color="#999999" stop-opacity="0.05"/>
</radialGradient>
<radialGradient id="paint14_radial_1228_4036" cx="0" cy="0" r="1" gradientUnits="userSpaceOnUse" gradientTransform="translate(222.558 32.5164) rotate(90) scale(2.4395)">
<stop stop-color="white" stop-opacity="0"/>
<stop offset="1" stop-color="#999999" stop-opacity="0.05"/>
</radialGradient>
<radialGradient id="paint15_radial_1228_4036" cx="0" cy="0" r="1" gradientUnits="userSpaceOnUse" gradientTransform="translate(237.085 32.5164) rotate(90) scale(2.4395)">
<stop stop-color="white" stop-opacity="0"/>
<stop offset="1" stop-color="#999999" stop-opacity="0.05"/>
</radialGradient>
<radialGradient id="paint16_radial_1228_4036" cx="0" cy="0" r="1" gradientUnits="userSpaceOnUse" gradientTransform="translate(251.613 32.5164) rotate(90) scale(2.4395)">
<stop stop-color="white" stop-opacity="0"/>
<stop offset="1" stop-color="#999999" stop-opacity="0.05"/>
</radialGradient>
<radialGradient id="paint17_radial_1228_4036" cx="0" cy="0" r="1" gradientUnits="userSpaceOnUse" gradientTransform="translate(266.142 32.5164) rotate(90) scale(2.4395)">
<stop stop-color="white" stop-opacity="0"/>
<stop offset="1" stop-color="#999999" stop-opacity="0.05"/>
</radialGradient>
<radialGradient id="paint18_radial_1228_4036" cx="0" cy="0" r="1" gradientUnits="userSpaceOnUse" gradientTransform="translate(280.669 32.5164) rotate(90) scale(2.4395)">
<stop stop-color="white" stop-opacity="0"/>
<stop offset="1" stop-color="#999999" stop-opacity="0.05"/>
</radialGradient>
<radialGradient id="paint19_radial_1228_4036" cx="0" cy="0" r="1" gradientUnits="userSpaceOnUse" gradientTransform="translate(295.197 32.5164) rotate(90) scale(2.4395)">
<stop stop-color="white" stop-opacity="0"/>
<stop offset="1" stop-color="#999999" stop-opacity="0.05"/>
</radialGradient>
<radialGradient id="paint20_radial_1228_4036" cx="0" cy="0" r="1" gradientUnits="userSpaceOnUse" gradientTransform="translate(309.725 32.5164) rotate(90) scale(2.4395)">
<stop stop-color="white" stop-opacity="0"/>
<stop offset="1" stop-color="#999999" stop-opacity="0.05"/>
</radialGradient>
<radialGradient id="paint21_radial_1228_4036" cx="0" cy="0" r="1" gradientUnits="userSpaceOnUse" gradientTransform="translate(178.974 51.4301) rotate(90) scale(2.4395)">
<stop stop-color="white" stop-opacity="0"/>
<stop offset="1" stop-color="#999999" stop-opacity="0.05"/>
</radialGradient>
<radialGradient id="paint22_radial_1228_4036" cx="0" cy="0" r="1" gradientUnits="userSpaceOnUse" gradientTransform="translate(193.502 51.4301) rotate(90) scale(2.4395)">
<stop stop-color="white" stop-opacity="0"/>
<stop offset="1" stop-color="#999999" stop-opacity="0.05"/>
</radialGradient>
<radialGradient id="paint23_radial_1228_4036" cx="0" cy="0" r="1" gradientUnits="userSpaceOnUse" gradientTransform="translate(208.03 51.4301) rotate(90) scale(2.4395)">
<stop stop-color="white" stop-opacity="0"/>
<stop offset="1" stop-color="#999999" stop-opacity="0.05"/>
</radialGradient>
<radialGradient id="paint24_radial_1228_4036" cx="0" cy="0" r="1" gradientUnits="userSpaceOnUse" gradientTransform="translate(222.558 51.4301) rotate(90) scale(2.4395)">
<stop stop-color="white" stop-opacity="0"/>
<stop offset="1" stop-color="#999999" stop-opacity="0.05"/>
</radialGradient>
<radialGradient id="paint25_radial_1228_4036" cx="0" cy="0" r="1" gradientUnits="userSpaceOnUse" gradientTransform="translate(237.085 51.4301) rotate(90) scale(2.4395)">
<stop stop-color="white" stop-opacity="0"/>
<stop offset="1" stop-color="#999999" stop-opacity="0.05"/>
</radialGradient>
<radialGradient id="paint26_radial_1228_4036" cx="0" cy="0" r="1" gradientUnits="userSpaceOnUse" gradientTransform="translate(251.613 51.4301) rotate(90) scale(2.4395)">
<stop stop-color="white" stop-opacity="0"/>
<stop offset="1" stop-color="#999999" stop-opacity="0.05"/>
</radialGradient>
<radialGradient id="paint27_radial_1228_4036" cx="0" cy="0" r="1" gradientUnits="userSpaceOnUse" gradientTransform="translate(266.142 51.4301) rotate(90) scale(2.4395)">
<stop stop-color="white" stop-opacity="0"/>
<stop offset="1" stop-color="#999999" stop-opacity="0.05"/>
</radialGradient>
<radialGradient id="paint28_radial_1228_4036" cx="0" cy="0" r="1" gradientUnits="userSpaceOnUse" gradientTransform="translate(280.669 51.4301) rotate(90) scale(2.4395)">
<stop stop-color="white" stop-opacity="0"/>
<stop offset="1" stop-color="#999999" stop-opacity="0.05"/>
</radialGradient>
<radialGradient id="paint29_radial_1228_4036" cx="0" cy="0" r="1" gradientUnits="userSpaceOnUse" gradientTransform="translate(295.197 51.4301) rotate(90) scale(2.4395)">
<stop stop-color="white" stop-opacity="0"/>
<stop offset="1" stop-color="#999999" stop-opacity="0.05"/>
</radialGradient>
<radialGradient id="paint30_radial_1228_4036" cx="0" cy="0" r="1" gradientUnits="userSpaceOnUse" gradientTransform="translate(309.725 51.4301) rotate(90) scale(2.4395)">
<stop stop-color="white" stop-opacity="0"/>
<stop offset="1" stop-color="#999999" stop-opacity="0.05"/>
</radialGradient>
<radialGradient id="paint31_radial_1228_4036" cx="0" cy="0" r="1" gradientUnits="userSpaceOnUse" gradientTransform="translate(178.974 70.3439) rotate(90) scale(2.4395)">
<stop stop-color="white" stop-opacity="0"/>
<stop offset="1" stop-color="#999999" stop-opacity="0.05"/>
</radialGradient>
<radialGradient id="paint32_radial_1228_4036" cx="0" cy="0" r="1" gradientUnits="userSpaceOnUse" gradientTransform="translate(193.502 70.3439) rotate(90) scale(2.4395)">
<stop stop-color="white" stop-opacity="0"/>
<stop offset="1" stop-color="#999999" stop-opacity="0.05"/>
</radialGradient>
<radialGradient id="paint33_radial_1228_4036" cx="0" cy="0" r="1" gradientUnits="userSpaceOnUse" gradientTransform="translate(208.03 70.3439) rotate(90) scale(2.4395)">
<stop stop-color="white" stop-opacity="0"/>
<stop offset="1" stop-color="#999999" stop-opacity="0.05"/>
</radialGradient>
<radialGradient id="paint34_radial_1228_4036" cx="0" cy="0" r="1" gradientUnits="userSpaceOnUse" gradientTransform="translate(222.558 70.3439) rotate(90) scale(2.4395)">
<stop stop-color="white" stop-opacity="0"/>
<stop offset="1" stop-color="#999999" stop-opacity="0.05"/>
</radialGradient>
<radialGradient id="paint35_radial_1228_4036" cx="0" cy="0" r="1" gradientUnits="userSpaceOnUse" gradientTransform="translate(237.085 70.3439) rotate(90) scale(2.4395)">
<stop stop-color="white" stop-opacity="0"/>
<stop offset="1" stop-color="#999999" stop-opacity="0.05"/>
</radialGradient>
<radialGradient id="paint36_radial_1228_4036" cx="0" cy="0" r="1" gradientUnits="userSpaceOnUse" gradientTransform="translate(251.613 70.3439) rotate(90) scale(2.4395)">
<stop stop-color="white" stop-opacity="0"/>
<stop offset="1" stop-color="#999999" stop-opacity="0.05"/>
</radialGradient>
<radialGradient id="paint37_radial_1228_4036" cx="0" cy="0" r="1" gradientUnits="userSpaceOnUse" gradientTransform="translate(266.142 70.3439) rotate(90) scale(2.4395)">
<stop stop-color="white" stop-opacity="0"/>
<stop offset="1" stop-color="#999999" stop-opacity="0.05"/>
</radialGradient>
<radialGradient id="paint38_radial_1228_4036" cx="0" cy="0" r="1" gradientUnits="userSpaceOnUse" gradientTransform="translate(280.669 70.3439) rotate(90) scale(2.4395)">
<stop stop-color="white" stop-opacity="0"/>
<stop offset="1" stop-color="#999999" stop-opacity="0.05"/>
</radialGradient>
<radialGradient id="paint39_radial_1228_4036" cx="0" cy="0" r="1" gradientUnits="userSpaceOnUse" gradientTransform="translate(295.197 70.3439) rotate(90) scale(2.4395)">
<stop stop-color="white" stop-opacity="0"/>
<stop offset="1" stop-color="#999999" stop-opacity="0.05"/>
</radialGradient>
<radialGradient id="paint40_radial_1228_4036" cx="0" cy="0" r="1" gradientUnits="userSpaceOnUse" gradientTransform="translate(309.725 70.3439) rotate(90) scale(2.4395)">
<stop stop-color="white" stop-opacity="0"/>
<stop offset="1" stop-color="#999999" stop-opacity="0.05"/>
</radialGradient>
<radialGradient id="paint41_radial_1228_4036" cx="0" cy="0" r="1" gradientUnits="userSpaceOnUse" gradientTransform="translate(178.974 89.2576) rotate(90) scale(2.4395)">
<stop stop-color="white" stop-opacity="0"/>
<stop offset="1" stop-color="#999999" stop-opacity="0.05"/>
</radialGradient>
<radialGradient id="paint42_radial_1228_4036" cx="0" cy="0" r="1" gradientUnits="userSpaceOnUse" gradientTransform="translate(193.502 89.2576) rotate(90) scale(2.4395)">
<stop stop-color="white" stop-opacity="0"/>
<stop offset="1" stop-color="#999999" stop-opacity="0.05"/>
</radialGradient>
<radialGradient id="paint43_radial_1228_4036" cx="0" cy="0" r="1" gradientUnits="userSpaceOnUse" gradientTransform="translate(208.03 89.2576) rotate(90) scale(2.4395)">
<stop stop-color="white" stop-opacity="0"/>
<stop offset="1" stop-color="#999999" stop-opacity="0.05"/>
</radialGradient>
<radialGradient id="paint44_radial_1228_4036" cx="0" cy="0" r="1" gradientUnits="userSpaceOnUse" gradientTransform="translate(222.558 89.2576) rotate(90) scale(2.4395)">
<stop stop-color="white" stop-opacity="0"/>
<stop offset="1" stop-color="#999999" stop-opacity="0.05"/>
</radialGradient>
<radialGradient id="paint45_radial_1228_4036" cx="0" cy="0" r="1" gradientUnits="userSpaceOnUse" gradientTransform="translate(237.085 89.2576) rotate(90) scale(2.4395)">
<stop stop-color="white" stop-opacity="0"/>
<stop offset="1" stop-color="#999999" stop-opacity="0.05"/>
</radialGradient>
<radialGradient id="paint46_radial_1228_4036" cx="0" cy="0" r="1" gradientUnits="userSpaceOnUse" gradientTransform="translate(251.613 89.2576) rotate(90) scale(2.4395)">
<stop stop-color="white" stop-opacity="0"/>
<stop offset="1" stop-color="#999999" stop-opacity="0.05"/>
</radialGradient>
<linearGradient id="paint47_linear_1228_4036" x1="52.8807" y1="31.201" x2="20.25" y2="31.201" gradientUnits="userSpaceOnUse">
<stop stop-color="#F24E80"/>
<stop offset="1" stop-color="#F24E80" stop-opacity="0"/>
</linearGradient>
<linearGradient id="paint48_linear_1228_4036" x1="86.3703" y1="48.375" x2="18.5327" y2="48.375" gradientUnits="userSpaceOnUse">
<stop stop-color="#F24E80"/>
<stop offset="1" stop-color="#F24E80" stop-opacity="0"/>
</linearGradient>
<linearGradient id="paint49_linear_1228_4036" x1="109.565" y1="118.918" x2="41.7271" y2="118.918" gradientUnits="userSpaceOnUse">
<stop stop-color="#F24E80"/>
<stop offset="1" stop-color="#F24E80" stop-opacity="0"/>
</linearGradient>
<linearGradient id="paint50_linear_1228_4036" x1="149.056" y1="65.5491" x2="48.5874" y2="65.5491" gradientUnits="userSpaceOnUse">
<stop stop-color="#F24E80"/>
<stop offset="1" stop-color="#F24E80" stop-opacity="0"/>
</linearGradient>
<linearGradient id="paint51_linear_1228_4036" x1="121.577" y1="82.7232" x2="55.457" y2="82.7232" gradientUnits="userSpaceOnUse">
<stop stop-color="#F24E80"/>
<stop offset="1" stop-color="#F24E80" stop-opacity="0"/>
</linearGradient>
<linearGradient id="paint52_linear_1228_4036" x1="76.0655" y1="99.8973" x2="9.94531" y2="99.8973" gradientUnits="userSpaceOnUse">
<stop stop-color="#F24E80"/>
<stop offset="1" stop-color="#F24E80" stop-opacity="0"/>
</linearGradient>
<clipPath id="clip0_1228_4036">
<rect width="330" height="261" fill="white" transform="translate(0.5)"/>
</clipPath>
</defs>
</svg>
