<svg width="329" height="197" viewBox="0 0 329 197" fill="none" xmlns="http://www.w3.org/2000/svg">
<path d="M251.289 -0.976261C251.289 12.097 241.661 24.0086 225.926 32.6723C210.204 41.3291 188.46 46.6944 164.423 46.6944C140.386 46.6944 118.642 41.3291 102.919 32.6723C87.1847 24.0086 77.5562 12.097 77.5562 -0.976261C77.5562 -14.0496 87.1847 -25.9611 102.919 -34.6248C118.642 -43.2816 140.386 -48.6469 164.423 -48.6469C188.46 -48.6469 210.204 -43.2816 225.926 -34.6248C241.661 -25.9611 251.289 -14.0496 251.289 -0.976261Z" stroke="#F24E80" stroke-opacity="0.12" stroke-width="0.706231"/>
<path d="M260.471 3.96736C260.471 18.4054 249.815 31.553 232.419 41.1115C215.035 50.6629 190.996 56.5816 164.423 56.5816C137.851 56.5816 113.811 50.6629 96.4276 41.1115C79.0311 31.553 68.3756 18.4054 68.3756 3.96736C68.3756 -10.4707 79.0311 -23.6182 96.4276 -33.1767C113.811 -42.7282 137.851 -48.6469 164.423 -48.6469C190.996 -48.6469 215.035 -42.7282 232.419 -33.1767C249.815 -23.6182 260.471 -10.4707 260.471 3.96736Z" stroke="#F24E80" stroke-opacity="0.12" stroke-width="0.706231"/>
<path d="M268.239 9.2641C268.239 25.168 256.71 39.6393 237.909 50.1548C219.12 60.664 193.14 67.1751 164.423 67.1751C135.706 67.1751 109.726 60.664 90.9367 50.1548C72.1362 39.6393 60.607 25.168 60.607 9.2641C60.607 -6.63984 72.1362 -21.1111 90.9367 -31.6267C109.726 -42.1358 135.706 -48.6469 164.423 -48.6469C193.14 -48.6469 219.12 -42.1358 237.909 -31.6267C256.71 -21.1111 268.239 -6.63984 268.239 9.2641Z" stroke="#F24E80" stroke-opacity="0.12" stroke-width="0.706231"/>
<path d="M277.42 14.2077C277.42 31.4762 264.864 47.1835 244.402 58.5939C223.951 69.9978 195.675 77.0623 164.423 77.0623C133.171 77.0623 104.895 69.9978 84.4442 58.5939C63.982 47.1835 51.4259 31.4762 51.4259 14.2077C51.4259 -3.06082 63.982 -18.7681 84.4442 -30.1785C104.895 -41.5824 133.171 -48.6469 164.423 -48.6469C195.675 -48.6469 223.951 -41.5824 244.402 -30.1785C264.864 -18.7681 277.42 -3.06082 277.42 14.2077Z" stroke="#F24E80" stroke-opacity="0.12" stroke-width="0.706231"/>
<path d="M285.895 19.5044C285.895 38.2371 272.388 55.2684 250.393 67.6366C228.409 79.9986 198.015 87.6558 164.423 87.6558C130.831 87.6558 100.437 79.9986 78.4529 67.6366C56.4579 55.2684 42.9513 38.2371 42.9513 19.5044C42.9513 0.771755 56.4579 -16.2595 78.4529 -28.6277C100.437 -40.9897 130.831 -48.6469 164.423 -48.6469C198.015 -48.6469 228.409 -40.9897 250.393 -28.6277C272.388 -16.2595 285.895 0.771755 285.895 19.5044Z" stroke="#F24E80" stroke-opacity="0.12" stroke-width="0.706231"/>
<path d="M296.488 24.4481C296.488 44.5434 281.799 62.8109 257.885 76.0749C233.984 89.3322 200.941 97.543 164.423 97.543C127.905 97.543 94.8615 89.3322 70.9601 76.0749C47.0467 62.8109 32.3575 44.5434 32.3575 24.4481C32.3575 4.35271 47.0467 -13.9148 70.9601 -27.1788C94.8615 -40.436 127.905 -48.6469 164.423 -48.6469C200.941 -48.6469 233.984 -40.436 257.885 -27.1788C281.799 -13.9148 296.488 4.35271 296.488 24.4481Z" stroke="#F24E80" stroke-opacity="0.12" stroke-width="0.706231"/>
<path d="M305.669 30.0979C305.669 51.7547 289.951 71.4345 264.376 85.7203C238.814 99.9997 203.475 108.843 164.423 108.843C125.37 108.843 90.0316 99.9997 64.469 85.7203C38.8948 71.4345 23.1764 51.7547 23.1764 30.0979C23.1764 8.44112 38.8948 -11.2387 64.469 -25.5245C90.0316 -39.8038 125.37 -48.6469 164.423 -48.6469C203.475 -48.6469 238.814 -39.8038 264.376 -25.5245C289.951 -11.2387 305.669 8.44112 305.669 30.0979Z" stroke="#F24E80" stroke-opacity="0.12" stroke-width="0.706231"/>
<path d="M315.556 35.7478C315.556 58.965 298.731 80.0572 271.368 95.3653C244.016 110.667 206.206 120.142 164.423 120.142C122.64 120.142 84.8297 110.667 57.4778 95.3653C30.1146 80.0572 13.2892 58.965 13.2892 35.7478C13.2892 12.5305 30.1146 -8.56167 57.4778 -23.8698C84.8297 -39.1715 122.64 -48.6469 164.423 -48.6469C206.206 -48.6469 244.016 -39.1715 271.368 -23.8698C298.731 -8.56167 315.556 12.5305 315.556 35.7478Z" stroke="#F24E80" stroke-opacity="0.12" stroke-width="0.706231"/>
<path d="M327.562 41.7507C327.562 66.6242 309.395 89.2174 279.858 105.612C250.333 122.001 209.522 132.148 164.423 132.148C119.324 132.148 78.5121 122.001 48.9874 105.612C19.4507 89.2174 1.28329 66.6242 1.28329 41.7507C1.28329 16.8772 19.4507 -5.71589 48.9874 -22.111C78.5121 -38.4994 119.324 -48.6469 164.423 -48.6469C209.522 -48.6469 250.333 -38.4994 279.858 -22.111C309.395 -5.71589 327.562 16.8772 327.562 41.7507Z" stroke="#F24E80" stroke-opacity="0.12" stroke-width="0.706231"/>
<path d="M337.449 47.7537C337.449 74.2858 318.174 98.3796 286.849 115.861C255.535 133.335 212.252 144.154 164.423 144.154C116.594 144.154 73.3106 133.335 41.9968 115.861C10.6714 98.3796 -8.60392 74.2858 -8.60392 47.7537C-8.60392 21.2216 10.6714 -2.87217 41.9968 -20.3531C73.3106 -37.8276 116.594 -48.6469 164.423 -48.6469C212.252 -48.6469 255.535 -37.8276 286.849 -20.3531C318.174 -2.87217 337.449 21.2216 337.449 47.7537Z" stroke="#F24E80" stroke-opacity="0.12" stroke-width="0.706231"/>
<path d="M351.574 55.1691C351.574 83.7482 330.719 109.696 296.837 128.519C262.967 147.336 216.152 158.985 164.423 158.985C112.693 158.985 65.8787 147.336 32.0087 128.519C-1.87316 109.696 -22.7284 83.7482 -22.7284 55.1691C-22.7284 26.5901 -1.87316 0.642384 32.0087 -18.1809C65.8787 -36.9975 112.693 -48.6469 164.423 -48.6469C216.152 -48.6469 262.967 -36.9975 296.837 -18.1809C330.719 0.642384 351.574 26.5901 351.574 55.1691Z" stroke="#F24E80" stroke-opacity="0.12" stroke-width="0.706231"/>
<path d="M364.993 62.2315C364.993 92.7601 342.636 120.473 306.326 140.575C270.027 160.67 219.858 173.11 164.423 173.11C108.988 173.11 58.8182 160.67 22.52 140.575C-13.7905 120.473 -36.1469 92.7601 -36.1469 62.2315C-36.1469 31.7028 -13.7905 3.98946 22.52 -16.1121C58.8182 -36.207 108.988 -48.6469 164.423 -48.6469C219.858 -48.6469 270.027 -36.207 306.326 -16.1121C342.636 3.98946 364.993 31.7028 364.993 62.2315Z" stroke="#F24E80" stroke-opacity="0.12" stroke-width="0.706231"/>
<rect x="57.8506" y="83.3474" width="213.904" height="113.187" rx="9.5921" fill="white"/>
<rect x="58.3302" y="83.827" width="212.945" height="112.228" rx="9.11249" stroke="black" stroke-opacity="0.09" stroke-width="0.95921"/>
<rect x="31.9521" y="93.8987" width="266.66" height="92.0842" rx="9.5921" fill="white"/>
<rect x="32.4318" y="94.3783" width="265.701" height="91.1249" rx="9.11249" stroke="black" stroke-opacity="0.09" stroke-width="0.95921"/>
<rect x="43.4624" y="107.328" width="6.71447" height="6.71447" fill="#F24E80" fill-opacity="0.16"/>
<rect x="43.4624" y="126.512" width="6.71447" height="6.71447" fill="#F24E80" fill-opacity="0.16"/>
<rect x="43.4624" y="145.696" width="6.71447" height="6.71447" fill="#F24E80" fill-opacity="0.16"/>
<rect x="43.4624" y="164.88" width="6.71447" height="6.71447" fill="#F24E80" fill-opacity="0.16"/>
<rect x="59.769" y="104.45" width="13.4289" height="13.4289" rx="1.91842" fill="#F24E80" fill-opacity="0.16"/>
<rect x="59.769" y="123.634" width="13.4289" height="13.4289" rx="1.91842" fill="#F24E80" fill-opacity="0.16"/>
<rect x="59.769" y="142.818" width="13.4289" height="13.4289" rx="1.91842" fill="#F24E80" fill-opacity="0.16"/>
<rect x="59.769" y="162.003" width="13.4289" height="13.4289" rx="1.91842" fill="#F24E80" fill-opacity="0.16"/>
<rect x="82.79" y="107.328" width="60.4302" height="7.67368" rx="3.83684" fill="#F24E80" fill-opacity="0.16"/>
<rect x="82.79" y="145.696" width="60.4302" height="7.67368" rx="3.83684" fill="#F24E80" fill-opacity="0.16"/>
<rect x="82.79" y="126.512" width="40.2868" height="7.67368" rx="3.83684" fill="#F24E80" fill-opacity="0.16"/>
<rect x="82.79" y="164.88" width="40.2868" height="7.67368" rx="3.83684" fill="#F24E80" fill-opacity="0.16"/>
<rect x="126.914" y="126.512" width="112.228" height="7.67368" rx="3.83684" fill="#F24E80" fill-opacity="0.16"/>
<rect x="126.914" y="164.88" width="112.228" height="7.67368" rx="3.83684" fill="#F24E80" fill-opacity="0.16"/>
<rect x="243.938" y="126.512" width="44.1237" height="7.67368" rx="3.83684" fill="#F24E80" fill-opacity="0.16"/>
<rect x="243.938" y="164.88" width="44.1237" height="7.67368" rx="3.83684" fill="#F24E80" fill-opacity="0.16"/>
<rect x="148.017" y="107.328" width="79.6144" height="7.67368" rx="3.83684" fill="#F24E80" fill-opacity="0.16"/>
<rect x="148.017" y="145.696" width="79.6144" height="7.67368" rx="3.83684" fill="#F24E80" fill-opacity="0.16"/>
<rect x="232.427" y="107.328" width="55.6342" height="7.67368" rx="3.83684" fill="#F24E80" fill-opacity="0.16"/>
<rect x="232.427" y="145.696" width="55.6342" height="7.67368" rx="3.83684" fill="#F24E80" fill-opacity="0.16"/>
<rect x="97.1782" y="68" width="136.89" height="39.3276" rx="7.56302" fill="white"/>
<rect x="97.5564" y="68.3782" width="136.134" height="38.5713" rx="7.18487" stroke="black" stroke-opacity="0.05" stroke-width="0.756302"/>
<g clip-path="url(#clip0_1237_735)">
<rect x="100.204" y="71.0251" width="130.84" height="33.2772" rx="6.80672" fill="white"/>
<path d="M130.516 83.4017L131.68 85.5044L127.184 87.3806L131.713 89.2245L130.484 91.3919L126.569 88.5452L127.087 93.4298H124.661L125.146 88.5452L121.232 91.4242L119.97 89.2245L124.467 87.3483L119.97 85.5367L121.167 83.3693L125.178 86.2484L124.661 81.3314H127.119L126.569 86.2484L130.516 83.4017ZM146.248 83.4017L147.413 85.5044L142.916 87.3806L147.445 89.2245L146.216 91.3919L142.301 88.5452L142.819 93.4298H140.393L140.878 88.5452L136.964 91.4242L135.702 89.2245L140.199 87.3483L135.702 85.5367L136.899 83.3693L140.91 86.2484L140.393 81.3314H142.851L142.301 86.2484L146.248 83.4017ZM161.98 83.4017L163.145 85.5044L158.648 87.3806L163.177 89.2245L161.948 91.3919L158.034 88.5452L158.551 93.4298H156.125L156.61 88.5452L152.696 91.4242L151.434 89.2245L155.931 87.3483L151.434 85.5367L152.631 83.3693L156.643 86.2484L156.125 81.3314H158.584L158.034 86.2484L161.98 83.4017ZM177.712 83.4017L178.877 85.5044L174.38 87.3806L178.909 89.2245L177.68 91.3919L173.766 88.5452L174.283 93.4298H171.857L172.342 88.5452L168.428 91.4242L167.167 89.2245L171.663 87.3483L167.167 85.5367L168.364 83.3693L172.375 86.2484L171.857 81.3314H174.316L173.766 86.2484L177.712 83.4017ZM193.445 83.4017L194.609 85.5044L190.113 87.3806L194.641 89.2245L193.412 91.3919L189.498 88.5452L190.016 93.4298H187.589L188.075 88.5452L184.16 91.4242L182.899 89.2245L187.395 87.3483L182.899 85.5367L184.096 83.3693L188.107 86.2484L187.589 81.3314H190.048L189.498 86.2484L193.445 83.4017ZM209.177 83.4017L210.341 85.5044L205.845 87.3806L210.374 89.2245L209.144 91.3919L205.23 88.5452L205.748 93.4298H203.322L203.807 88.5452L199.893 91.4242L198.631 89.2245L203.127 87.3483L198.631 85.5367L199.828 83.3693L203.839 86.2484L203.322 81.3314H205.78L205.23 86.2484L209.177 83.4017Z" fill="#F24E80" fill-opacity="0.8"/>
</g>
<rect x="100.582" y="71.4033" width="130.084" height="32.5209" rx="6.42857" stroke="black" stroke-opacity="0.05" stroke-width="0.756302"/>
<path d="M230.939 96.7924V77.4832C230.939 76.8202 231.477 76.2828 232.14 76.2828C232.803 76.2828 233.34 76.8202 233.34 77.4832V96.7924C234.739 105.699 227.512 107.08 223.821 106.559L187.103 106.364V104.02L210.61 104.243H223.821C229.066 104.633 231.134 99.3317 230.939 96.7924Z" fill="url(#paint0_linear_1237_735)"/>
<defs>
<linearGradient id="paint0_linear_1237_735" x1="229.26" y1="105.582" x2="190.794" y2="105.582" gradientUnits="userSpaceOnUse">
<stop stop-color="#F24E80" stop-opacity="0.45"/>
<stop offset="1" stop-color="#F24E80" stop-opacity="0"/>
</linearGradient>
<clipPath id="clip0_1237_735">
<rect x="100.204" y="71.0251" width="130.84" height="33.2772" rx="6.80672" fill="white"/>
</clipPath>
</defs>
</svg>
