<svg width="690" height="806" viewBox="0 0 690 806" fill="none" xmlns="http://www.w3.org/2000/svg">
<g opacity="0.8">
<g clip-path="url(#clip0_1303_1152)">
<path d="M1.5 -6L45.5 16" stroke="#FAB8CC" stroke-width="3"/>
<path d="M1.5 4L45.5 26" stroke="#FAB8CC" stroke-width="3"/>
<path d="M1.5 14L45.5 36" stroke="#FAB8CC" stroke-width="3"/>
<path d="M1.5 24L45.5 46" stroke="#FAB8CC" stroke-width="3"/>
<path d="M1.5 34L45.5 56" stroke="#FAB8CC" stroke-width="3"/>
<path d="M1.5 44L45.5 66" stroke="#FAB8CC" stroke-width="3"/>
<path d="M1.5 54L45.5 76" stroke="#FAB8CC" stroke-width="3"/>
<path d="M1.5 64L45.5 86" stroke="#FAB8CC" stroke-width="3"/>
<path d="M1.5 74L45.5 96" stroke="#FAB8CC" stroke-width="3"/>
<path d="M1.5 84L45.5 106" stroke="#FAB8CC" stroke-width="3"/>
<path d="M1.5 94L45.5 116" stroke="#FAB8CC" stroke-width="3"/>
<path d="M1.5 104L45.5 126" stroke="#FAB8CC" stroke-width="3"/>
<path d="M1.5 114L45.5 136" stroke="#FAB8CC" stroke-width="3"/>
<path d="M1.5 124L45.5 146" stroke="#FAB8CC" stroke-width="3"/>
<path d="M1.5 134L45.5 156" stroke="#FAB8CC" stroke-width="3"/>
<path d="M1.5 144L45.5 166" stroke="#FAB8CC" stroke-width="3"/>
<path d="M1.5 154L45.5 176" stroke="#FAB8CC" stroke-width="3"/>
<path d="M1.5 164L45.5 186" stroke="#FAB8CC" stroke-width="3"/>
<path d="M1.5 174L45.5 196" stroke="#FAB8CC" stroke-width="3"/>
<path d="M1.5 184L45.5 206" stroke="#FAB8CC" stroke-width="3"/>
<path d="M1.5 194L45.5 216" stroke="#FAB8CC" stroke-width="3"/>
<path d="M1.5 204L45.5 226" stroke="#FAB8CC" stroke-width="3"/>
<path d="M1.5 214L45.5 236" stroke="#FAB8CC" stroke-width="3"/>
<path d="M1.5 224L45.5 246" stroke="#FAB8CC" stroke-width="3"/>
<path d="M1.5 234L45.5 256" stroke="#FAB8CC" stroke-width="3"/>
<path d="M1.5 244L45.5 266" stroke="#FAB8CC" stroke-width="3"/>
<path d="M1.5 254L45.5 276" stroke="#FAB8CC" stroke-width="3"/>
<path d="M1.5 264L45.5 286" stroke="#FAB8CC" stroke-width="3"/>
<path d="M1.5 274L45.5 296" stroke="#FAB8CC" stroke-width="3"/>
<path d="M1.5 284L45.5 306" stroke="#FAB8CC" stroke-width="3"/>
<path d="M1.5 294L45.5 316" stroke="#FAB8CC" stroke-width="3"/>
<path d="M1.5 304L45.5 326" stroke="#FAB8CC" stroke-width="3"/>
<path d="M1.5 314L45.5 336" stroke="#FAB8CC" stroke-width="3"/>
<path d="M1.5 324L45.5 346" stroke="#FAB8CC" stroke-width="3"/>
<path d="M1.5 334L45.5 356" stroke="#FAB8CC" stroke-width="3"/>
<path d="M1.5 344L45.5 366" stroke="#FAB8CC" stroke-width="3"/>
<path d="M1.5 354L45.5 376" stroke="#FAB8CC" stroke-width="3"/>
<path d="M1.5 364L45.5 386" stroke="#FAB8CC" stroke-width="3"/>
<path d="M1.5 374L45.5 396" stroke="#FAB8CC" stroke-width="3"/>
<path d="M1.5 384L45.5 406" stroke="#FAB8CC" stroke-width="3"/>
<path d="M1.5 394L45.5 416" stroke="#FAB8CC" stroke-width="3"/>
<path d="M1.5 404L45.5 426" stroke="#FAB8CC" stroke-width="3"/>
<path d="M1.5 414L45.5 436" stroke="#FAB8CC" stroke-width="3"/>
<path d="M1.5 424L45.5 446" stroke="#FAB8CC" stroke-width="3"/>
<path d="M1.5 434L45.5 456" stroke="#FAB8CC" stroke-width="3"/>
<path d="M1.5 444L45.5 466" stroke="#FAB8CC" stroke-width="3"/>
<path d="M1.5 454L45.5 476" stroke="#FAB8CC" stroke-width="3"/>
<path d="M1.5 464L45.5 486" stroke="#FAB8CC" stroke-width="3"/>
<path d="M1.5 474L45.5 496" stroke="#FAB8CC" stroke-width="3"/>
<path d="M1.5 484L45.5 506" stroke="#FAB8CC" stroke-width="3"/>
<path d="M1.5 494L45.5 516" stroke="#FAB8CC" stroke-width="3"/>
<path d="M1.5 504L45.5 526" stroke="#FAB8CC" stroke-width="3"/>
<path d="M1.5 514L45.5 536" stroke="#FAB8CC" stroke-width="3"/>
<path d="M1.5 524L45.5 546" stroke="#FAB8CC" stroke-width="3"/>
<path d="M1.5 534L45.5 556" stroke="#FAB8CC" stroke-width="3"/>
<path d="M1.5 544L45.5 566" stroke="#FAB8CC" stroke-width="3"/>
<path d="M1.5 554L45.5 576" stroke="#FAB8CC" stroke-width="3"/>
<path d="M1.5 564L45.5 586" stroke="#FAB8CC" stroke-width="3"/>
<path d="M1.5 574L45.5 596" stroke="#FAB8CC" stroke-width="3"/>
<path d="M1.5 584L45.5 606" stroke="#FAB8CC" stroke-width="3"/>
<path d="M1.5 594L45.5 616" stroke="#FAB8CC" stroke-width="3"/>
<path d="M1.5 604L45.5 626" stroke="#FAB8CC" stroke-width="3"/>
<path d="M1.5 614L45.5 636" stroke="#FAB8CC" stroke-width="3"/>
<path d="M1.5 624L45.5 646" stroke="#FAB8CC" stroke-width="3"/>
<path d="M1.5 634L45.5 656" stroke="#FAB8CC" stroke-width="3"/>
<path d="M1.5 644L45.5 666" stroke="#FAB8CC" stroke-width="3"/>
<path d="M1.5 654L45.5 676" stroke="#FAB8CC" stroke-width="3"/>
<path d="M1.5 664L45.5 686" stroke="#FAB8CC" stroke-width="3"/>
<path d="M1.5 674L45.5 696" stroke="#FAB8CC" stroke-width="3"/>
<path d="M1.5 684L45.5 706" stroke="#FAB8CC" stroke-width="3"/>
<path d="M1.5 694L45.5 716" stroke="#FAB8CC" stroke-width="3"/>
<path d="M1.5 704L45.5 726" stroke="#FAB8CC" stroke-width="3"/>
<path d="M1.5 714L45.5 736" stroke="#FAB8CC" stroke-width="3"/>
<path d="M1.5 724L45.5 746" stroke="#FAB8CC" stroke-width="3"/>
<path d="M1.5 734L45.5 756" stroke="#FAB8CC" stroke-width="3"/>
<path d="M1.5 744L45.5 766" stroke="#FAB8CC" stroke-width="3"/>
<path d="M1.5 754L45.5 776" stroke="#FAB8CC" stroke-width="3"/>
<path d="M1.5 764L45.5 786" stroke="#FAB8CC" stroke-width="3"/>
<path d="M1.5 774L45.5 796" stroke="#FAB8CC" stroke-width="3"/>
<path d="M1.5 784L45.5 806" stroke="#FAB8CC" stroke-width="3"/>
<path d="M1.5 794L45.5 816" stroke="#FAB8CC" stroke-width="3"/>
<path d="M1.5 804L45.5 826" stroke="#FAB8CC" stroke-width="3"/>
</g>
<rect x="1" y="-2" width="35" height="814" stroke="#FAB8CC" stroke-width="2"/>
</g>
<g opacity="0.8">
<g clip-path="url(#clip1_1303_1152)">
<path d="M654.5 -6L698.5 16" stroke="#FAB8CC" stroke-width="3"/>
<path d="M654.5 4L698.5 26" stroke="#FAB8CC" stroke-width="3"/>
<path d="M654.5 14L698.5 36" stroke="#FAB8CC" stroke-width="3"/>
<path d="M654.5 24L698.5 46" stroke="#FAB8CC" stroke-width="3"/>
<path d="M654.5 34L698.5 56" stroke="#FAB8CC" stroke-width="3"/>
<path d="M654.5 44L698.5 66" stroke="#FAB8CC" stroke-width="3"/>
<path d="M654.5 54L698.5 76" stroke="#FAB8CC" stroke-width="3"/>
<path d="M654.5 64L698.5 86" stroke="#FAB8CC" stroke-width="3"/>
<path d="M654.5 74L698.5 96" stroke="#FAB8CC" stroke-width="3"/>
<path d="M654.5 84L698.5 106" stroke="#FAB8CC" stroke-width="3"/>
<path d="M654.5 94L698.5 116" stroke="#FAB8CC" stroke-width="3"/>
<path d="M654.5 104L698.5 126" stroke="#FAB8CC" stroke-width="3"/>
<path d="M654.5 114L698.5 136" stroke="#FAB8CC" stroke-width="3"/>
<path d="M654.5 124L698.5 146" stroke="#FAB8CC" stroke-width="3"/>
<path d="M654.5 134L698.5 156" stroke="#FAB8CC" stroke-width="3"/>
<path d="M654.5 144L698.5 166" stroke="#FAB8CC" stroke-width="3"/>
<path d="M654.5 154L698.5 176" stroke="#FAB8CC" stroke-width="3"/>
<path d="M654.5 164L698.5 186" stroke="#FAB8CC" stroke-width="3"/>
<path d="M654.5 174L698.5 196" stroke="#FAB8CC" stroke-width="3"/>
<path d="M654.5 184L698.5 206" stroke="#FAB8CC" stroke-width="3"/>
<path d="M654.5 194L698.5 216" stroke="#FAB8CC" stroke-width="3"/>
<path d="M654.5 204L698.5 226" stroke="#FAB8CC" stroke-width="3"/>
<path d="M654.5 214L698.5 236" stroke="#FAB8CC" stroke-width="3"/>
<path d="M654.5 224L698.5 246" stroke="#FAB8CC" stroke-width="3"/>
<path d="M654.5 234L698.5 256" stroke="#FAB8CC" stroke-width="3"/>
<path d="M654.5 244L698.5 266" stroke="#FAB8CC" stroke-width="3"/>
<path d="M654.5 254L698.5 276" stroke="#FAB8CC" stroke-width="3"/>
<path d="M654.5 264L698.5 286" stroke="#FAB8CC" stroke-width="3"/>
<path d="M654.5 274L698.5 296" stroke="#FAB8CC" stroke-width="3"/>
<path d="M654.5 284L698.5 306" stroke="#FAB8CC" stroke-width="3"/>
<path d="M654.5 294L698.5 316" stroke="#FAB8CC" stroke-width="3"/>
<path d="M654.5 304L698.5 326" stroke="#FAB8CC" stroke-width="3"/>
<path d="M654.5 314L698.5 336" stroke="#FAB8CC" stroke-width="3"/>
<path d="M654.5 324L698.5 346" stroke="#FAB8CC" stroke-width="3"/>
<path d="M654.5 334L698.5 356" stroke="#FAB8CC" stroke-width="3"/>
<path d="M654.5 344L698.5 366" stroke="#FAB8CC" stroke-width="3"/>
<path d="M654.5 354L698.5 376" stroke="#FAB8CC" stroke-width="3"/>
<path d="M654.5 364L698.5 386" stroke="#FAB8CC" stroke-width="3"/>
<path d="M654.5 374L698.5 396" stroke="#FAB8CC" stroke-width="3"/>
<path d="M654.5 384L698.5 406" stroke="#FAB8CC" stroke-width="3"/>
<path d="M654.5 394L698.5 416" stroke="#FAB8CC" stroke-width="3"/>
<path d="M654.5 404L698.5 426" stroke="#FAB8CC" stroke-width="3"/>
<path d="M654.5 414L698.5 436" stroke="#FAB8CC" stroke-width="3"/>
<path d="M654.5 424L698.5 446" stroke="#FAB8CC" stroke-width="3"/>
<path d="M654.5 434L698.5 456" stroke="#FAB8CC" stroke-width="3"/>
<path d="M654.5 444L698.5 466" stroke="#FAB8CC" stroke-width="3"/>
<path d="M654.5 454L698.5 476" stroke="#FAB8CC" stroke-width="3"/>
<path d="M654.5 464L698.5 486" stroke="#FAB8CC" stroke-width="3"/>
<path d="M654.5 474L698.5 496" stroke="#FAB8CC" stroke-width="3"/>
<path d="M654.5 484L698.5 506" stroke="#FAB8CC" stroke-width="3"/>
<path d="M654.5 494L698.5 516" stroke="#FAB8CC" stroke-width="3"/>
<path d="M654.5 504L698.5 526" stroke="#FAB8CC" stroke-width="3"/>
<path d="M654.5 514L698.5 536" stroke="#FAB8CC" stroke-width="3"/>
<path d="M654.5 524L698.5 546" stroke="#FAB8CC" stroke-width="3"/>
<path d="M654.5 534L698.5 556" stroke="#FAB8CC" stroke-width="3"/>
<path d="M654.5 544L698.5 566" stroke="#FAB8CC" stroke-width="3"/>
<path d="M654.5 554L698.5 576" stroke="#FAB8CC" stroke-width="3"/>
<path d="M654.5 564L698.5 586" stroke="#FAB8CC" stroke-width="3"/>
<path d="M654.5 574L698.5 596" stroke="#FAB8CC" stroke-width="3"/>
<path d="M654.5 584L698.5 606" stroke="#FAB8CC" stroke-width="3"/>
<path d="M654.5 594L698.5 616" stroke="#FAB8CC" stroke-width="3"/>
<path d="M654.5 604L698.5 626" stroke="#FAB8CC" stroke-width="3"/>
<path d="M654.5 614L698.5 636" stroke="#FAB8CC" stroke-width="3"/>
<path d="M654.5 624L698.5 646" stroke="#FAB8CC" stroke-width="3"/>
<path d="M654.5 634L698.5 656" stroke="#FAB8CC" stroke-width="3"/>
<path d="M654.5 644L698.5 666" stroke="#FAB8CC" stroke-width="3"/>
<path d="M654.5 654L698.5 676" stroke="#FAB8CC" stroke-width="3"/>
<path d="M654.5 664L698.5 686" stroke="#FAB8CC" stroke-width="3"/>
<path d="M654.5 674L698.5 696" stroke="#FAB8CC" stroke-width="3"/>
<path d="M654.5 684L698.5 706" stroke="#FAB8CC" stroke-width="3"/>
<path d="M654.5 694L698.5 716" stroke="#FAB8CC" stroke-width="3"/>
<path d="M654.5 704L698.5 726" stroke="#FAB8CC" stroke-width="3"/>
<path d="M654.5 714L698.5 736" stroke="#FAB8CC" stroke-width="3"/>
<path d="M654.5 724L698.5 746" stroke="#FAB8CC" stroke-width="3"/>
<path d="M654.5 734L698.5 756" stroke="#FAB8CC" stroke-width="3"/>
<path d="M654.5 744L698.5 766" stroke="#FAB8CC" stroke-width="3"/>
<path d="M654.5 754L698.5 776" stroke="#FAB8CC" stroke-width="3"/>
<path d="M654.5 764L698.5 786" stroke="#FAB8CC" stroke-width="3"/>
<path d="M654.5 774L698.5 796" stroke="#FAB8CC" stroke-width="3"/>
<path d="M654.5 784L698.5 806" stroke="#FAB8CC" stroke-width="3"/>
<path d="M654.5 794L698.5 816" stroke="#FAB8CC" stroke-width="3"/>
<path d="M654.5 804L698.5 826" stroke="#FAB8CC" stroke-width="3"/>
</g>
<rect x="654" y="-2" width="35" height="811" stroke="#FAB8CC" stroke-width="2"/>
</g>
<defs>
<clipPath id="clip0_1303_1152">
<rect y="-3" width="37" height="816" fill="white"/>
</clipPath>
<clipPath id="clip1_1303_1152">
<rect x="653" y="-3" width="37" height="813" fill="white"/>
</clipPath>
</defs>
</svg>
