<svg width="355" height="336" viewBox="0 0 355 336" fill="none" xmlns="http://www.w3.org/2000/svg">
<path d="M96.6503 1.1232C79.5831 2.81131 65.019 10.5219 54.096 23.6617C49.9089 28.6804 45.5397 35.7066 43.6736 40.4515C43.0365 42.094 41.8076 46.109 40.9429 49.3483C38.0301 60.3438 36.5737 63.0356 31.3853 67.3244C25.8327 71.8412 23.8302 76.0386 23.8302 82.9736C23.8302 92.0528 29.4282 100.813 38.8038 106.47C44.5839 109.983 53.6864 112.949 61.2415 113.724L64.5639 114.089L61.2415 115.778C57.0999 117.922 52.5941 120.659 49.5903 122.941L47.2691 124.674L38.4397 125.587C33.6154 126.089 29.4737 126.682 29.2917 126.91C29.1096 127.092 29.1551 132.157 29.4282 138.088L29.8378 148.901L28.1994 150.863C25.9237 153.509 21.9641 161.676 19.7795 168.383C17.0488 176.504 16.002 183.211 16.002 192.29C15.9565 200.594 16.6847 205.338 18.5052 209.353C20.5533 213.825 24.7404 216.881 28.7455 216.927C29.7923 216.927 30.6571 217.064 30.6571 217.292C30.6571 217.475 30.0654 219.756 29.2917 222.356C28.5635 224.957 28.0628 227.284 28.1994 227.466C28.3359 227.694 28.791 227.877 29.2462 227.877C29.8833 227.877 30.8846 224.82 35.1628 209.718C37.9846 199.772 40.4878 190.967 40.7153 190.146L41.1705 188.731L46.0403 188.412C48.7255 188.229 52.0024 187.91 53.3223 187.727C55.0063 187.499 55.689 187.591 55.5069 187.91C49.8178 201.689 47.0871 215.969 48.8621 222.493C50.1364 227.056 54.2781 230.569 59.5575 231.573C68.5235 233.215 84.8625 226.417 97.5605 215.786C100.928 212.912 110.941 203.012 113.262 200.183C113.945 199.362 114.628 198.677 114.81 198.677C114.992 198.677 115.356 199.27 115.629 200.046C116.266 201.734 117.222 201.78 119.042 200.274C119.771 199.635 120.544 199.134 120.772 199.134C120.954 199.134 123.73 202.054 126.962 205.567L132.833 212L133.151 215.056C133.333 216.699 133.789 221.353 134.198 225.368C135.108 234.721 135.29 235.496 136.155 235.861C137.475 236.363 137.612 235.359 136.929 230.158C135.518 218.706 135.108 211.68 135.108 196.852V181.568L137.02 177.234C140.297 169.706 141.025 166.284 141.025 157.615C141.025 149.403 140.57 146.802 138.021 140.597C136.201 136.217 132.241 130.377 129.01 127.412L126.324 124.902L133.197 124.629C144.757 124.218 152.494 121.526 158.456 115.869C164.464 110.211 166.649 103.14 164.601 95.8853C163.963 93.5584 163.326 92.5547 160.095 89.0872C154.315 82.9279 153.951 80.5555 156.317 65.8187C157.637 57.7888 157.728 46.839 156.545 41.2728C154.952 33.7903 151.675 26.7186 146.851 20.3767C136.337 6.59814 116.903 -0.838654 96.6503 1.1232ZM113.718 3.67818C135.973 7.14563 151.994 23.4792 154.952 45.6983C155.635 50.7627 155.316 56.8307 153.769 68.1912C151.903 81.6048 152.312 83.7036 157.956 89.726C160.914 92.9197 161.87 94.2428 162.416 96.1134C164.464 103.14 161.688 110.941 155.225 116.006C153.814 117.146 152.54 117.968 152.449 117.876C152.358 117.785 152.449 116.644 152.631 115.413C153.313 110.896 152.221 106.425 148.307 97.8472C146.987 94.9728 145.531 91.4597 145.076 90.091C144.029 86.8516 144.029 81.7417 145.076 79.6886C145.94 78.0005 145.758 76.8599 144.712 76.8599C143.483 76.8599 142.481 79.643 142.254 83.5667C142.026 88.0835 142.846 91.2316 146.532 99.3071C150.765 108.523 151.538 113.177 149.627 117.922C149.081 119.245 148.489 119.838 147.26 120.34C144.393 121.481 138.977 122.667 138.567 122.211C137.885 121.481 136.292 114.591 135.746 110.166C135.427 107.428 135.381 104.28 135.609 101.497C135.791 99.1246 135.973 96.9347 136.019 96.7065C136.019 96.4328 135.564 96.2047 135.017 96.1134C133.971 95.9765 133.925 96.0678 133.288 102.41C132.833 106.972 134.335 117.739 136.11 122.302C136.383 122.986 135.973 123.032 130.739 122.849C127.644 122.713 124.14 122.348 122.957 122.028C120.954 121.526 120.772 121.344 119.998 119.108C119.361 117.329 119.179 115.458 119.225 110.85C119.27 105.421 119.361 104.554 120.726 100.585C121.5 98.2121 123.776 93.1478 125.778 89.361C127.735 85.5285 129.237 82.2892 129.101 82.1523C128.919 82.0154 128.464 81.8786 128.054 81.8786C126.552 81.8786 119.998 95.1097 117.996 102.09C116.448 107.656 116.357 115.641 117.859 119.428C118.132 120.249 118.087 120.249 116.357 119.382C110.941 116.599 106.572 110.075 106.527 104.6C106.481 100.402 107.71 97.4365 112.034 91.0035C116.767 84.0229 118.269 81.0573 118.906 77.5443C119.68 73.0274 118.496 69.3775 115.128 65.5906L113.217 63.4919L114.036 59.7963C114.491 57.7432 114.992 53.4545 115.174 50.2608L115.447 44.3752L114.355 44.5577C113.308 44.6946 113.262 44.8315 112.989 50.0327C112.807 52.9526 112.352 56.922 111.943 58.7926L111.169 62.2144L107.437 60.3894C105.434 59.4313 103.477 58.6101 103.113 58.6101C102.339 58.6101 102.385 58.5645 104.569 52.8158C106.709 47.2952 107.619 43.0521 107.892 36.8928C108.165 31.0985 107.892 30.5054 105.616 32.1935C99.7451 36.4822 94.0561 42.8696 90.0055 49.7589C88.5946 52.1314 87.3202 54.002 87.1837 53.9564C87.0016 53.8651 85.6818 53.2264 84.2709 52.4964C82.8145 51.812 81.6311 51.0364 81.6311 50.8083C81.6311 49.1658 85.9093 42.8696 90.2785 38.0334C93.0093 34.9766 93.3279 34.4291 92.7362 33.9272C92.1445 33.471 91.7349 33.6991 89.9599 35.3872C87.0016 38.2616 83.4516 42.824 81.2215 46.6108C80.1292 48.4358 79.1735 49.9414 79.0824 49.9414C78.9004 49.9414 70.9812 47.1127 70.7991 46.9758C70.7081 46.8846 71.4818 45.1965 72.4831 43.189C76.1696 35.8434 82.4959 28.7717 89.3683 24.3461C94.6933 20.8786 94.9663 20.6961 94.4657 20.1942C93.692 19.4186 91.917 20.1486 87.6388 23.023C79.401 28.5435 73.3023 35.9347 68.6145 46.2002C68.5235 46.3827 60.6498 44.6033 60.3768 44.284C60.0127 43.9646 63.6537 37.3491 65.8383 34.4291C66.8396 33.0603 69.1152 30.4598 70.8447 28.6348C73.803 25.5779 74.3036 24.3917 72.7107 24.3917C71.6184 24.3917 65.4742 31.0072 62.7434 35.0678C61.378 37.1666 59.7396 40.0409 59.0569 41.4553L57.8281 44.1015L55.78 43.8277C54.6877 43.6909 53.0492 43.554 52.23 43.554C51.3653 43.554 50.6826 43.3259 50.6826 43.0977C50.6826 42.1853 55.8255 34.1553 59.5575 29.1823C61.6511 26.3992 65.2921 22.2473 67.7043 19.8749C70.1165 17.548 71.937 15.4493 71.8004 15.2212C71.2088 14.2631 69.7068 15.0387 66.6575 17.8218C61.0139 23.0686 53.3223 33.2885 48.8166 41.6378C47.0871 44.8315 47.2691 45.379 50.1364 45.379C50.9101 45.379 51.5928 45.4702 51.5928 45.6071C51.5928 45.744 50.8646 47.3408 49.9544 49.1202C42.3993 64.1306 41.1705 76.6774 46.1313 86.806C49.6813 93.9234 54.9153 97.8928 62.971 99.4896C68.6601 100.585 71.1177 102.09 72.0735 104.919C72.7107 106.835 72.1645 108.25 69.9799 110.348C68.8876 111.443 67.8408 111.991 67.0671 111.991H65.7928V107.839C65.7928 103.55 65.4287 102.546 64.0633 103.048C63.4261 103.276 63.3351 103.733 63.6082 105.466C63.7447 106.653 63.7447 108.615 63.6082 109.846L63.2896 112.082L60.7409 111.763C59.33 111.626 56.7813 111.17 55.0973 110.759L51.9569 110.075L52.2755 107.337C52.4576 105.877 52.8672 103.641 53.1858 102.41C53.823 100.037 53.7319 99.6721 52.4576 99.6721C51.4563 99.6721 51.0922 100.904 49.9999 107.52L49.7268 109.208L48.0429 108.615C47.1326 108.25 45.1756 107.474 43.6736 106.79L41.0339 105.603L41.216 101.178C41.3525 97.7103 41.6711 96.0678 42.6269 93.7409C43.4461 91.7791 43.6736 90.6385 43.3551 90.3191C41.8987 88.8591 39.3955 94.5166 38.9859 100.22C38.8493 102.181 38.5762 103.778 38.4397 103.778C38.2577 103.778 36.8923 102.775 35.4359 101.588C33.0237 99.6721 32.6596 99.1703 32.432 97.3909C31.5673 91.4597 33.8884 83.0192 37.9846 77.0424C39.1224 75.3543 39.2134 75.0805 38.5762 74.5786C37.575 73.7118 36.073 75.3086 33.8429 79.643C31.7038 83.7492 30.2019 89.1785 30.2019 92.6916C30.2019 94.0147 30.0199 95.1097 29.7923 95.1097C29.3372 95.1097 27.2891 90.5928 26.6064 88.0379C25.7417 84.8898 25.9693 79.0499 27.0616 76.1299C28.0628 73.4837 29.4282 71.8868 35.6179 66.275C38.7583 63.4007 40.5788 59.4769 43.173 49.7589C44.3108 45.5158 45.9493 40.5428 46.7685 38.7178C51.1832 29.1823 60.1492 18.7799 69.1152 12.8031C73.894 9.60936 76.3972 8.3775 81.9042 6.46127C92.3266 2.81131 102.567 1.94444 113.718 3.67818ZM105.753 36.8928C105.753 41.6834 103.614 50.4889 101.156 55.6901C100.428 57.1957 99.8362 58.6557 99.8362 58.9294C99.8362 59.1576 101.338 59.9332 103.159 60.6632C114.309 64.9519 118.815 71.7043 116.084 79.8711C115.629 81.1942 114.127 83.9317 112.716 86.0304C111.305 88.1291 109.257 91.186 108.165 92.8284C102.84 100.721 102.977 108.113 108.529 115.458L110.714 118.378L108.575 119.975C96.7868 128.644 78.6273 129.282 69.8434 121.298C68.1139 119.747 66.1569 116.781 66.1569 115.732C66.1569 115.549 66.9306 114.911 67.8863 114.409C70.8902 112.675 73.3479 110.257 74.1671 108.113C74.8953 106.151 74.8953 105.968 74.1216 104.006C72.8472 100.63 69.7068 98.7596 63.4716 97.5734C54.4146 95.8853 48.6345 90.091 46.1313 80.2817C44.0377 72.1149 45.6762 63.2182 51.6384 50.5345L53.8685 45.6983L56.9633 46.0177C58.6473 46.2002 61.9697 46.839 64.3364 47.4321C66.703 48.0708 69.1607 48.6639 69.7524 48.8008C72.6196 49.4852 76.9433 51.2189 82.4504 53.8195L88.458 56.7395L89.0952 55.7357C89.4138 55.1882 90.4151 53.3633 91.3253 51.7208C92.2356 50.0783 93.9195 47.4321 95.1029 45.7896C97.333 42.7327 104.752 34.8853 105.389 34.8853C105.571 34.8853 105.753 35.7978 105.753 36.8928ZM64.7915 118.378C65.7472 120.659 69.7524 124.264 73.2113 125.906C83.8613 131.016 98.6073 129.374 109.53 121.846C112.534 119.793 112.625 119.747 113.991 120.431C114.719 120.842 115.219 121.344 115.083 121.572C114.628 122.348 108.711 126.043 104.979 127.914C100.155 130.332 94.2836 132.294 89.1407 133.206C84.817 133.936 83.8157 134.438 84.726 135.35C85.1356 135.761 86.41 135.67 90.142 134.894C99.199 133.115 106.527 130.058 113.991 124.948L117.768 122.393L120.681 123.899C126.507 126.864 132.924 134.21 135.837 141.145C142.709 157.478 138.84 175.591 125.141 191.469C122.001 195.119 121.227 195.666 121.227 194.206C121.227 191.651 115.219 182.389 111.76 179.652C109.303 177.69 108.984 177.553 108.256 178.146C107.755 178.557 108.256 179.287 111.123 182.161C114.946 185.994 117.131 189.324 118.769 193.841L119.816 196.761L118.724 197.765L117.677 198.769L115.72 194.936C112.216 188.184 104.706 181.568 97.8336 179.241C96.6958 178.831 95.74 178.329 95.74 178.101C95.74 177.143 98.0612 173.128 98.6073 173.128C99.5631 173.173 102.749 174.77 103.432 175.546C104.16 176.458 105.571 176.549 106.026 175.774C106.481 175.044 103.75 172.854 101.111 171.85L98.9259 171.029L100.61 168.337C103.113 164.276 105.571 160.991 109.257 156.84C112.079 153.646 112.443 153.053 111.851 152.551C111.26 152.095 110.805 152.368 108.893 154.239C103.932 159.075 98.7894 166.421 95.2394 173.721C93.0093 178.283 92.5997 179.743 93.4644 180.063C93.7375 180.154 91.5074 182.526 88.5035 185.355C85.4997 188.138 80.5844 193.157 77.4895 196.442C72.5286 201.78 71.9825 202.282 72.2555 200.913C74.8953 187.682 75.578 172.443 73.712 166.512C72.6652 163.045 70.435 159.988 67.9774 158.619C64.6549 156.748 64.2453 155.699 64.6094 149.677C64.746 146.893 64.6549 141.008 64.4274 136.628C64.1543 132.248 64.0178 128.552 64.1543 128.461C64.2453 128.324 64.928 128.781 65.6107 129.465C68.5235 132.248 77.535 135.35 78.4908 133.845C79.0369 132.932 78.4908 132.613 75.7145 132.066C69.1607 130.834 63.6082 126.043 61.1505 119.519C60.7864 118.561 60.8774 118.287 61.9697 117.739C63.7447 116.736 64.1543 116.827 64.7915 118.378ZM59.7851 121.891C60.2857 123.077 61.2415 124.72 61.8787 125.541C63.3351 127.457 62.7889 127.503 60.8319 125.587C59.3755 124.172 59.2845 124.127 55.3704 124.264C52.8217 124.309 51.5473 124.218 51.8204 123.944C52.5031 123.26 58.1466 119.747 58.5107 119.747C58.6928 119.747 59.2389 120.705 59.7851 121.891ZM56.3717 127.959C58.8749 130.514 58.0101 130.788 55.3704 128.233C54.0505 127.001 53.4589 126.134 53.8685 126.134C54.2781 126.134 55.3704 126.956 56.3717 127.959ZM52.3666 131.746L57.8281 136.628L58.1011 145.844L58.4197 155.06L57.1909 156.064C56.2806 156.794 56.0076 157.387 56.0531 158.665C56.0986 160.261 56.0531 160.307 54.8697 160.079C53.0037 159.714 52.321 160.763 52.6396 163.455C52.7762 164.641 53.0492 166.056 53.1858 166.603C53.4589 167.47 53.3223 167.607 51.7749 167.744C50.3185 167.835 49.9544 168.109 49.5903 169.113C48.9986 170.755 49.9544 172.808 54.1871 179.196C55.962 181.933 57.3274 184.442 57.2364 184.762C57.0999 185.081 55.4159 185.537 53.0037 185.857C48.589 186.404 34.3436 186.541 33.5699 185.994C33.2968 185.811 32.6596 184.306 32.159 182.617L31.2487 179.606L35.7089 176.367C38.1666 174.588 40.3057 172.717 40.4423 172.169C40.9884 170.481 40.3057 169.021 38.8493 168.702C38.0756 168.565 37.4839 168.383 37.4839 168.337C37.4839 168.246 38.1211 167.014 38.8493 165.6C39.623 164.185 40.2147 162.588 40.2147 162.132C40.2147 160.809 38.5307 159.349 37.3929 159.714C36.5737 159.942 36.4827 159.851 36.8012 159.166C36.9833 158.665 37.2109 157.433 37.3474 156.429C37.575 154.741 37.4384 154.422 36.4371 153.737C35.7545 153.327 35.0263 153.098 34.7532 153.281C34.4801 153.463 34.2981 152.688 34.2981 151C34.2981 148.764 34.1615 148.399 33.2058 147.988C32.159 147.487 32.1135 147.304 31.8404 140.324C31.7038 136.4 31.4763 132.157 31.3853 130.834C31.2032 128.461 31.2032 128.461 32.6141 128.187C34.7987 127.777 45.3576 126.682 46.1768 126.773C46.5865 126.773 49.3627 129.009 52.3666 131.746ZM52.5941 127.822C55.689 130.332 57.9646 132.75 57.9646 133.526C57.9646 133.982 57.8281 134.347 57.646 134.347C57.4184 134.301 55.4614 132.567 53.1858 130.469C49.9999 127.457 49.3172 126.591 50.0909 126.591C50.6371 126.591 51.7294 127.138 52.5941 127.822ZM61.196 128.689C61.9242 129.602 62.8344 146.893 62.3338 150.863C61.8332 154.787 60.8319 154.422 60.5133 150.178C60.1492 145.388 59.9672 127.959 60.2857 127.959C60.4678 127.959 60.8774 128.279 61.196 128.689ZM31.8404 152.186C31.5218 154.33 29.4737 158.984 27.4712 162.269C26.0603 164.55 26.0148 165.371 27.3801 165.371C27.8808 165.371 29.3372 163.501 31.2942 160.353C33.0237 157.57 34.6166 155.334 34.8442 155.334C35.982 155.334 33.7064 160.991 30.4295 166.101C28.8365 168.611 28.609 169.934 29.8378 169.934C30.2019 169.934 31.3397 168.748 32.3865 167.288C34.6622 164.14 37.3474 161.448 37.757 161.858C38.3032 162.406 35.6179 167.196 33.3423 169.66C29.7468 173.584 30.7481 174.998 35.0263 171.987C37.3929 170.299 38.3942 169.979 38.3942 171.029C38.3942 171.759 35.8455 173.903 31.7038 176.732C30.1109 177.781 28.8365 178.739 28.8365 178.831C28.8365 178.968 29.3372 180.838 29.9744 182.982C31.0212 186.678 32.159 195.073 31.7038 196.214C31.4308 196.944 32.6141 197.765 33.3423 197.354C33.7974 197.08 33.8884 195.849 33.7974 192.564L33.6154 188.184H35.982C37.2564 188.184 38.4397 188.366 38.5762 188.549C38.6673 188.731 37.1198 194.754 35.0718 201.871L31.3397 214.874L29.6558 215.011C26.3789 215.285 22.7379 212.821 20.8263 209.08C17.686 202.829 17.1398 189.552 19.552 177.827C21.3725 168.748 26.4244 156.383 29.9744 152.232C30.8846 151.182 31.7494 150.315 31.8859 150.315C32.0224 150.315 32.0224 151.137 31.8404 152.186ZM64.0633 158.665C64.9735 160.261 65.9748 162.634 66.2934 164.003C66.794 166.056 67.1581 166.558 67.9774 166.649C68.9786 166.831 69.0242 166.695 68.7511 164.824C68.6145 163.729 68.3415 162.406 68.1594 161.95C67.8408 161.083 67.8408 161.083 68.7511 161.858C69.2517 162.315 70.253 163.957 70.9812 165.508C72.119 168.063 72.2555 168.93 72.4376 174.77C72.7107 184.123 71.6639 193.978 69.2972 203.377C67.8863 208.988 68.8421 209.262 73.0293 204.472C76.9433 200.046 89.7779 186.906 93.5554 183.53L96.6503 180.792L99.4721 182.161C104.843 184.671 109.576 188.914 112.762 194.024C114.218 196.35 114.81 195.301 107.573 203.194C98.5618 213.003 90.233 219.573 80.9484 224.227C73.0748 228.151 67.9319 229.702 62.7889 229.702C57.2819 229.656 54.005 227.968 51.9114 223.999C51.0467 222.402 50.9101 221.444 50.9101 216.471C50.9101 207.893 53.3223 198.175 57.7825 188.686C58.8749 186.359 59.7851 184.214 59.7851 183.986C59.7851 183.758 58.6928 182.024 57.3729 180.063C51.5928 171.713 50.3185 168.565 53.3678 170.162C54.096 170.527 55.689 171.941 56.8723 173.31C58.1466 174.816 59.2389 175.683 59.6031 175.546C60.5133 175.181 60.3768 174.405 59.0569 172.626C56.8723 169.706 53.914 162.908 54.5512 162.223C54.8242 161.995 54.5056 161.539 58.1466 166.831C60.2402 169.888 61.5146 171.303 62.1062 171.303C63.3351 171.303 63.1985 170.344 61.5601 167.06C59.421 162.816 57.8736 158.436 58.3287 157.98C58.8293 157.478 59.5575 158.528 62.0607 163.546C64.1088 167.607 64.5639 168.155 65.5652 167.79C66.521 167.425 66.2934 166.695 63.8812 161.813C60.6498 155.288 60.7864 152.825 64.0633 158.665ZM132.878 186.45C132.742 187.043 132.605 188.092 132.605 188.868V190.191L131.649 189.233C130.694 188.275 130.694 188.275 131.513 186.861C132.469 185.218 133.288 184.99 132.878 186.45ZM132.605 194.297V196.168L130.557 193.887C128.418 191.423 128.191 190.967 129.055 190.1C129.465 189.689 129.92 189.872 131.103 191.012C132.332 192.199 132.605 192.837 132.605 194.297ZM130.057 195.575C132.332 198.175 132.605 198.677 132.605 200.502V202.51L129.829 199.818C128.327 198.312 126.643 196.487 126.142 195.803C125.278 194.571 125.278 194.48 126.006 193.613C126.461 193.157 127.007 192.746 127.189 192.746C127.371 192.746 128.646 194.024 130.057 195.575ZM128.418 200.548C132.332 204.7 132.56 205.019 132.833 207.392L133.106 209.855L128.782 205.293C126.37 202.784 123.867 200.046 123.184 199.225C122.046 197.81 122.046 197.719 122.82 196.852C123.275 196.35 123.821 195.985 124.003 196.031C124.185 196.122 126.188 198.13 128.418 200.548Z" fill="#F24E80"/>
<path d="M128.219 16.2293C128.219 16.581 129.417 17.5922 130.836 18.4275C133.986 20.3619 138.245 24.7582 139.665 27.6158C140.641 29.5942 141.617 30.2097 142.194 29.2425C142.682 28.4511 139.665 23.5272 137.136 20.9334C133.498 17.1965 128.219 14.4268 128.219 16.2293Z" fill="#F24E80"/>
<path d="M143.071 33.5793C143.071 35.6318 145.386 37.9776 146.273 36.8047C146.815 36.0507 144.992 32.9928 144.007 32.9928C143.514 32.9928 143.071 33.2442 143.071 33.5793Z" fill="#F24E80"/>
<path d="M130.949 49.5169C129.959 50.3189 129.869 50.6753 129.869 55.0416C129.869 59.0069 130.004 59.8534 130.724 60.6554C132.209 62.2594 134.279 61.9029 136.755 59.6307L138.915 57.6257L140.175 59.2297C142.606 62.2148 146.386 62.7495 148.592 60.4326C149.537 59.4525 149.672 58.8733 149.672 56.0218C149.672 51.7892 148.727 50.3189 145.936 50.0961C144.271 49.9624 143.821 50.1407 141.886 51.9674C140.67 53.0812 139.5 54.0169 139.32 54.0169C139.14 54.0169 138.195 53.1258 137.205 52.0119C135.54 50.1407 133.424 48.6704 132.434 48.6704C132.164 48.6704 131.534 49.0714 130.949 49.5169Z" fill="#F24E80"/>
<path d="M57.2927 54.9474C55.1051 55.6667 54.2569 56.7217 55.1051 57.6329C55.373 57.9206 55.998 57.8727 56.8909 57.3452C59.9713 55.6188 63.8999 56.9615 65.3285 60.1745C66.0427 61.805 67.3374 62.3805 67.9178 61.3734C68.4088 60.4623 66.0427 56.8656 64.257 55.7626C61.8909 54.324 59.7927 54.0842 57.2927 54.9474Z" fill="#F24E80"/>
<path d="M56.4212 62.3306C55.0875 62.8793 53.1313 64.863 53.1313 65.6227C53.1313 66.6356 54.6429 66.3824 55.7988 65.1584C57.8883 63.0059 60.6446 63.5124 61.5782 66.1714C61.9339 67.1843 62.3785 67.6486 62.9564 67.6486C64.379 67.6486 64.0678 65.3694 62.3785 63.639C60.6891 61.9086 58.5107 61.4021 56.4212 62.3306Z" fill="#F24E80"/>
<path d="M89.1523 64.2026C87.5095 64.7255 86.9619 65.1533 86.9619 65.8188C86.9619 66.9597 87.6008 67.0072 90.1562 66.0565C91.2058 65.6762 92.5292 65.3435 93.0768 65.3435C96.4993 65.3435 100.287 68.053 101.793 71.5231C102.34 72.7591 102.934 73.4246 103.481 73.4246C104.713 73.4246 104.531 71.6182 102.979 69.0513C100.059 64.2502 94.7652 62.3963 89.1523 64.2026Z" fill="#F24E80"/>
<path d="M67.1546 71.1001C66.4018 71.8987 66.269 72.5642 66.3575 74.3389C66.4904 76.2467 66.6232 76.5572 67.4646 76.6903C68.3502 76.8234 68.3945 76.646 68.3502 74.8713C68.3059 73.4515 68.5273 72.6086 69.103 71.9874C69.9444 71.0113 69.7672 70.124 68.7045 70.124C68.3502 70.124 67.6417 70.5677 67.1546 71.1001Z" fill="#F24E80"/>
<path d="M87.374 71.3829C86.4654 72.1347 85.9871 72.8865 86.1784 73.1519C86.7045 73.948 87.8044 73.7711 88.8564 72.7981C90.2433 71.5155 92.3952 71.6482 93.5907 73.0634C94.1646 73.7268 94.595 74.6113 94.595 75.0536C94.595 76.0708 96.4122 76.2035 96.7948 75.2747C97.2252 74.2575 95.5514 71.4713 94.069 70.8079C91.8214 69.7023 89.0955 69.9676 87.374 71.3829Z" fill="#F24E80"/>
<path d="M60.88 77.8441C60.6958 77.9749 60.5576 78.5848 60.5576 79.1512C60.5576 84.0746 69.6763 87.5166 75.7555 84.9024C78.0582 83.9439 80.3609 82.0268 80.3609 81.1554C80.3609 80.1969 79.0714 80.5455 76.9068 82.0704C74.4199 83.9003 71.4264 84.4667 68.3868 83.6825C65.7617 82.9854 63.413 81.3297 63.0445 79.8048C62.9064 79.1512 62.7222 78.367 62.584 78.062C62.3998 77.4956 61.3866 77.3649 60.88 77.8441Z" fill="#F24E80"/>
<path d="M62.3613 87.0508C61.9026 87.7502 62.453 88.2747 64.2419 88.7992C67.1775 89.7171 68.3701 88.3621 65.5721 87.2256C63.7374 86.4825 62.7741 86.4388 62.3613 87.0508Z" fill="#F24E80"/>
<path d="M132.759 160.467C132.627 160.737 132.232 161.908 131.881 163.078C131.53 164.294 130.565 166.41 129.687 167.896C128.019 170.732 127.932 171.092 128.634 171.542C129.906 172.398 133.768 165.555 133.987 162.088C134.075 160.422 133.373 159.477 132.759 160.467Z" fill="#F24E80"/>
<path d="M34.245 133.211C33.7208 133.864 33.3276 134.822 33.3276 135.345C33.3276 135.867 33.7208 136.825 34.245 137.478C34.9439 138.393 35.5118 138.61 36.9971 138.61C39.2686 138.61 40.7539 137.261 40.7539 135.301C40.7539 132.253 36.1671 130.816 34.245 133.211Z" fill="#F24E80"/>
<path d="M13.1541 103.053C22.4722 103.591 24.8662 104.38 26.3763 107.392C27.8127 110.296 28.5493 119.117 27.518 121.125C26.8183 122.523 24.1664 123.814 22.0671 123.814C20.5202 123.814 20.4834 123.85 20.6675 124.783C21.2936 127.866 21.9934 133.173 21.8093 133.496C21.2568 134.392 20.3729 133.532 17.3896 129.014C15.6217 126.324 13.8907 123.994 13.5224 123.814C13.1541 123.599 11.1652 123.456 9.10268 123.456C4.86715 123.456 3.46758 123.025 1.99435 121.34C0.631615 119.762 0.3738 118.4 0.115986 111.981C-0.105 107.069 -0.0313377 106.28 0.521124 105.168C1.73654 102.838 3.83589 102.479 13.1541 103.053ZM2.6573 105.24L1.62605 106.029L1.84703 111.838C2.1785 121.197 2.84146 122.021 9.91296 122.021C13.0067 122.021 14.2958 122.165 14.8851 122.559C15.2902 122.846 16.432 124.316 17.3896 125.787C18.3472 127.293 19.1943 128.44 19.3048 128.368C19.3784 128.261 19.268 127.149 19.0101 125.822C18.7892 124.531 18.6787 123.241 18.7892 122.954C18.9365 122.631 19.8204 122.416 21.5883 122.308C23.4667 122.201 24.3506 121.986 24.9399 121.484C26.3026 120.264 26.4868 119.296 26.0448 115.029C25.3819 108.503 24.5347 106.567 21.8093 105.491C20.4465 104.953 15.2902 104.595 8.69754 104.523C4.05687 104.451 3.6149 104.523 2.6573 105.24Z" fill="#F24E80"/>
<path d="M18.1737 110.705C18.6459 111.225 19 111.814 19 112.021C19 113.511 14.8683 118.812 13.7271 118.812C12.9795 118.812 9.7528 116.214 8.8084 114.863C7.07701 112.403 8.29685 109.492 10.8546 109.943C11.5235 110.047 12.3499 110.393 12.6647 110.636C13.2156 111.086 13.4123 111.051 14.2387 110.462C15.5766 109.527 17.1899 109.596 18.1737 110.705Z" fill="#F24E80"/>
<path d="M269.077 100.415C254.971 102.471 240.864 111.569 232.584 123.904L230.174 127.491L228.728 126.223C226.407 124.21 223.778 123.423 220.054 123.642C212.168 124.167 206.692 130.378 203.538 142.407C197.492 165.852 198.5 181.205 207.086 194.415C210.153 199.139 215.191 204.52 219.222 207.407C222.288 209.594 222.245 209.506 220.273 213.443C218.302 217.38 217.163 218.867 215.585 219.523C210.372 221.71 196.966 234.045 191.709 241.525C180.888 256.965 175.587 273.85 176.025 291.302C176.157 296.245 176.2 296.551 177.077 296.683C177.777 296.77 178.303 297.557 179.223 299.963C181.72 306.437 185.532 312.954 189.562 317.81C191.096 319.647 191.183 319.953 190.833 321.309C190.263 323.496 189.037 333.994 189.343 334.431C189.65 334.956 190.701 334.913 191.052 334.388C191.183 334.169 191.621 331.457 191.972 328.395C192.366 325.333 192.717 322.578 192.804 322.271C192.892 321.965 194.075 322.753 195.477 324.021C204.107 331.938 212.606 335.7 220.799 335.131C226.056 334.781 230.437 333.119 236.702 329.051C245.683 323.234 254.489 314.704 259.702 306.831C261.542 304.075 263.733 301.101 264.609 300.269L266.186 298.782L274.378 299.526C278.847 299.92 282.571 300.313 282.659 300.401C282.921 300.663 283.666 312.736 283.885 320.172C284.017 324.021 284.104 327.214 284.148 327.258C284.192 327.695 285.9 327.258 285.944 326.82C286.076 323.802 285.769 311.117 285.419 306.656C285.2 303.55 285.068 300.926 285.2 300.838C285.287 300.707 287.609 300.882 290.325 301.188L295.232 301.713L294.925 312.255C294.75 318.072 294.575 323.496 294.531 324.327C294.443 325.596 294.619 325.858 295.32 325.858C296.59 325.858 296.809 324.065 297.16 312.473L297.423 302.15L300.314 302.369L303.205 302.544L305.133 294.102C307.586 283.167 314.947 251.454 316.305 245.811C317.181 242.4 317.268 241.306 316.874 240.956C315.691 239.819 300.664 236.582 290.544 235.27L284.893 234.57L281.782 232.208C277.927 229.277 271.137 225.909 265.879 224.334C262.287 223.241 261.805 222.978 261.192 221.666C259.527 218.167 260.973 213.137 264.565 209.944C267.5 207.275 269.997 206.051 277.138 203.732C284.236 201.414 287.828 199.489 291.114 196.209C293.918 193.409 295.889 189.954 297.379 185.23C298.255 182.299 298.386 181.118 298.386 174.294C298.343 167.296 298.255 166.158 296.984 160.735C296.196 157.498 295.495 154.523 295.363 154.173C295.144 153.692 296.108 152.992 298.912 151.593C309.689 146.081 314.64 136.196 309.514 130.334C307.849 128.453 305.746 127.754 302.724 128.06C301.409 128.191 300.358 128.235 300.358 128.191C300.358 128.103 300.664 127.404 301.103 126.616C302.066 124.604 301.979 121.717 300.84 120.099C299.788 118.655 297.072 117.431 294.925 117.431C294.137 117.431 292.341 117.999 290.982 118.699C289.055 119.661 288.529 119.793 288.792 119.224C288.923 118.83 289.361 117.649 289.668 116.599C291.946 109.382 286.952 102.427 278.146 100.59C274.86 99.8903 272.977 99.8465 269.077 100.415ZM268.376 110.388C268.376 111.044 267.807 111.394 265.879 111.963C262.506 112.969 259.834 114.369 257.205 116.512C254.795 118.48 254.445 118.612 254.051 117.606C253.481 116.162 258.782 112.182 263.601 110.432C266.756 109.295 268.376 109.295 268.376 110.388ZM217.776 136.677C217.951 136.939 217.338 137.945 216.462 138.951C214.271 141.313 212.694 144.9 212.431 148.093C212.212 150.237 212.037 150.674 211.336 150.674C210.153 150.674 209.89 149.58 210.46 146.606C211.555 140.745 216.33 134.315 217.776 136.677ZM242.047 155.048C250.765 157.891 256.154 158.722 266.405 158.722C275.78 158.722 280.337 158.11 288.748 155.704C290.807 155.092 292.647 154.611 292.866 154.611C293.655 154.611 295.802 164.89 296.415 171.67C297.335 181.599 294.662 190.129 289.055 195.378C286.207 198.046 283.009 199.752 277.138 201.764C269.866 204.257 268.464 204.87 265.397 206.794C259.264 210.643 256.811 217.38 259.527 222.847L260.359 224.597L258.519 225.647C250.283 230.502 237.972 231.202 228.86 227.396C226.231 226.303 219.178 221.929 218.652 221.098C218.521 220.835 219.003 219.785 219.747 218.648C222.858 214.143 225.048 207.931 225.662 201.851C226.012 198.571 225.224 192.228 224.435 191.703C224.128 191.485 223.384 191.922 222.507 192.884C220.93 194.59 219.528 195.071 217.206 194.678C214.578 194.284 212.256 192.316 210.766 189.385C209.54 186.979 209.452 186.411 209.452 182.168C209.452 176.875 210.241 174.513 212.212 173.988C214.008 173.551 215.454 174.688 217.206 178.012C219.353 182.08 221.368 183.917 223.734 183.917C224.698 183.917 225.881 183.699 226.363 183.48C228.203 182.474 229.167 178.668 228.553 174.819C228.378 173.594 228.29 172.545 228.378 172.545C228.466 172.545 228.991 172.938 229.517 173.419C231.489 175.3 234.029 175.038 235.694 172.851C236.57 171.67 236.614 171.057 236.614 162.44C236.614 157.41 236.614 153.298 236.658 153.298C236.702 153.298 239.111 154.086 242.047 155.048ZM212.212 156.885C212.081 158.854 211.949 159.204 211.204 159.204C210.504 159.204 210.284 158.854 210.197 157.498C210.022 155.311 210.328 154.611 211.424 154.611C212.256 154.611 212.344 154.829 212.212 156.885ZM218.827 223.766C222.42 226.565 228.597 229.583 233.109 230.764C235.694 231.464 237.972 231.683 241.871 231.683C248.443 231.727 252.386 230.764 258.607 227.659C262.9 225.472 263.119 225.428 264.828 225.953C266.975 226.609 266.799 226.915 262.988 229.496C255.365 234.701 243.624 237.457 235.3 236.057C233.241 235.707 232.54 235.751 232.058 236.188C231.05 237.194 233.109 237.807 238.148 238.069C248.531 238.55 258.475 235.532 266.23 229.583C267.632 228.534 268.99 227.659 269.34 227.659C270.392 227.659 274.554 229.802 278.365 232.339L282.177 234.832L280.556 235.27C279.679 235.532 278.716 235.97 278.497 236.188C278.278 236.451 276.963 240.956 275.605 246.249C274.247 251.542 272.933 256.616 272.714 257.49C272.363 258.759 271.881 259.328 270.611 259.984C268.333 261.165 266.317 263.527 263.426 268.426C260.272 273.762 257.293 277.48 249.626 285.572C243.23 292.309 237.49 297.732 233.066 301.188L230.437 303.244L222.858 296.376C216.155 290.34 215.41 289.553 216.418 289.422L217.557 289.29V282.073V274.856L216.593 274.987C215.629 275.118 215.585 275.293 215.454 281.023L215.323 286.928L207.568 286.972C201.347 286.972 198.938 287.191 195.345 287.934C190.263 289.028 184.349 291.04 180.669 292.877L178.128 294.146V289.597C178.128 270.525 185.619 251.06 198.675 236.145C201.698 232.689 208.488 226.39 210.372 225.34C210.81 225.078 211.905 225.822 214.184 227.921C217.338 230.852 222.595 234.22 225.355 235.139C226.538 235.532 226.932 235.532 227.239 235.051C227.414 234.745 227.502 234.351 227.414 234.22C227.327 234.089 225.53 233.126 223.471 232.033C220.755 230.677 218.652 229.19 216.286 226.915L212.957 223.722L214.271 222.629C215.016 222.016 215.673 221.535 215.805 221.535C215.936 221.535 217.294 222.541 218.827 223.766ZM289.843 237.063C296.941 237.851 313.588 241.219 314.508 242.093C314.727 242.268 313.501 248.392 311.792 255.697C310.084 263.002 307.061 275.993 305.133 284.523C303.162 293.052 301.453 300.182 301.278 300.357C301.146 300.532 298.08 300.313 294.487 299.832C287.302 298.913 287.653 299.132 285.638 294.977L284.455 292.483L286.251 290.909C289.537 287.934 289.712 284.96 286.558 284.96H285.024L285.9 283.517C287.434 281.067 286.864 278.836 284.718 278.836C283.754 278.836 283.754 278.792 285.287 276.693C287.259 273.893 287.653 271.838 286.382 270.569C285.243 269.432 283.491 269.388 281.651 270.525C280.862 271.006 280.205 271.313 280.205 271.269C280.205 271.181 280.599 270.307 281.125 269.257C282.352 266.72 282.089 264.883 280.38 263.745L279.022 262.827L282.264 249.617C285.375 237.107 285.594 236.407 286.514 236.582C286.996 236.713 288.529 236.888 289.843 237.063ZM283.053 237.369C282.965 237.676 281.476 243.756 279.723 250.842L276.613 263.745L274.773 265.364C273.809 266.239 272.933 266.764 272.845 266.589C272.714 266.282 278.409 243.668 279.767 238.944C280.03 238.069 280.556 237.238 280.994 237.151C282.439 236.757 283.228 236.844 283.053 237.369ZM270.567 266.239C269.822 269.388 269.297 270.7 268.114 272.144C266.624 273.937 266.493 274.899 267.676 274.899C268.026 274.899 270.436 272.712 273.02 270.088C276.438 266.676 278.102 265.276 278.847 265.276C279.811 265.276 279.855 265.408 279.636 266.895C279.285 268.863 276.218 273.5 272.933 276.868C270.436 279.492 270.173 280.017 271.224 280.411C271.618 280.586 273.809 279.142 277.051 276.562C282.615 272.056 283.929 271.225 284.586 271.619C285.331 272.1 285.068 273.281 283.798 275.162C281.651 278.311 279.329 280.936 276.876 282.773C275.561 283.823 274.51 284.872 274.51 285.179C274.51 286.228 275.737 286.228 277.226 285.135C279.154 283.648 283.666 281.023 284.192 281.023C285.681 281.023 282.001 285.791 279.11 287.584C277.489 288.591 277.007 290.209 278.365 290.209C278.759 290.209 279.986 289.597 281.038 288.897C283.14 287.497 286.163 286.403 286.645 286.885C287.259 287.453 285.112 289.597 282.527 290.953C281.081 291.74 277.314 293.052 274.116 293.927C265.047 296.333 263.295 297.514 258.826 304.425C253.569 312.517 248.268 318.116 239.33 324.808C225.53 335.219 215.848 336.094 203.844 328.089C193.856 321.484 185.181 310.242 181.019 298.651L179.88 295.458L182.421 294.189C186.014 292.396 192.498 290.296 197.141 289.465C200.865 288.809 212.387 288.416 212.913 288.94C213.045 289.028 213.351 290.603 213.658 292.396C214.49 297.951 216.024 302.063 218.083 304.425C221.193 307.968 224.523 308.624 228.641 306.568C233.898 303.9 244.193 294.671 254.226 283.56C260.622 276.518 262.594 273.937 265.573 268.907C267.807 265.101 270.83 261.427 271.312 261.952C271.443 262.039 271.093 264.008 270.567 266.239ZM228.948 304.206C228.948 304.425 228.553 304.687 228.071 304.862C227.151 305.168 223.165 302.238 218.696 297.951C216.725 296.07 216.243 295.327 215.98 293.752L215.717 291.784L222.332 297.82C225.968 301.144 228.948 303.987 228.948 304.206ZM284.586 295.895C286.163 298.957 286.12 298.957 285.024 298.651C284.017 298.389 281.344 294.364 281.739 293.708C282.352 292.702 283.316 293.402 284.586 295.895ZM281.169 296.42C282.264 298.301 282.177 298.52 280.512 298.214C279.198 297.951 277.358 295.764 277.796 294.977C278.409 294.014 280.249 294.802 281.169 296.42ZM276.438 296.42C276.832 296.945 277.138 297.514 277.138 297.645C277.138 297.776 276.043 297.776 274.685 297.732C272.757 297.601 272.319 297.426 272.407 296.858C272.538 296.245 273.809 295.633 275.255 295.502C275.518 295.458 276.087 295.895 276.438 296.42ZM225.048 305.081C225.267 305.081 225.443 305.256 225.443 305.518C225.443 306.262 223.121 306 221.587 305.081C220.186 304.206 217.557 300.619 217.557 299.526C217.557 299.22 219.178 300.313 221.106 302.019C223.077 303.681 224.829 305.081 225.048 305.081Z" fill="#F24E80"/>
<path d="M281.795 161.57C280.273 162.203 278.316 164.239 278.316 165.235C278.316 166.502 279.621 166.23 281.186 164.647C283.186 162.61 285.752 162.384 288.056 163.968C289.36 164.918 289.839 165.054 290.317 164.647C290.839 164.194 290.839 163.968 290.187 163.199C288.534 161.298 284.447 160.484 281.795 161.57Z" fill="#F24E80"/>
<path d="M250.844 166.461C248.382 167.335 246.338 169.175 245.211 171.613C244.377 173.315 244.294 173.729 244.794 174.051C245.503 174.557 246.505 174.189 246.505 173.499C246.505 172.671 248.633 169.911 250.01 168.991C251.804 167.795 255.141 167.841 257.561 169.129C258.938 169.865 259.564 170.003 259.898 169.635C260.524 168.945 260.065 168.255 258.229 167.197C256.101 166.001 252.972 165.679 250.844 166.461Z" fill="#F24E80"/>
<path d="M284.872 167.316C281.803 168.699 281.587 173.296 284.526 175.17C288.287 177.624 292.955 173.742 291.096 169.681C289.929 167.182 287.336 166.2 284.872 167.316Z" fill="#F24E80"/>
<path d="M251.682 173.316C250.274 174.093 249.482 175.739 249.438 177.705C249.394 183.418 257.359 184.378 259.119 178.893C260.439 174.733 255.554 171.076 251.682 173.316Z" fill="#F24E80"/>
<path d="M274.073 176.198C273.812 176.462 273.682 177.428 273.812 178.351C274.029 179.801 273.856 180.24 272.425 181.822C271.08 183.315 270.907 183.667 271.557 183.886C274.333 184.985 277.628 178.614 275.417 176.418C274.636 175.583 274.68 175.583 274.073 176.198Z" fill="#F24E80"/>
<path d="M212.639 182.661C210.591 184.577 211.303 187.825 214.42 190.365C216.2 191.823 216.779 191.947 217.135 191.031C217.313 190.657 216.69 189.699 215.577 188.533C212.906 185.826 213.129 183.327 216.111 183.327C217.091 183.327 217.358 183.161 217.224 182.578C217.135 182.078 216.601 181.828 215.444 181.745C214.153 181.62 213.529 181.828 212.639 182.661Z" fill="#F24E80"/>
<path d="M276.784 196.976C274.213 194.132 274.353 194.574 272.616 193.876C268.693 192.201 264.581 193.357 262.619 196.691C261.678 198.271 261.126 198.679 260.318 198.2C259.557 197.803 259.937 196.419 261.311 194.735C263.973 191.371 269.882 190.516 274.166 192.433C276.442 193.451 278.834 195.735 278.877 196.76C278.918 197.743 277.611 197.883 276.784 196.976Z" fill="#F24E80"/>
<path d="M198.737 245.631C196.664 248.274 193.328 256.516 193.328 259.069C193.328 259.786 193.599 260.099 194.23 260.099C194.771 260.099 195.131 259.786 195.131 259.293C195.131 257.815 197.746 251.096 199.368 248.364C200.901 245.81 201.172 244.422 200.135 244.422C199.909 244.422 199.278 244.959 198.737 245.631Z" fill="#F24E80"/>
<path d="M301.015 247.946C299.622 251.884 299.548 252.364 300.062 252.74C300.758 253.22 304.533 253.631 306.586 253.459L308.052 253.357L309.372 249.179C310.105 246.885 310.618 244.83 310.471 244.625C310.178 244.214 306.586 243.597 304.24 243.597H302.591L301.015 247.946ZM308.565 245.481C308.602 245.515 308.162 246.987 307.612 248.768L306.586 251.987L304.277 251.918C302.994 251.884 301.894 251.816 301.821 251.747C301.748 251.679 302.187 250.103 302.811 248.289L303.91 244.933L306.183 245.172C307.429 245.309 308.492 245.446 308.565 245.481Z" fill="#F24E80"/>
<path d="M191.001 267.891C190.59 271.024 191.001 272.054 192.545 271.517C193.78 271.114 193.471 265.294 192.185 265.07C191.516 264.936 191.259 265.473 191.001 267.891Z" fill="#F24E80"/>
<path fill-rule="evenodd" clip-rule="evenodd" d="M236.132 56.2615C237.492 65.6867 247.107 66.6636 248.121 67.5013C248.105 67.6064 249.04 76.3458 249.751 77.6325C250.15 78.3466 251.374 78.2708 252.184 78.2407C254.088 78.1476 256.248 78.3503 257.999 77.3326C258.447 77.0663 258.412 75.7082 258.374 75.2409C258.32 73.3023 258.134 71.3696 257.816 69.4565C257.666 68.8713 257.553 68.2772 257.479 67.6778C258.299 67.1432 259.172 66.6936 260.083 66.3359C261.61 65.5974 263.014 64.629 264.246 63.4645C266.688 60.8237 268.123 57.4071 268.297 53.8143C268.471 50.2214 267.374 46.682 265.199 43.8173C258.549 35.0238 244.101 35.423 238.101 44.3779C236.039 47.4862 235.592 52.5951 236.132 56.2615ZM257.591 76.7566C256.027 77.6732 253.946 77.5145 252.095 77.6154C251.596 77.6487 250.409 77.7623 250.162 77.3283C249.695 76.382 249.41 75.3563 249.322 74.3046C252.1 74.3253 254.87 73.9933 257.565 73.3168C257.747 74.4556 257.755 75.6153 257.591 76.7566ZM257.513 72.869C254.754 72.9706 252.01 73.3102 249.309 73.884C249.219 72.6244 249.046 71.3721 248.792 70.1351C251.549 70.2539 254.309 69.9917 256.993 69.3559C257.252 70.5293 257.434 71.7185 257.538 72.9157L257.513 72.869ZM238.714 44.8019C244.467 36.3578 258.266 36.0556 264.552 44.344C266.594 47.0433 267.628 50.3717 267.474 53.7529C267.321 57.1342 265.991 60.3555 263.713 62.8592C261.515 65.1527 257.576 66.3716 256.871 67.2118C256.624 67.5078 256.868 68.3924 257.012 69.015C255.78 69.0683 254.424 69.1569 253.209 69.2448C253.107 67.7587 252.499 61.7308 252.156 60.2839C252.027 59.7064 251.832 59.7204 251.251 59.7953C248.184 59.3397 244.927 58.0615 244.274 55.0118C244.193 54.6537 244.154 54.2877 244.157 53.9207C244.234 52.3861 245.694 50.799 246.999 51.1216C246.638 52.2491 246.5 54.4834 247.389 55.2919C248.278 56.1004 249.548 55.2152 249.688 54.2697C249.734 53.5796 249.61 52.8888 249.327 52.2575C249.045 51.6261 248.613 51.0733 248.068 50.6469C248.289 50.2964 248.583 49.9981 248.931 49.7727C249.279 49.5473 249.671 49.4002 250.081 49.3416C250.491 49.283 250.909 49.3143 251.306 49.4333C251.703 49.5523 252.069 49.7562 252.379 50.0309C251.309 51.5255 251.588 55.3572 253.189 54.7036C254.789 54.0501 254.624 51.8352 253.886 50.5124C253.531 49.869 253.413 50.0126 253.658 49.8772C255.556 48.8814 257.285 50.6198 257.822 52.643C258.61 55.4336 255.61 58.2843 253.868 59.0242C253.825 59.0421 253.791 59.0761 253.774 59.1189C253.757 59.1616 253.757 59.2095 253.775 59.252C253.793 59.2945 253.827 59.3282 253.869 59.3456C253.912 59.363 253.96 59.3628 254.003 59.3449C256.127 58.49 259.096 55.4843 258.393 52.4809C257.691 49.4775 255.027 47.9652 252.99 49.3914C252.586 49.0161 252.103 48.7361 251.576 48.5722C251.05 48.4083 250.494 48.3646 249.948 48.4443C249.402 48.524 248.882 48.7251 248.424 49.0328C247.967 49.3405 247.584 49.7469 247.304 50.2221C245.388 49.6798 243.4 51.7145 243.313 53.8169C243.296 54.7492 243.513 55.6711 243.943 56.4983C244.373 57.3255 245.004 58.0318 245.777 58.5529C246.695 59.1723 250.076 60.5548 251.522 60.3615C251.849 61.4839 252.687 67.9111 252.811 69.2501C247.99 69.608 248.862 70.2421 248.733 69.525C248.586 68.6334 248.604 67.3583 248.385 67.24C242.781 65.0656 237.693 63.3221 236.761 56.1508C236.299 52.6786 236.78 47.7036 238.714 44.8019ZM247.693 51.4394C248.049 51.781 248.327 52.1951 248.509 52.6538C248.691 53.1125 248.773 53.605 248.747 54.0978C248.705 54.3814 247.951 55.0532 247.666 54.1519C247.478 53.2567 247.502 52.3301 247.735 51.4456L247.693 51.4394ZM252.89 50.5684C253.609 51.5127 253.85 53.5027 252.853 53.9237C252.608 53.3974 252.484 52.8227 252.49 52.2419C252.496 51.6612 252.633 51.0892 252.89 50.5684ZM208.418 76.9876C212.892 76.2883 217.9 78.2131 219.194 83.237C221.461 91.7555 211.716 94.4743 211.748 94.9086C211.803 95.9903 211.908 97.8849 211.908 98.9694C211.907 99.0604 211.943 99.148 212.006 99.2129C212.07 99.2777 212.157 99.3145 212.248 99.3152C212.339 99.316 212.427 99.2805 212.492 99.2166C212.557 99.1527 212.593 99.0657 212.594 98.9747C212.624 97.9054 212.712 96.3723 212.727 95.2579C214.301 94.8827 215.801 94.2451 217.163 93.3719C225.879 85.7223 219.241 73.4516 208.148 75.3369C206.401 75.5765 204.771 76.3543 203.485 77.5621C202.199 78.7699 201.322 80.348 200.973 82.0773C200.022 86.1665 202.791 90.2283 208.186 90.557C208.268 90.5548 208.347 90.5236 208.409 90.469C208.47 90.4143 208.511 90.3397 208.523 90.2582C208.535 90.1766 208.518 90.0934 208.475 90.0232C208.432 89.953 208.365 89.9002 208.287 89.8742C203.524 89.4137 201.496 85.6445 202.431 82.4548C202.748 81.0397 203.493 79.7562 204.564 78.7782C205.635 77.8003 206.98 77.1752 208.418 76.9876ZM300.955 60.2313C301.04 60.2682 301.137 60.2696 301.224 60.2352C301.31 60.2007 301.38 60.1333 301.417 60.0476C301.454 59.962 301.455 59.8652 301.421 59.7785C301.386 59.6918 301.319 59.6224 301.233 59.5855C296.874 57.6283 296.159 53.4096 298.068 50.676C298.837 49.4426 299.966 48.4755 301.303 47.9057C302.64 47.336 304.12 47.1912 305.542 47.491C313.412 48.8638 315.799 56.6485 312.066 61.3983C309.574 64.6574 306.806 65.2233 303.379 65.1653C303.27 65.1645 303.164 65.1989 303.077 65.2635C302.99 65.3281 302.927 65.4192 302.896 65.5231C302.637 66.4725 302.102 68.3365 301.749 69.4115C301.718 69.4966 301.722 69.5906 301.76 69.6728C301.798 69.7549 301.868 69.8186 301.953 69.8497C302.038 69.8809 302.132 69.877 302.214 69.8388C302.296 69.8007 302.36 69.7315 302.391 69.6464C302.801 68.5477 303.325 67.2619 303.712 66.1705C305.321 66.3217 306.944 66.1997 308.512 65.8096C312.385 64.2373 315.042 61.239 315.383 56.9947C316.186 47.0317 302.318 41.3645 296.813 49.9421C294.651 53.4434 295.929 58.2824 300.955 60.2313ZM342.003 112.191C342.172 110.226 341.755 108.255 340.804 106.527C339.858 105.079 338.625 103.841 337.182 102.888C335.74 101.935 334.117 101.288 332.415 100.986C330.686 100.647 328.895 100.853 327.289 101.576C325.683 102.3 324.342 103.504 323.451 105.023C321.235 108.592 322.561 113.33 327.553 115.36C327.596 115.388 327.644 115.406 327.695 115.413C327.746 115.419 327.797 115.415 327.846 115.4C327.895 115.385 327.94 115.359 327.978 115.324C328.016 115.29 328.045 115.248 328.065 115.2C328.085 115.153 328.094 115.102 328.092 115.051C328.09 115 328.077 114.95 328.053 114.904C328.03 114.859 327.997 114.819 327.956 114.788C327.916 114.757 327.869 114.735 327.819 114.723C323.504 112.687 322.737 108.6 324.664 105.815C325.433 104.582 326.562 103.615 327.899 103.045C329.236 102.475 330.716 102.331 332.138 102.63C333.589 102.887 334.973 103.436 336.206 104.243C337.439 105.049 338.495 106.098 339.311 107.325C340.105 108.755 340.46 110.388 340.332 112.018C339.702 121.395 329.717 119.944 329.513 120.666C329.231 121.697 328.726 123.512 328.367 124.554C328.336 124.639 328.34 124.733 328.378 124.815C328.416 124.897 328.485 124.961 328.57 124.992C328.655 125.023 328.749 125.019 328.831 124.981C328.914 124.943 328.977 124.874 329.008 124.789C329.428 123.702 329.942 122.404 330.33 121.313C331.942 121.461 333.568 121.339 335.14 120.954C338.955 119.416 341.656 116.478 342.003 112.191ZM215.4 107.627C216.13 105.824 215.066 103.658 213.698 103.616C212.84 103.392 211.965 103.237 211.083 103.152C208.722 103.36 207.207 106.185 209.133 107.963C211.348 109.967 214.7 109.305 215.4 107.627ZM213.803 107.175C213.384 107.431 212.898 107.557 212.407 107.537C209.49 107.512 209.252 104.921 211.297 104.387L213.618 104.302C214.582 104.531 214.492 106.655 213.811 107.122L213.803 107.175ZM300.281 73.2952C297.966 72.0387 294.909 74.4085 296.296 76.9981C297.683 79.5878 301.118 80.0979 302.336 78.6898C303.555 77.2816 303.306 74.8394 302.025 74.3487C301.918 74.279 301.066 73.7231 300.281 73.2952ZM300.981 77.6939C300.487 77.7841 299.979 77.745 299.505 77.5805C299.031 77.416 298.607 77.1317 298.275 76.7552C297.998 76.4862 297.786 76.1572 297.656 75.7935C297.477 74.8973 298.699 74.1876 299.506 74.2537L301.726 74.9163C302.539 75.5201 301.792 77.5137 300.976 77.7255L300.981 77.6939ZM328.602 129.55C328.406 129.424 327.391 128.811 326.865 128.519C324.54 127.261 321.493 129.632 322.88 132.222C324.267 134.811 327.692 135.32 328.92 133.913C330.149 132.507 329.893 130.042 328.602 129.55ZM327.55 132.947C327.056 133.036 326.548 132.997 326.074 132.832C325.6 132.668 325.176 132.384 324.844 132.009C324.57 131.733 324.36 131.401 324.226 131.036C324.057 130.152 325.268 129.441 326.074 129.507L328.295 130.17C329.112 130.742 328.367 132.725 327.55 132.947Z" fill="#F24E80"/>
<path d="M334.373 214.885C334.345 214.85 334.316 214.817 334.286 214.786L334.738 214.33C334.783 214.382 334.826 214.436 334.866 214.492L334.373 214.885ZM334.373 214.885C334.574 215.137 334.69 215.46 334.696 215.769C334.7 215.943 334.668 216.113 334.598 216.264C334.576 216.31 334.551 216.355 334.522 216.397C334.446 216.508 334.343 216.603 334.211 216.675C334.124 216.723 334.024 216.76 333.911 216.785C333.902 216.787 333.893 216.788 333.884 216.79C333.876 216.79 333.868 216.79 333.86 216.79C333.797 216.79 333.734 216.788 333.672 216.783C333.484 216.771 333.306 216.741 333.147 216.689C332.959 216.628 332.798 216.537 332.677 216.409L332.328 216.761C332.425 216.858 332.532 216.942 332.646 217.013C332.752 217.055 332.867 217.088 332.99 217.11C333.2 217.147 333.434 217.152 333.693 217.119C333.756 217.111 333.819 217.101 333.884 217.089C333.896 217.087 333.908 217.084 333.919 217.082C333.927 217.082 333.934 217.082 333.942 217.081C334.103 217.075 334.251 217.047 334.383 217.002C334.578 216.935 334.742 216.831 334.874 216.699C334.915 216.657 334.953 216.613 334.988 216.567C335.037 216.502 335.08 216.433 335.117 216.36C335.189 216.194 335.244 215.994 335.257 215.769C335.275 215.465 335.217 215.115 335.021 214.743C334.975 214.655 334.924 214.572 334.868 214.494L334.373 214.885ZM332.79 213.981C332.577 214.094 332.391 214.25 332.244 214.439C332.109 214.596 332.003 214.763 331.925 214.934C331.888 215.024 331.861 215.111 331.841 215.19C331.792 215.39 331.779 215.584 331.8 215.769C331.835 216.08 331.966 216.366 332.18 216.606L332.566 216.261L333.437 214.516L333.298 213.808C333.285 213.811 333.273 213.813 333.26 213.815C333.096 213.847 332.938 213.903 332.79 213.981ZM332.79 213.981L333.129 214.624L332.79 213.981ZM334.243 213.912C334.423 214.022 334.59 214.161 334.735 214.327L334.254 214.756C334.157 214.665 334.051 214.6 333.941 214.558C333.922 214.551 333.903 214.545 333.884 214.539V213.809C333.988 213.827 334.091 213.854 334.19 213.891C334.208 213.898 334.225 213.905 334.243 213.912ZM327.737 214.888C327.764 214.939 327.788 214.99 327.81 215.04H327.139L327.606 214.674C327.654 214.742 327.697 214.814 327.737 214.888ZM325.289 216.415C325.211 216.282 325.167 216.119 325.167 215.923C325.17 215.587 325.297 215.292 325.49 215.074H324.653C324.613 215.17 324.584 215.261 324.564 215.345C324.515 215.542 324.502 215.735 324.522 215.918C324.522 215.92 324.522 215.922 324.522 215.923C324.558 216.235 324.688 216.52 324.902 216.76L325.289 216.415Z" fill="#F24E80" stroke="#F24E80" stroke-width="7"/>
<path d="M340.287 215.923C340.289 215.586 340.416 215.292 340.61 215.074H339.773C339.733 215.17 339.704 215.261 339.683 215.344C339.635 215.542 339.621 215.734 339.642 215.918C339.642 215.92 339.642 215.921 339.642 215.923C339.677 216.235 339.808 216.52 340.022 216.76L340.408 216.415C340.33 216.282 340.287 216.119 340.287 215.923ZM342.857 214.888C342.884 214.939 342.908 214.989 342.93 215.039H342.259L342.726 214.674C342.773 214.742 342.817 214.813 342.857 214.888Z" fill="#F24E80" stroke="#F24E80" stroke-width="7"/>
<mask id="path-30-inside-1_1254_4198" fill="white">
<path d="M339.013 226.282C363.996 224.274 356.361 198.28 334.258 198.821C309.423 199.499 301.962 229.269 339.013 226.282ZM318.306 205.635C325.375 198.769 339.467 197.156 347.975 203.575C357.513 210.732 356.448 224.583 338.952 225.982C329.45 226.737 322.94 225.184 318.97 222.601C312.434 218.344 312.826 210.981 318.306 205.635Z"/>
</mask>
<path d="M339.013 226.282C363.996 224.274 356.361 198.28 334.258 198.821C309.423 199.499 301.962 229.269 339.013 226.282ZM318.306 205.635C325.375 198.769 339.467 197.156 347.975 203.575C357.513 210.732 356.448 224.583 338.952 225.982C329.45 226.737 322.94 225.184 318.97 222.601C312.434 218.344 312.826 210.981 318.306 205.635Z" fill="#F24E80"/>
<path d="M339.013 226.282L338.452 219.305L338.451 219.305L339.013 226.282ZM334.258 198.821L334.086 191.823L334.077 191.823L334.067 191.823L334.258 198.821ZM318.306 205.635L313.429 200.613L313.424 200.619L313.418 200.624L318.306 205.635ZM347.975 203.575L343.759 209.163L343.766 209.168L343.774 209.174L347.975 203.575ZM338.952 225.982L339.507 232.96L339.51 232.96L338.952 225.982ZM318.97 222.601L315.149 228.466L315.152 228.468L318.97 222.601ZM339.574 233.26C346.966 232.666 353.094 230.203 357.109 225.764C361.237 221.201 362.356 215.381 361.112 210.015C358.679 199.521 347.828 191.487 334.086 191.823L334.429 205.819C342.79 205.614 346.808 210.307 347.473 213.176C347.779 214.493 347.504 215.514 346.727 216.372C345.838 217.355 343.552 218.895 338.452 219.305L339.574 233.26ZM334.067 191.823C319.457 192.222 307.009 201.476 306.436 213.595C306.13 220.069 309.51 225.864 315.646 229.408C321.473 232.774 329.564 234.067 339.576 233.26L338.451 219.305C329.937 219.991 325.067 218.682 322.648 217.285C320.539 216.066 320.389 214.936 320.421 214.256C320.524 212.068 324.224 206.097 334.449 205.818L334.067 191.823ZM323.184 210.656C325.327 208.574 328.98 206.952 333.186 206.599C337.369 206.248 341.189 207.224 343.759 209.163L352.191 197.987C346.253 193.507 338.773 192.081 332.015 192.648C325.281 193.213 318.353 195.83 313.429 200.613L323.184 210.656ZM343.774 209.174C346.865 211.494 347.154 213.994 346.857 215.062C346.671 215.731 345.45 218.44 338.394 219.004L339.51 232.96C349.95 232.125 358.009 227.209 360.345 218.814C362.57 210.817 358.622 202.813 352.176 197.976L343.774 209.174ZM338.398 219.004C329.74 219.692 324.98 218.16 322.787 216.733L315.152 228.468C320.9 232.208 329.159 233.782 339.507 232.96L338.398 219.004ZM322.79 216.735C321.268 215.744 321.137 214.906 321.132 214.449C321.124 213.744 321.488 212.31 323.195 210.645L313.418 200.624C309.645 204.306 307.073 209.226 307.132 214.604C307.195 220.229 310.135 225.201 315.149 228.466L322.79 216.735Z" fill="#F24E80" mask="url(#path-30-inside-1_1254_4198)"/>
<path d="M310.026 232.3L310.085 232.326L310.026 232.3Z" fill="#F24E80" stroke="#F24E80" stroke-width="7"/>
</svg>
