<svg width="40" height="40" viewBox="0 0 40 40" fill="none" xmlns="http://www.w3.org/2000/svg">
<path fill-rule="evenodd" clip-rule="evenodd" d="M3.83959 3.8778C6.25551 1.46188 9.87068 0.538208 14.5306 0.538208H25.393C30.0529 0.538208 33.6681 1.46188 36.084 3.8778C38.4999 6.29372 39.4236 9.90889 39.4236 14.5688V25.4312C39.4236 30.0911 38.4999 33.7063 36.084 36.1222C33.6681 38.5381 30.0529 39.4618 25.393 39.4618H14.5306C9.87068 39.4618 6.25551 38.5381 3.83959 36.1222C1.42367 33.7063 0.5 30.0911 0.5 25.4312V14.5688C0.5 9.90889 1.42367 6.29372 3.83959 3.8778ZM5.75981 5.79802C4.10233 7.45549 3.2156 10.1767 3.2156 14.5688V25.4312C3.2156 29.8233 4.10233 32.5445 5.75981 34.202C7.41728 35.8595 10.1385 36.7462 14.5306 36.7462H25.393C29.7851 36.7462 32.5063 35.8595 34.1638 34.202C35.8213 32.5445 36.708 29.8233 36.708 25.4312V14.5688C36.708 10.1767 35.8213 7.45549 34.1638 5.79802C32.5063 4.14054 29.7851 3.25381 25.393 3.25381H14.5306C10.1385 3.25381 7.41728 4.14054 5.75981 5.79802Z" fill="#F24E80" fill-opacity="0.8"/>
<path fill-rule="evenodd" clip-rule="evenodd" d="M20.7738 14.5778C18.7874 14.0498 17.013 15.5203 17.013 17.3933C17.013 17.5385 17.0253 17.6738 17.0454 17.784L17.0502 17.8107L17.054 17.8375C17.1755 18.7 17.6877 19.444 18.417 19.8966L19.0587 20.295V24.6349C19.0587 25.1341 19.4646 25.5401 19.9639 25.5401C20.4632 25.5401 20.8691 25.1341 20.8691 24.6349V20.295L21.5109 19.8966C22.2402 19.444 22.7524 18.7 22.8738 17.8375L22.8757 17.8241L22.8779 17.8107C22.9397 17.4276 22.9265 17.0264 22.8179 16.6281L22.8145 16.6156C22.5587 15.6412 21.7522 14.8346 20.7779 14.5789L20.7738 14.5778ZM21.4694 11.9528C17.7357 10.9616 14.2974 13.7632 14.2974 17.3933C14.2974 17.6734 14.3197 17.9629 14.3687 18.2424C14.5752 19.6603 15.3111 20.8836 16.3431 21.7414V24.6349C16.3431 26.6339 17.9649 28.2557 19.9639 28.2557C21.963 28.2557 23.5847 26.6339 23.5847 24.6349V21.7414C24.6198 20.881 25.357 19.6529 25.561 18.2297C25.6775 17.4962 25.6538 16.7095 25.4395 15.9199C24.9334 14.0012 23.3887 12.4574 21.4694 11.9528Z" fill="#F24E80" fill-opacity="0.8"/>
<path fill-rule="evenodd" clip-rule="evenodd" d="M24.2192 16.6693H38.0688V19.3849H24.2192V16.6693Z" fill="#F24E80" fill-opacity="0.8"/>
<path fill-rule="evenodd" clip-rule="evenodd" d="M1.85791 16.6689H15.7075V19.3845H1.85791V16.6689Z" fill="#F24E80" fill-opacity="0.8"/>
</svg>
