<svg width="40" height="44" viewBox="0 0 40 44" fill="none" xmlns="http://www.w3.org/2000/svg">
<path d="M20.1971 36.3023C24.7081 36.3023 28.365 32.6454 28.365 28.1344C28.365 23.6234 24.7081 19.9666 20.1971 19.9666C15.6862 19.9666 12.0293 23.6234 12.0293 28.1344C12.0293 32.6454 15.6862 36.3023 20.1971 36.3023Z" stroke="#F24E80" stroke-opacity="0.8" stroke-width="3.06294" stroke-miterlimit="10" stroke-linecap="round" stroke-linejoin="round"/>
<path d="M17.0127 28.1345L18.34 29.4618C18.7279 29.8498 19.361 29.8702 19.7489 29.4822L23.3836 26.1334" stroke="#F24E80" stroke-opacity="0.8" stroke-width="3.06294" stroke-linecap="round" stroke-linejoin="round"/>
<path d="M14.2429 42.4112H26.4947C34.7034 42.4112 36.1736 39.1236 36.6024 35.1214L38.1339 22.8696C38.6852 17.8872 37.2558 13.8237 28.5367 13.8237H12.201C3.48178 13.8237 2.05241 17.8872 2.60374 22.8696L4.13521 35.1214C4.56402 39.1236 6.03424 42.4112 14.2429 42.4112Z" stroke="#F24E80" stroke-opacity="0.8" stroke-width="3.06294" stroke-miterlimit="10" stroke-linecap="round" stroke-linejoin="round"/>
<path d="M11.1802 13.1499V11.1692C11.1802 6.57474 14.8761 2.06201 19.4705 1.63319C24.943 1.10228 29.5578 5.41082 29.5578 10.7812V13.5991" stroke="#F24E80" stroke-opacity="0.8" stroke-width="3.06294" stroke-miterlimit="10" stroke-linecap="round" stroke-linejoin="round"/>
</svg>
