<svg width="44" height="44" viewBox="0 0 44 44" fill="none" xmlns="http://www.w3.org/2000/svg">
<path d="M16.7716 38.0758H26.417C34.4549 38.0758 37.6701 34.8607 37.6701 26.8228V17.1773C37.6701 9.13947 34.4549 5.92432 26.417 5.92432H16.7716C8.73371 5.92432 5.51855 9.13947 5.51855 17.1773V26.8228C5.51855 34.8607 8.73371 38.0758 16.7716 38.0758Z" stroke="#F24E80" stroke-opacity="0.8" stroke-width="3.0142" stroke-linecap="round" stroke-linejoin="round"/>
<path d="M18.5805 32.0473H24.6089C29.6326 32.0473 31.6421 30.0379 31.6421 25.0142V18.9858C31.6421 13.9621 29.6326 11.9526 24.6089 11.9526H18.5805C13.5568 11.9526 11.5474 13.9621 11.5474 18.9858V25.0142C11.5474 30.0379 13.5568 32.0473 18.5805 32.0473Z" stroke="#F24E80" stroke-opacity="0.8" stroke-width="3.0142" stroke-linecap="round" stroke-linejoin="round"/>
<path d="M13.5767 5.92421V1.90527" stroke="#F24E80" stroke-opacity="0.8" stroke-width="3.0142" stroke-linecap="round" stroke-linejoin="round"/>
<path d="M21.5947 5.92421V1.90527" stroke="#F24E80" stroke-opacity="0.8" stroke-width="3.0142" stroke-linecap="round" stroke-linejoin="round"/>
<path d="M29.6328 5.92421V1.90527" stroke="#F24E80" stroke-opacity="0.8" stroke-width="3.0142" stroke-linecap="round" stroke-linejoin="round"/>
<path d="M37.6709 13.9622H41.6898" stroke="#F24E80" stroke-opacity="0.8" stroke-width="3.0142" stroke-linecap="round" stroke-linejoin="round"/>
<path d="M37.6709 22H41.6898" stroke="#F24E80" stroke-opacity="0.8" stroke-width="3.0142" stroke-linecap="round" stroke-linejoin="round"/>
<path d="M37.6709 30.0378H41.6898" stroke="#F24E80" stroke-opacity="0.8" stroke-width="3.0142" stroke-linecap="round" stroke-linejoin="round"/>
<path d="M29.6328 38.0757V42.0946" stroke="#F24E80" stroke-opacity="0.8" stroke-width="3.0142" stroke-linecap="round" stroke-linejoin="round"/>
<path d="M21.6143 38.0757V42.0946" stroke="#F24E80" stroke-opacity="0.8" stroke-width="3.0142" stroke-linecap="round" stroke-linejoin="round"/>
<path d="M13.5767 38.0757V42.0946" stroke="#F24E80" stroke-opacity="0.8" stroke-width="3.0142" stroke-linecap="round" stroke-linejoin="round"/>
<path d="M1.5 13.9622H5.51894" stroke="#F24E80" stroke-opacity="0.8" stroke-width="3.0142" stroke-linecap="round" stroke-linejoin="round"/>
<path d="M1.5 22H5.51894" stroke="#F24E80" stroke-opacity="0.8" stroke-width="3.0142" stroke-linecap="round" stroke-linejoin="round"/>
<path d="M1.5 30.0378H5.51894" stroke="#F24E80" stroke-opacity="0.8" stroke-width="3.0142" stroke-linecap="round" stroke-linejoin="round"/>
</svg>
